<?xml version="1.0" encoding="utf-8"?>
<svg xmlns="http://www.w3.org/2000/svg" xmlns:xlink="http://www.w3.org/1999/xlink" width="600" height="400" viewBox="0 0 2400 1600">
<defs>
  <clipPath id="clip470">
    <rect x="0" y="0" width="2400" height="1600"/>
  </clipPath>
</defs>
<path clip-path="url(#clip470)" d="M0 1600 L2400 1600 L2400 0 L0 0  Z" fill="#ffffff" fill-rule="evenodd" fill-opacity="1"/>
<defs>
  <clipPath id="clip471">
    <rect x="212" y="47" width="2141" height="1377"/>
  </clipPath>
</defs>
<path clip-path="url(#clip470)" d="M212.459 1423.18 L2352.76 1423.18 L2352.76 47.2441 L212.459 47.2441  Z" fill="#ffffff" fill-rule="evenodd" fill-opacity="1"/>
<polyline clip-path="url(#clip471)" style="stroke:#000000; stroke-linecap:round; stroke-linejoin:round; stroke-width:2; stroke-opacity:0.1; fill:none" points="406.529,1423.18 406.529,47.2441 "/>
<polyline clip-path="url(#clip471)" style="stroke:#000000; stroke-linecap:round; stroke-linejoin:round; stroke-width:2; stroke-opacity:0.1; fill:none" points="874.386,1423.18 874.386,47.2441 "/>
<polyline clip-path="url(#clip471)" style="stroke:#000000; stroke-linecap:round; stroke-linejoin:round; stroke-width:2; stroke-opacity:0.1; fill:none" points="1342.24,1423.18 1342.24,47.2441 "/>
<polyline clip-path="url(#clip471)" style="stroke:#000000; stroke-linecap:round; stroke-linejoin:round; stroke-width:2; stroke-opacity:0.1; fill:none" points="1810.1,1423.18 1810.1,47.2441 "/>
<polyline clip-path="url(#clip471)" style="stroke:#000000; stroke-linecap:round; stroke-linejoin:round; stroke-width:2; stroke-opacity:0.1; fill:none" points="2277.96,1423.18 2277.96,47.2441 "/>
<polyline clip-path="url(#clip471)" style="stroke:#000000; stroke-linecap:round; stroke-linejoin:round; stroke-width:2; stroke-opacity:0.1; fill:none" points="212.459,1317.6 2352.76,1317.6 "/>
<polyline clip-path="url(#clip471)" style="stroke:#000000; stroke-linecap:round; stroke-linejoin:round; stroke-width:2; stroke-opacity:0.1; fill:none" points="212.459,1037.61 2352.76,1037.61 "/>
<polyline clip-path="url(#clip471)" style="stroke:#000000; stroke-linecap:round; stroke-linejoin:round; stroke-width:2; stroke-opacity:0.1; fill:none" points="212.459,757.621 2352.76,757.621 "/>
<polyline clip-path="url(#clip471)" style="stroke:#000000; stroke-linecap:round; stroke-linejoin:round; stroke-width:2; stroke-opacity:0.1; fill:none" points="212.459,477.634 2352.76,477.634 "/>
<polyline clip-path="url(#clip471)" style="stroke:#000000; stroke-linecap:round; stroke-linejoin:round; stroke-width:2; stroke-opacity:0.1; fill:none" points="212.459,197.646 2352.76,197.646 "/>
<polyline clip-path="url(#clip470)" style="stroke:#000000; stroke-linecap:round; stroke-linejoin:round; stroke-width:4; stroke-opacity:1; fill:none" points="212.459,1423.18 2352.76,1423.18 "/>
<polyline clip-path="url(#clip470)" style="stroke:#000000; stroke-linecap:round; stroke-linejoin:round; stroke-width:4; stroke-opacity:1; fill:none" points="406.529,1423.18 406.529,1404.28 "/>
<polyline clip-path="url(#clip470)" style="stroke:#000000; stroke-linecap:round; stroke-linejoin:round; stroke-width:4; stroke-opacity:1; fill:none" points="874.386,1423.18 874.386,1404.28 "/>
<polyline clip-path="url(#clip470)" style="stroke:#000000; stroke-linecap:round; stroke-linejoin:round; stroke-width:4; stroke-opacity:1; fill:none" points="1342.24,1423.18 1342.24,1404.28 "/>
<polyline clip-path="url(#clip470)" style="stroke:#000000; stroke-linecap:round; stroke-linejoin:round; stroke-width:4; stroke-opacity:1; fill:none" points="1810.1,1423.18 1810.1,1404.28 "/>
<polyline clip-path="url(#clip470)" style="stroke:#000000; stroke-linecap:round; stroke-linejoin:round; stroke-width:4; stroke-opacity:1; fill:none" points="2277.96,1423.18 2277.96,1404.28 "/>
<path clip-path="url(#clip470)" d="M375.429 1468.75 L405.105 1468.75 L405.105 1472.69 L375.429 1472.69 L375.429 1468.75 Z" fill="#000000" fill-rule="nonzero" fill-opacity="1" /><path clip-path="url(#clip470)" d="M428.045 1455.09 L416.239 1473.54 L428.045 1473.54 L428.045 1455.09 M426.818 1451.02 L432.698 1451.02 L432.698 1473.54 L437.628 1473.54 L437.628 1477.43 L432.698 1477.43 L432.698 1485.58 L428.045 1485.58 L428.045 1477.43 L412.443 1477.43 L412.443 1472.92 L426.818 1451.02 Z" fill="#000000" fill-rule="nonzero" fill-opacity="1" /><path clip-path="url(#clip470)" d="M844.328 1468.75 L874.004 1468.75 L874.004 1472.69 L844.328 1472.69 L844.328 1468.75 Z" fill="#000000" fill-rule="nonzero" fill-opacity="1" /><path clip-path="url(#clip470)" d="M888.125 1481.64 L904.444 1481.64 L904.444 1485.58 L882.5 1485.58 L882.5 1481.64 Q885.162 1478.89 889.745 1474.26 Q894.351 1469.61 895.532 1468.27 Q897.777 1465.74 898.657 1464.01 Q899.56 1462.25 899.56 1460.56 Q899.56 1457.8 897.615 1456.07 Q895.694 1454.33 892.592 1454.33 Q890.393 1454.33 887.939 1455.09 Q885.509 1455.86 882.731 1457.41 L882.731 1452.69 Q885.555 1451.55 888.009 1450.97 Q890.462 1450.39 892.5 1450.39 Q897.87 1450.39 901.064 1453.08 Q904.259 1455.77 904.259 1460.26 Q904.259 1462.39 903.449 1464.31 Q902.661 1466.2 900.555 1468.8 Q899.976 1469.47 896.874 1472.69 Q893.773 1475.88 888.125 1481.64 Z" fill="#000000" fill-rule="nonzero" fill-opacity="1" /><path clip-path="url(#clip470)" d="M1342.24 1454.1 Q1338.63 1454.1 1336.8 1457.66 Q1335 1461.2 1335 1468.33 Q1335 1475.44 1336.8 1479.01 Q1338.63 1482.55 1342.24 1482.55 Q1345.88 1482.55 1347.68 1479.01 Q1349.51 1475.44 1349.51 1468.33 Q1349.51 1461.2 1347.68 1457.66 Q1345.88 1454.1 1342.24 1454.1 M1342.24 1450.39 Q1348.05 1450.39 1351.11 1455 Q1354.19 1459.58 1354.19 1468.33 Q1354.19 1477.06 1351.11 1481.67 Q1348.05 1486.25 1342.24 1486.25 Q1336.43 1486.25 1333.35 1481.67 Q1330.3 1477.06 1330.3 1468.33 Q1330.3 1459.58 1333.35 1455 Q1336.43 1450.39 1342.24 1450.39 Z" fill="#000000" fill-rule="nonzero" fill-opacity="1" /><path clip-path="url(#clip470)" d="M1804.75 1481.64 L1821.07 1481.64 L1821.07 1485.58 L1799.13 1485.58 L1799.13 1481.64 Q1801.79 1478.89 1806.37 1474.26 Q1810.98 1469.61 1812.16 1468.27 Q1814.41 1465.74 1815.29 1464.01 Q1816.19 1462.25 1816.19 1460.56 Q1816.19 1457.8 1814.24 1456.07 Q1812.32 1454.33 1809.22 1454.33 Q1807.02 1454.33 1804.57 1455.09 Q1802.14 1455.86 1799.36 1457.41 L1799.36 1452.69 Q1802.18 1451.55 1804.64 1450.97 Q1807.09 1450.39 1809.13 1450.39 Q1814.5 1450.39 1817.69 1453.08 Q1820.89 1455.77 1820.89 1460.26 Q1820.89 1462.39 1820.08 1464.31 Q1819.29 1466.2 1817.18 1468.8 Q1816.61 1469.47 1813.5 1472.69 Q1810.4 1475.88 1804.75 1481.64 Z" fill="#000000" fill-rule="nonzero" fill-opacity="1" /><path clip-path="url(#clip470)" d="M2280.97 1455.09 L2269.16 1473.54 L2280.97 1473.54 L2280.97 1455.09 M2279.74 1451.02 L2285.62 1451.02 L2285.62 1473.54 L2290.55 1473.54 L2290.55 1477.43 L2285.62 1477.43 L2285.62 1485.58 L2280.97 1485.58 L2280.97 1477.43 L2265.37 1477.43 L2265.37 1472.92 L2279.74 1451.02 Z" fill="#000000" fill-rule="nonzero" fill-opacity="1" /><path clip-path="url(#clip470)" d="M1280.43 1532.4 L1267.54 1549.74 L1281.1 1568.04 L1274.19 1568.04 L1263.81 1554.04 L1253.44 1568.04 L1246.53 1568.04 L1260.38 1549.39 L1247.71 1532.4 L1254.61 1532.4 L1264.07 1545.1 L1273.52 1532.4 L1280.43 1532.4 Z" fill="#000000" fill-rule="nonzero" fill-opacity="1" /><path clip-path="url(#clip470)" d="M1291.31 1562.63 L1301.82 1562.63 L1301.82 1526.38 L1290.39 1528.67 L1290.39 1522.82 L1301.75 1520.52 L1308.18 1520.52 L1308.18 1562.63 L1318.69 1562.63 L1318.69 1568.04 L1291.31 1568.04 L1291.31 1562.63 Z" fill="#000000" fill-rule="nonzero" fill-opacity="1" /><polyline clip-path="url(#clip470)" style="stroke:#000000; stroke-linecap:round; stroke-linejoin:round; stroke-width:4; stroke-opacity:1; fill:none" points="212.459,1423.18 212.459,47.2441 "/>
<polyline clip-path="url(#clip470)" style="stroke:#000000; stroke-linecap:round; stroke-linejoin:round; stroke-width:4; stroke-opacity:1; fill:none" points="212.459,1317.6 231.357,1317.6 "/>
<polyline clip-path="url(#clip470)" style="stroke:#000000; stroke-linecap:round; stroke-linejoin:round; stroke-width:4; stroke-opacity:1; fill:none" points="212.459,1037.61 231.357,1037.61 "/>
<polyline clip-path="url(#clip470)" style="stroke:#000000; stroke-linecap:round; stroke-linejoin:round; stroke-width:4; stroke-opacity:1; fill:none" points="212.459,757.621 231.357,757.621 "/>
<polyline clip-path="url(#clip470)" style="stroke:#000000; stroke-linecap:round; stroke-linejoin:round; stroke-width:4; stroke-opacity:1; fill:none" points="212.459,477.634 231.357,477.634 "/>
<polyline clip-path="url(#clip470)" style="stroke:#000000; stroke-linecap:round; stroke-linejoin:round; stroke-width:4; stroke-opacity:1; fill:none" points="212.459,197.646 231.357,197.646 "/>
<path clip-path="url(#clip470)" d="M114.26 1318.05 L143.936 1318.05 L143.936 1321.98 L114.26 1321.98 L114.26 1318.05 Z" fill="#000000" fill-rule="nonzero" fill-opacity="1" /><path clip-path="url(#clip470)" d="M166.876 1304.39 L155.07 1322.84 L166.876 1322.84 L166.876 1304.39 M165.649 1300.32 L171.528 1300.32 L171.528 1322.84 L176.459 1322.84 L176.459 1326.73 L171.528 1326.73 L171.528 1334.88 L166.876 1334.88 L166.876 1326.73 L151.274 1326.73 L151.274 1322.21 L165.649 1300.32 Z" fill="#000000" fill-rule="nonzero" fill-opacity="1" /><path clip-path="url(#clip470)" d="M116.343 1038.06 L146.019 1038.06 L146.019 1042 L116.343 1042 L116.343 1038.06 Z" fill="#000000" fill-rule="nonzero" fill-opacity="1" /><path clip-path="url(#clip470)" d="M160.14 1050.95 L176.459 1050.95 L176.459 1054.89 L154.515 1054.89 L154.515 1050.95 Q157.177 1048.2 161.76 1043.57 Q166.366 1038.92 167.547 1037.57 Q169.792 1035.05 170.672 1033.31 Q171.575 1031.56 171.575 1029.87 Q171.575 1027.11 169.63 1025.37 Q167.709 1023.64 164.607 1023.64 Q162.408 1023.64 159.954 1024.4 Q157.524 1025.17 154.746 1026.72 L154.746 1022 Q157.57 1020.86 160.024 1020.28 Q162.477 1019.7 164.515 1019.7 Q169.885 1019.7 173.079 1022.39 Q176.274 1025.07 176.274 1029.56 Q176.274 1031.69 175.464 1033.62 Q174.677 1035.51 172.57 1038.11 Q171.991 1038.78 168.889 1042 Q165.788 1045.19 160.14 1050.95 Z" fill="#000000" fill-rule="nonzero" fill-opacity="1" /><path clip-path="url(#clip470)" d="M164.515 743.42 Q160.903 743.42 159.075 746.985 Q157.269 750.526 157.269 757.656 Q157.269 764.762 159.075 768.327 Q160.903 771.869 164.515 771.869 Q168.149 771.869 169.954 768.327 Q171.783 764.762 171.783 757.656 Q171.783 750.526 169.954 746.985 Q168.149 743.42 164.515 743.42 M164.515 739.716 Q170.325 739.716 173.38 744.323 Q176.459 748.906 176.459 757.656 Q176.459 766.383 173.38 770.989 Q170.325 775.572 164.515 775.572 Q158.704 775.572 155.626 770.989 Q152.57 766.383 152.57 757.656 Q152.57 748.906 155.626 744.323 Q158.704 739.716 164.515 739.716 Z" fill="#000000" fill-rule="nonzero" fill-opacity="1" /><path clip-path="url(#clip470)" d="M160.14 490.978 L176.459 490.978 L176.459 494.914 L154.515 494.914 L154.515 490.978 Q157.177 488.224 161.76 483.594 Q166.366 478.941 167.547 477.599 Q169.792 475.076 170.672 473.34 Q171.575 471.58 171.575 469.891 Q171.575 467.136 169.63 465.4 Q167.709 463.664 164.607 463.664 Q162.408 463.664 159.954 464.428 Q157.524 465.191 154.746 466.742 L154.746 462.02 Q157.57 460.886 160.024 460.307 Q162.477 459.729 164.515 459.729 Q169.885 459.729 173.079 462.414 Q176.274 465.099 176.274 469.59 Q176.274 471.719 175.464 473.641 Q174.677 475.539 172.57 478.131 Q171.991 478.803 168.889 482.02 Q165.788 485.215 160.14 490.978 Z" fill="#000000" fill-rule="nonzero" fill-opacity="1" /><path clip-path="url(#clip470)" d="M166.876 184.44 L155.07 202.889 L166.876 202.889 L166.876 184.44 M165.649 180.366 L171.528 180.366 L171.528 202.889 L176.459 202.889 L176.459 206.778 L171.528 206.778 L171.528 214.926 L166.876 214.926 L166.876 206.778 L151.274 206.778 L151.274 202.264 L165.649 180.366 Z" fill="#000000" fill-rule="nonzero" fill-opacity="1" /><path clip-path="url(#clip470)" d="M28.3562 737.138 L45.7028 750.028 L64.0042 736.469 L64.0042 743.376 L49.9996 753.752 L64.0042 764.128 L64.0042 771.035 L45.3526 757.19 L28.3562 769.857 L28.3562 762.951 L41.0558 753.497 L28.3562 744.044 L28.3562 737.138 Z" fill="#000000" fill-rule="nonzero" fill-opacity="1" /><path clip-path="url(#clip470)" d="M58.5933 721.828 L58.5933 699.389 L64.0042 699.389 L64.0042 729.562 L58.5933 729.562 Q54.8057 725.902 48.44 719.6 Q42.0425 713.266 40.1964 711.643 Q36.7271 708.556 34.34 707.346 Q31.921 706.105 29.5975 706.105 Q25.8099 706.105 23.4228 708.778 Q21.0356 711.42 21.0356 715.685 Q21.0356 718.709 22.086 722.083 Q23.1363 725.425 25.2688 729.244 L18.7758 729.244 Q17.2162 725.361 16.4205 721.987 Q15.6248 718.613 15.6248 715.812 Q15.6248 708.428 19.3169 704.036 Q23.009 699.644 29.1837 699.644 Q32.112 699.644 34.7537 700.758 Q37.3637 701.84 40.9285 704.736 Q41.8515 705.532 46.2757 709.797 Q50.668 714.062 58.5933 721.828 Z" fill="#000000" fill-rule="nonzero" fill-opacity="1" /><path clip-path="url(#clip471)" d="M1771.74 864.521 L1771.74 896.521 L1803.74 896.521 L1803.74 864.521 L1771.74 864.521 Z" fill="#ff0000" fill-rule="evenodd" fill-opacity="1" stroke="#000000" stroke-opacity="1" stroke-width="3.2"/>
<path clip-path="url(#clip471)" d="M1722.09 624.137 L1722.09 656.137 L1754.09 656.137 L1754.09 624.137 L1722.09 624.137 Z" fill="#ff0000" fill-rule="evenodd" fill-opacity="1" stroke="#000000" stroke-opacity="1" stroke-width="3.2"/>
<path clip-path="url(#clip471)" d="M1889.4 830.54 L1889.4 862.54 L1921.4 862.54 L1921.4 830.54 L1889.4 830.54 Z" fill="#ff0000" fill-rule="evenodd" fill-opacity="1" stroke="#000000" stroke-opacity="1" stroke-width="3.2"/>
<path clip-path="url(#clip471)" d="M1950.05 408.7 L1950.05 440.7 L1982.05 440.7 L1982.05 408.7 L1950.05 408.7 Z" fill="#ff0000" fill-rule="evenodd" fill-opacity="1" stroke="#000000" stroke-opacity="1" stroke-width="3.2"/>
<path clip-path="url(#clip471)" d="M1140.38 281.223 L1140.38 313.223 L1172.38 313.223 L1172.38 281.223 L1140.38 281.223 Z" fill="#ff0000" fill-rule="evenodd" fill-opacity="1" stroke="#000000" stroke-opacity="1" stroke-width="3.2"/>
<path clip-path="url(#clip471)" d="M1901.41 636.316 L1901.41 668.316 L1933.41 668.316 L1933.41 636.316 L1901.41 636.316 Z" fill="#ff0000" fill-rule="evenodd" fill-opacity="1" stroke="#000000" stroke-opacity="1" stroke-width="3.2"/>
<path clip-path="url(#clip471)" d="M1333.06 279.894 L1333.06 311.894 L1365.06 311.894 L1365.06 279.894 L1333.06 279.894 Z" fill="#ff0000" fill-rule="evenodd" fill-opacity="1" stroke="#000000" stroke-opacity="1" stroke-width="3.2"/>
<path clip-path="url(#clip471)" d="M1054.73 396.32 L1054.73 428.32 L1086.73 428.32 L1086.73 396.32 L1054.73 396.32 Z" fill="#ff0000" fill-rule="evenodd" fill-opacity="1" stroke="#000000" stroke-opacity="1" stroke-width="3.2"/>
<path clip-path="url(#clip471)" d="M1880.51 647.983 L1880.51 679.983 L1912.51 679.983 L1912.51 647.983 L1880.51 647.983 Z" fill="#ff0000" fill-rule="evenodd" fill-opacity="1" stroke="#000000" stroke-opacity="1" stroke-width="3.2"/>
<path clip-path="url(#clip471)" d="M1645.18 877.348 L1645.18 909.348 L1677.18 909.348 L1677.18 877.348 L1645.18 877.348 Z" fill="#ff0000" fill-rule="evenodd" fill-opacity="1" stroke="#000000" stroke-opacity="1" stroke-width="3.2"/>
<path clip-path="url(#clip471)" d="M1384.84 914.751 L1384.84 946.751 L1416.84 946.751 L1416.84 914.751 L1384.84 914.751 Z" fill="#ff0000" fill-rule="evenodd" fill-opacity="1" stroke="#000000" stroke-opacity="1" stroke-width="3.2"/>
<path clip-path="url(#clip471)" d="M2276.18 509.208 L2276.18 541.208 L2308.18 541.208 L2308.18 509.208 L2276.18 509.208 Z" fill="#ff0000" fill-rule="evenodd" fill-opacity="1" stroke="#000000" stroke-opacity="1" stroke-width="3.2"/>
<path clip-path="url(#clip471)" d="M1692.9 535.345 L1692.9 567.345 L1724.9 567.345 L1724.9 535.345 L1692.9 535.345 Z" fill="#ff0000" fill-rule="evenodd" fill-opacity="1" stroke="#000000" stroke-opacity="1" stroke-width="3.2"/>
<path clip-path="url(#clip471)" d="M1397.1 678.131 L1397.1 710.131 L1429.1 710.131 L1429.1 678.131 L1397.1 678.131 Z" fill="#ff0000" fill-rule="evenodd" fill-opacity="1" stroke="#000000" stroke-opacity="1" stroke-width="3.2"/>
<path clip-path="url(#clip471)" d="M1938.64 706.274 L1938.64 738.274 L1970.64 738.274 L1970.64 706.274 L1938.64 706.274 Z" fill="#ff0000" fill-rule="evenodd" fill-opacity="1" stroke="#000000" stroke-opacity="1" stroke-width="3.2"/>
<path clip-path="url(#clip471)" d="M1475.2 463.277 L1475.2 495.277 L1507.2 495.277 L1507.2 463.277 L1475.2 463.277 Z" fill="#ff0000" fill-rule="evenodd" fill-opacity="1" stroke="#000000" stroke-opacity="1" stroke-width="3.2"/>
<path clip-path="url(#clip471)" d="M1771.06 258.362 L1771.06 290.362 L1803.06 290.362 L1803.06 258.362 L1771.06 258.362 Z" fill="#ff0000" fill-rule="evenodd" fill-opacity="1" stroke="#000000" stroke-opacity="1" stroke-width="3.2"/>
<path clip-path="url(#clip471)" d="M1531.87 468.946 L1531.87 500.946 L1563.87 500.946 L1563.87 468.946 L1531.87 468.946 Z" fill="#ff0000" fill-rule="evenodd" fill-opacity="1" stroke="#000000" stroke-opacity="1" stroke-width="3.2"/>
<path clip-path="url(#clip471)" d="M1922.15 344.116 L1922.15 376.116 L1954.15 376.116 L1954.15 344.116 L1922.15 344.116 Z" fill="#ff0000" fill-rule="evenodd" fill-opacity="1" stroke="#000000" stroke-opacity="1" stroke-width="3.2"/>
<path clip-path="url(#clip471)" d="M1426.56 628.437 L1426.56 660.437 L1458.56 660.437 L1458.56 628.437 L1426.56 628.437 Z" fill="#ff0000" fill-rule="evenodd" fill-opacity="1" stroke="#000000" stroke-opacity="1" stroke-width="3.2"/>
<path clip-path="url(#clip471)" d="M1829.94 543.635 L1829.94 575.635 L1861.94 575.635 L1861.94 543.635 L1829.94 543.635 Z" fill="#ff0000" fill-rule="evenodd" fill-opacity="1" stroke="#000000" stroke-opacity="1" stroke-width="3.2"/>
<path clip-path="url(#clip471)" d="M1911.51 325.813 L1911.51 357.813 L1943.51 357.813 L1943.51 325.813 L1911.51 325.813 Z" fill="#ff0000" fill-rule="evenodd" fill-opacity="1" stroke="#000000" stroke-opacity="1" stroke-width="3.2"/>
<path clip-path="url(#clip471)" d="M1423.76 677.33 L1423.76 709.33 L1455.76 709.33 L1455.76 677.33 L1423.76 677.33 Z" fill="#ff0000" fill-rule="evenodd" fill-opacity="1" stroke="#000000" stroke-opacity="1" stroke-width="3.2"/>
<path clip-path="url(#clip471)" d="M1863 451.596 L1863 483.596 L1895 483.596 L1895 451.596 L1863 451.596 Z" fill="#ff0000" fill-rule="evenodd" fill-opacity="1" stroke="#000000" stroke-opacity="1" stroke-width="3.2"/>
<path clip-path="url(#clip471)" d="M1762.43 714.157 L1762.43 746.157 L1794.43 746.157 L1794.43 714.157 L1762.43 714.157 Z" fill="#ff0000" fill-rule="evenodd" fill-opacity="1" stroke="#000000" stroke-opacity="1" stroke-width="3.2"/>
<path clip-path="url(#clip471)" d="M1223.19 667.272 L1223.19 699.272 L1255.19 699.272 L1255.19 667.272 L1223.19 667.272 Z" fill="#ff0000" fill-rule="evenodd" fill-opacity="1" stroke="#000000" stroke-opacity="1" stroke-width="3.2"/>
<path clip-path="url(#clip471)" d="M1906.56 567.102 L1906.56 599.102 L1938.56 599.102 L1938.56 567.102 L1906.56 567.102 Z" fill="#ff0000" fill-rule="evenodd" fill-opacity="1" stroke="#000000" stroke-opacity="1" stroke-width="3.2"/>
<path clip-path="url(#clip471)" d="M1487.3 707.909 L1487.3 739.909 L1519.3 739.909 L1519.3 707.909 L1487.3 707.909 Z" fill="#ff0000" fill-rule="evenodd" fill-opacity="1" stroke="#000000" stroke-opacity="1" stroke-width="3.2"/>
<path clip-path="url(#clip471)" d="M1833.15 509.283 L1833.15 541.283 L1865.15 541.283 L1865.15 509.283 L1833.15 509.283 Z" fill="#ff0000" fill-rule="evenodd" fill-opacity="1" stroke="#000000" stroke-opacity="1" stroke-width="3.2"/>
<path clip-path="url(#clip471)" d="M2237.64 352.057 L2237.64 384.057 L2269.64 384.057 L2269.64 352.057 L2237.64 352.057 Z" fill="#ff0000" fill-rule="evenodd" fill-opacity="1" stroke="#000000" stroke-opacity="1" stroke-width="3.2"/>
<path clip-path="url(#clip471)" d="M1395.99 377.449 L1395.99 409.449 L1427.99 409.449 L1427.99 377.449 L1395.99 377.449 Z" fill="#ff0000" fill-rule="evenodd" fill-opacity="1" stroke="#000000" stroke-opacity="1" stroke-width="3.2"/>
<path clip-path="url(#clip471)" d="M1565.09 344.101 L1565.09 376.101 L1597.09 376.101 L1597.09 344.101 L1565.09 344.101 Z" fill="#ff0000" fill-rule="evenodd" fill-opacity="1" stroke="#000000" stroke-opacity="1" stroke-width="3.2"/>
<path clip-path="url(#clip471)" d="M2069.32 282.878 L2069.32 314.878 L2101.32 314.878 L2101.32 282.878 L2069.32 282.878 Z" fill="#ff0000" fill-rule="evenodd" fill-opacity="1" stroke="#000000" stroke-opacity="1" stroke-width="3.2"/>
<path clip-path="url(#clip471)" d="M1788.74 212.906 L1788.74 244.906 L1820.74 244.906 L1820.74 212.906 L1788.74 212.906 Z" fill="#ff0000" fill-rule="evenodd" fill-opacity="1" stroke="#000000" stroke-opacity="1" stroke-width="3.2"/>
<path clip-path="url(#clip471)" d="M2048.05 686.528 L2048.05 718.528 L2080.05 718.528 L2080.05 686.528 L2048.05 686.528 Z" fill="#ff0000" fill-rule="evenodd" fill-opacity="1" stroke="#000000" stroke-opacity="1" stroke-width="3.2"/>
<path clip-path="url(#clip471)" d="M1711.69 413.597 L1711.69 445.597 L1743.69 445.597 L1743.69 413.597 L1711.69 413.597 Z" fill="#ff0000" fill-rule="evenodd" fill-opacity="1" stroke="#000000" stroke-opacity="1" stroke-width="3.2"/>
<path clip-path="url(#clip471)" d="M1000.94 701.285 L1000.94 733.285 L1032.94 733.285 L1032.94 701.285 L1000.94 701.285 Z" fill="#ff0000" fill-rule="evenodd" fill-opacity="1" stroke="#000000" stroke-opacity="1" stroke-width="3.2"/>
<path clip-path="url(#clip471)" d="M1560.84 747.366 L1560.84 779.366 L1592.84 779.366 L1592.84 747.366 L1560.84 747.366 Z" fill="#ff0000" fill-rule="evenodd" fill-opacity="1" stroke="#000000" stroke-opacity="1" stroke-width="3.2"/>
<path clip-path="url(#clip471)" d="M2046.45 401.949 L2046.45 433.949 L2078.45 433.949 L2078.45 401.949 L2046.45 401.949 Z" fill="#ff0000" fill-rule="evenodd" fill-opacity="1" stroke="#000000" stroke-opacity="1" stroke-width="3.2"/>
<path clip-path="url(#clip471)" d="M1645.58 482.153 L1645.58 514.153 L1677.58 514.153 L1677.58 482.153 L1645.58 482.153 Z" fill="#ff0000" fill-rule="evenodd" fill-opacity="1" stroke="#000000" stroke-opacity="1" stroke-width="3.2"/>
<path clip-path="url(#clip471)" d="M2027.66 867.037 L2027.66 899.037 L2059.66 899.037 L2059.66 867.037 L2027.66 867.037 Z" fill="#ff0000" fill-rule="evenodd" fill-opacity="1" stroke="#000000" stroke-opacity="1" stroke-width="3.2"/>
<path clip-path="url(#clip471)" d="M1549.17 1030.7 L1549.17 1062.7 L1581.17 1062.7 L1581.17 1030.7 L1549.17 1030.7 Z" fill="#ff0000" fill-rule="evenodd" fill-opacity="1" stroke="#000000" stroke-opacity="1" stroke-width="3.2"/>
<path clip-path="url(#clip471)" d="M1730.07 597.021 L1730.07 629.021 L1762.07 629.021 L1762.07 597.021 L1730.07 597.021 Z" fill="#ff0000" fill-rule="evenodd" fill-opacity="1" stroke="#000000" stroke-opacity="1" stroke-width="3.2"/>
<path clip-path="url(#clip471)" d="M987.195 943.608 L987.195 975.608 L1019.2 975.608 L1019.2 943.608 L987.195 943.608 Z" fill="#ff0000" fill-rule="evenodd" fill-opacity="1" stroke="#000000" stroke-opacity="1" stroke-width="3.2"/>
<path clip-path="url(#clip471)" d="M1320.15 577.096 L1320.15 609.096 L1352.15 609.096 L1352.15 577.096 L1320.15 577.096 Z" fill="#ff0000" fill-rule="evenodd" fill-opacity="1" stroke="#000000" stroke-opacity="1" stroke-width="3.2"/>
<path clip-path="url(#clip471)" d="M1557.99 749.429 L1557.99 781.429 L1589.99 781.429 L1589.99 749.429 L1557.99 749.429 Z" fill="#ff0000" fill-rule="evenodd" fill-opacity="1" stroke="#000000" stroke-opacity="1" stroke-width="3.2"/>
<path clip-path="url(#clip471)" d="M1420.37 649.626 L1420.37 681.626 L1452.37 681.626 L1452.37 649.626 L1420.37 649.626 Z" fill="#ff0000" fill-rule="evenodd" fill-opacity="1" stroke="#000000" stroke-opacity="1" stroke-width="3.2"/>
<path clip-path="url(#clip471)" d="M1530.08 581.232 L1530.08 613.232 L1562.08 613.232 L1562.08 581.232 L1530.08 581.232 Z" fill="#ff0000" fill-rule="evenodd" fill-opacity="1" stroke="#000000" stroke-opacity="1" stroke-width="3.2"/>
<path clip-path="url(#clip471)" d="M2007.16 567.476 L2007.16 599.476 L2039.16 599.476 L2039.16 567.476 L2007.16 567.476 Z" fill="#ff0000" fill-rule="evenodd" fill-opacity="1" stroke="#000000" stroke-opacity="1" stroke-width="3.2"/>
<path clip-path="url(#clip471)" d="M1504.47 447.681 L1504.47 479.681 L1536.47 479.681 L1536.47 447.681 L1504.47 447.681 Z" fill="#ff0000" fill-rule="evenodd" fill-opacity="1" stroke="#000000" stroke-opacity="1" stroke-width="3.2"/>
<circle clip-path="url(#clip471)" cx="943.382" cy="962.243" r="14.4" fill="#0000ff" fill-rule="evenodd" fill-opacity="1" stroke="#000000" stroke-opacity="1" stroke-width="3.2"/>
<circle clip-path="url(#clip471)" cx="1448.33" cy="917.452" r="14.4" fill="#0000ff" fill-rule="evenodd" fill-opacity="1" stroke="#000000" stroke-opacity="1" stroke-width="3.2"/>
<circle clip-path="url(#clip471)" cx="1266.42" cy="976.083" r="14.4" fill="#0000ff" fill-rule="evenodd" fill-opacity="1" stroke="#000000" stroke-opacity="1" stroke-width="3.2"/>
<circle clip-path="url(#clip471)" cx="912.513" cy="1068.89" r="14.4" fill="#0000ff" fill-rule="evenodd" fill-opacity="1" stroke="#000000" stroke-opacity="1" stroke-width="3.2"/>
<circle clip-path="url(#clip471)" cx="1186.72" cy="788.21" r="14.4" fill="#0000ff" fill-rule="evenodd" fill-opacity="1" stroke="#000000" stroke-opacity="1" stroke-width="3.2"/>
<circle clip-path="url(#clip471)" cx="819.163" cy="744.432" r="14.4" fill="#0000ff" fill-rule="evenodd" fill-opacity="1" stroke="#000000" stroke-opacity="1" stroke-width="3.2"/>
<circle clip-path="url(#clip471)" cx="1531.06" cy="861.054" r="14.4" fill="#0000ff" fill-rule="evenodd" fill-opacity="1" stroke="#000000" stroke-opacity="1" stroke-width="3.2"/>
<circle clip-path="url(#clip471)" cx="730.051" cy="1034.28" r="14.4" fill="#0000ff" fill-rule="evenodd" fill-opacity="1" stroke="#000000" stroke-opacity="1" stroke-width="3.2"/>
<circle clip-path="url(#clip471)" cx="1589.39" cy="885.589" r="14.4" fill="#0000ff" fill-rule="evenodd" fill-opacity="1" stroke="#000000" stroke-opacity="1" stroke-width="3.2"/>
<circle clip-path="url(#clip471)" cx="878.106" cy="637.483" r="14.4" fill="#0000ff" fill-rule="evenodd" fill-opacity="1" stroke="#000000" stroke-opacity="1" stroke-width="3.2"/>
<circle clip-path="url(#clip471)" cx="1066.24" cy="868.216" r="14.4" fill="#0000ff" fill-rule="evenodd" fill-opacity="1" stroke="#000000" stroke-opacity="1" stroke-width="3.2"/>
<circle clip-path="url(#clip471)" cx="1398.92" cy="1013.57" r="14.4" fill="#0000ff" fill-rule="evenodd" fill-opacity="1" stroke="#000000" stroke-opacity="1" stroke-width="3.2"/>
<circle clip-path="url(#clip471)" cx="910.168" cy="761.844" r="14.4" fill="#0000ff" fill-rule="evenodd" fill-opacity="1" stroke="#000000" stroke-opacity="1" stroke-width="3.2"/>
<circle clip-path="url(#clip471)" cx="1181.47" cy="1080.28" r="14.4" fill="#0000ff" fill-rule="evenodd" fill-opacity="1" stroke="#000000" stroke-opacity="1" stroke-width="3.2"/>
<circle clip-path="url(#clip471)" cx="908.033" cy="1136.86" r="14.4" fill="#0000ff" fill-rule="evenodd" fill-opacity="1" stroke="#000000" stroke-opacity="1" stroke-width="3.2"/>
<circle clip-path="url(#clip471)" cx="595.259" cy="846.035" r="14.4" fill="#0000ff" fill-rule="evenodd" fill-opacity="1" stroke="#000000" stroke-opacity="1" stroke-width="3.2"/>
<circle clip-path="url(#clip471)" cx="1113.35" cy="1060.52" r="14.4" fill="#0000ff" fill-rule="evenodd" fill-opacity="1" stroke="#000000" stroke-opacity="1" stroke-width="3.2"/>
<circle clip-path="url(#clip471)" cx="273.033" cy="699.978" r="14.4" fill="#0000ff" fill-rule="evenodd" fill-opacity="1" stroke="#000000" stroke-opacity="1" stroke-width="3.2"/>
<circle clip-path="url(#clip471)" cx="1060.08" cy="999.477" r="14.4" fill="#0000ff" fill-rule="evenodd" fill-opacity="1" stroke="#000000" stroke-opacity="1" stroke-width="3.2"/>
<circle clip-path="url(#clip471)" cx="1274.17" cy="1173.46" r="14.4" fill="#0000ff" fill-rule="evenodd" fill-opacity="1" stroke="#000000" stroke-opacity="1" stroke-width="3.2"/>
<circle clip-path="url(#clip471)" cx="1515.02" cy="874.243" r="14.4" fill="#0000ff" fill-rule="evenodd" fill-opacity="1" stroke="#000000" stroke-opacity="1" stroke-width="3.2"/>
<circle clip-path="url(#clip471)" cx="1467.62" cy="774.98" r="14.4" fill="#0000ff" fill-rule="evenodd" fill-opacity="1" stroke="#000000" stroke-opacity="1" stroke-width="3.2"/>
<circle clip-path="url(#clip471)" cx="716.811" cy="1327.01" r="14.4" fill="#0000ff" fill-rule="evenodd" fill-opacity="1" stroke="#000000" stroke-opacity="1" stroke-width="3.2"/>
<circle clip-path="url(#clip471)" cx="807.754" cy="1208.51" r="14.4" fill="#0000ff" fill-rule="evenodd" fill-opacity="1" stroke="#000000" stroke-opacity="1" stroke-width="3.2"/>
<circle clip-path="url(#clip471)" cx="1177.75" cy="897.988" r="14.4" fill="#0000ff" fill-rule="evenodd" fill-opacity="1" stroke="#000000" stroke-opacity="1" stroke-width="3.2"/>
<circle clip-path="url(#clip471)" cx="824.357" cy="998" r="14.4" fill="#0000ff" fill-rule="evenodd" fill-opacity="1" stroke="#000000" stroke-opacity="1" stroke-width="3.2"/>
<circle clip-path="url(#clip471)" cx="936.315" cy="776.942" r="14.4" fill="#0000ff" fill-rule="evenodd" fill-opacity="1" stroke="#000000" stroke-opacity="1" stroke-width="3.2"/>
<circle clip-path="url(#clip471)" cx="595.313" cy="1079.21" r="14.4" fill="#0000ff" fill-rule="evenodd" fill-opacity="1" stroke="#000000" stroke-opacity="1" stroke-width="3.2"/>
<circle clip-path="url(#clip471)" cx="1155.2" cy="678.297" r="14.4" fill="#0000ff" fill-rule="evenodd" fill-opacity="1" stroke="#000000" stroke-opacity="1" stroke-width="3.2"/>
<circle clip-path="url(#clip471)" cx="821.779" cy="883.163" r="14.4" fill="#0000ff" fill-rule="evenodd" fill-opacity="1" stroke="#000000" stroke-opacity="1" stroke-width="3.2"/>
<circle clip-path="url(#clip471)" cx="978.155" cy="1097.05" r="14.4" fill="#0000ff" fill-rule="evenodd" fill-opacity="1" stroke="#000000" stroke-opacity="1" stroke-width="3.2"/>
<circle clip-path="url(#clip471)" cx="650.623" cy="889.11" r="14.4" fill="#0000ff" fill-rule="evenodd" fill-opacity="1" stroke="#000000" stroke-opacity="1" stroke-width="3.2"/>
<circle clip-path="url(#clip471)" cx="905.731" cy="778.939" r="14.4" fill="#0000ff" fill-rule="evenodd" fill-opacity="1" stroke="#000000" stroke-opacity="1" stroke-width="3.2"/>
<circle clip-path="url(#clip471)" cx="856.456" cy="1037.71" r="14.4" fill="#0000ff" fill-rule="evenodd" fill-opacity="1" stroke="#000000" stroke-opacity="1" stroke-width="3.2"/>
<circle clip-path="url(#clip471)" cx="772.235" cy="977.749" r="14.4" fill="#0000ff" fill-rule="evenodd" fill-opacity="1" stroke="#000000" stroke-opacity="1" stroke-width="3.2"/>
<circle clip-path="url(#clip471)" cx="1436.8" cy="1079.28" r="14.4" fill="#0000ff" fill-rule="evenodd" fill-opacity="1" stroke="#000000" stroke-opacity="1" stroke-width="3.2"/>
<circle clip-path="url(#clip471)" cx="1124.04" cy="1073.77" r="14.4" fill="#0000ff" fill-rule="evenodd" fill-opacity="1" stroke="#000000" stroke-opacity="1" stroke-width="3.2"/>
<circle clip-path="url(#clip471)" cx="1037.51" cy="1011.61" r="14.4" fill="#0000ff" fill-rule="evenodd" fill-opacity="1" stroke="#000000" stroke-opacity="1" stroke-width="3.2"/>
<circle clip-path="url(#clip471)" cx="792.619" cy="1085.09" r="14.4" fill="#0000ff" fill-rule="evenodd" fill-opacity="1" stroke="#000000" stroke-opacity="1" stroke-width="3.2"/>
<circle clip-path="url(#clip471)" cx="582.241" cy="1125.84" r="14.4" fill="#0000ff" fill-rule="evenodd" fill-opacity="1" stroke="#000000" stroke-opacity="1" stroke-width="3.2"/>
<circle clip-path="url(#clip471)" cx="1066.96" cy="1105.23" r="14.4" fill="#0000ff" fill-rule="evenodd" fill-opacity="1" stroke="#000000" stroke-opacity="1" stroke-width="3.2"/>
<circle clip-path="url(#clip471)" cx="1251.55" cy="781.796" r="14.4" fill="#0000ff" fill-rule="evenodd" fill-opacity="1" stroke="#000000" stroke-opacity="1" stroke-width="3.2"/>
<circle clip-path="url(#clip471)" cx="1191.99" cy="1096.95" r="14.4" fill="#0000ff" fill-rule="evenodd" fill-opacity="1" stroke="#000000" stroke-opacity="1" stroke-width="3.2"/>
<circle clip-path="url(#clip471)" cx="1418.25" cy="762.945" r="14.4" fill="#0000ff" fill-rule="evenodd" fill-opacity="1" stroke="#000000" stroke-opacity="1" stroke-width="3.2"/>
<circle clip-path="url(#clip471)" cx="1175.32" cy="698.153" r="14.4" fill="#0000ff" fill-rule="evenodd" fill-opacity="1" stroke="#000000" stroke-opacity="1" stroke-width="3.2"/>
<circle clip-path="url(#clip471)" cx="1141.66" cy="812.106" r="14.4" fill="#0000ff" fill-rule="evenodd" fill-opacity="1" stroke="#000000" stroke-opacity="1" stroke-width="3.2"/>
<circle clip-path="url(#clip471)" cx="671.695" cy="984.733" r="14.4" fill="#0000ff" fill-rule="evenodd" fill-opacity="1" stroke="#000000" stroke-opacity="1" stroke-width="3.2"/>
<circle clip-path="url(#clip471)" cx="658.277" cy="1033" r="14.4" fill="#0000ff" fill-rule="evenodd" fill-opacity="1" stroke="#000000" stroke-opacity="1" stroke-width="3.2"/>
<circle clip-path="url(#clip471)" cx="1270.06" cy="939.153" r="14.4" fill="#0000ff" fill-rule="evenodd" fill-opacity="1" stroke="#000000" stroke-opacity="1" stroke-width="3.2"/>
<circle clip-path="url(#clip471)" cx="1347.58" cy="983.312" r="14.4" fill="#0000ff" fill-rule="evenodd" fill-opacity="1" stroke="#000000" stroke-opacity="1" stroke-width="3.2"/>
<polyline clip-path="url(#clip471)" style="stroke:#3da44d; stroke-linecap:round; stroke-linejoin:round; stroke-width:4; stroke-opacity:1; fill:none" points="406.529,86.1857 429.922,102.411 453.315,118.637 476.707,134.863 500.1,151.088 523.493,167.314 546.886,183.54 570.279,199.765 593.672,215.991 617.065,232.217 640.457,248.442 663.85,264.668 687.243,280.894 710.636,297.119 734.029,313.345 757.422,329.571 780.815,345.796 804.208,362.022 827.6,378.248 850.993,394.473 874.386,410.699 897.779,426.924 921.172,443.15 944.565,459.376 967.958,475.601 991.351,491.827 1014.74,508.053 1038.14,524.278 1061.53,540.504 1084.92,556.73 1108.31,572.955 1131.71,589.181 1155.1,605.407 1178.49,621.632 1201.89,637.858 1225.28,654.084 1248.67,670.309 1272.06,686.535 1295.46,702.761 1318.85,718.986 1342.24,735.212 1365.64,751.438 1389.03,767.663 1412.42,783.889 1435.82,800.115 1459.21,816.34 1482.6,832.566 1505.99,848.792 1529.39,865.017 1552.78,881.243 1576.17,897.469 1599.57,913.694 1622.96,929.92 1646.35,946.146 1669.74,962.371 1693.14,978.597 1716.53,994.822 1739.92,1011.05 1763.32,1027.27 1786.71,1043.5 1810.1,1059.73 1833.49,1075.95 1856.89,1092.18 1880.28,1108.4 1903.67,1124.63 1927.07,1140.85 1950.46,1157.08 1973.85,1173.3 1997.24,1189.53 2020.64,1205.76 2044.03,1221.98 2067.42,1238.21 2090.82,1254.43 2114.21,1270.66 2137.6,1286.88 2160.99,1303.11 2184.39,1319.34 2207.78,1335.56 2231.17,1351.79 2254.57,1368.01 2277.96,1384.24 "/>
<path clip-path="url(#clip470)" d="M283.802 300.469 L841.835 300.469 L841.835 93.1086 L283.802 93.1086  Z" fill="#ffffff" fill-rule="evenodd" fill-opacity="1"/>
<polyline clip-path="url(#clip470)" style="stroke:#000000; stroke-linecap:round; stroke-linejoin:round; stroke-width:4; stroke-opacity:1; fill:none" points="283.802,300.469 841.835,300.469 841.835,93.1086 283.802,93.1086 283.802,300.469 "/>
<path clip-path="url(#clip470)" d="M356.171 122.193 L356.171 167.704 L401.682 167.704 L401.682 122.193 L356.171 122.193 Z" fill="#ff0000" fill-rule="evenodd" fill-opacity="1" stroke="#000000" stroke-opacity="1" stroke-width="4.55111"/>
<path clip-path="url(#clip470)" d="M478.333 158.34 L478.333 172.09 L474.051 172.09 L474.051 136.303 L478.333 136.303 L478.333 140.238 Q479.676 137.923 481.713 136.812 Q483.773 135.678 486.62 135.678 Q491.342 135.678 494.282 139.428 Q497.245 143.178 497.245 149.289 Q497.245 155.4 494.282 159.15 Q491.342 162.9 486.62 162.9 Q483.773 162.9 481.713 161.789 Q479.676 160.655 478.333 158.34 M492.824 149.289 Q492.824 144.59 490.879 141.928 Q488.958 139.243 485.578 139.243 Q482.199 139.243 480.254 141.928 Q478.333 144.59 478.333 149.289 Q478.333 153.988 480.254 156.673 Q482.199 159.335 485.578 159.335 Q488.958 159.335 490.879 156.673 Q492.824 153.988 492.824 149.289 Z" fill="#000000" fill-rule="nonzero" fill-opacity="1" /><path clip-path="url(#clip470)" d="M514.351 139.289 Q510.926 139.289 508.935 141.974 Q506.944 144.636 506.944 149.289 Q506.944 153.942 508.912 156.627 Q510.902 159.289 514.351 159.289 Q517.754 159.289 519.745 156.604 Q521.736 153.918 521.736 149.289 Q521.736 144.682 519.745 141.997 Q517.754 139.289 514.351 139.289 M514.351 135.678 Q519.907 135.678 523.078 139.289 Q526.25 142.9 526.25 149.289 Q526.25 155.655 523.078 159.289 Q519.907 162.9 514.351 162.9 Q508.773 162.9 505.602 159.289 Q502.453 155.655 502.453 149.289 Q502.453 142.9 505.602 139.289 Q508.773 135.678 514.351 135.678 Z" fill="#000000" fill-rule="nonzero" fill-opacity="1" /><path clip-path="url(#clip470)" d="M549.837 137.067 L549.837 141.094 Q548.032 140.169 546.087 139.706 Q544.143 139.243 542.06 139.243 Q538.888 139.243 537.291 140.215 Q535.717 141.187 535.717 143.131 Q535.717 144.613 536.851 145.469 Q537.986 146.303 541.412 147.067 L542.87 147.391 Q547.407 148.363 549.305 150.145 Q551.226 151.905 551.226 155.076 Q551.226 158.687 548.356 160.793 Q545.509 162.9 540.509 162.9 Q538.425 162.9 536.157 162.483 Q533.912 162.09 531.412 161.28 L531.412 156.881 Q533.773 158.108 536.064 158.733 Q538.356 159.335 540.601 159.335 Q543.611 159.335 545.231 158.317 Q546.851 157.275 546.851 155.4 Q546.851 153.664 545.671 152.738 Q544.513 151.812 540.555 150.956 L539.074 150.608 Q535.115 149.775 533.356 148.062 Q531.597 146.326 531.597 143.317 Q531.597 139.659 534.189 137.669 Q536.782 135.678 541.55 135.678 Q543.911 135.678 545.995 136.025 Q548.078 136.372 549.837 137.067 Z" fill="#000000" fill-rule="nonzero" fill-opacity="1" /><path clip-path="url(#clip470)" d="M558.009 136.303 L562.268 136.303 L562.268 162.229 L558.009 162.229 L558.009 136.303 M558.009 126.21 L562.268 126.21 L562.268 131.604 L558.009 131.604 L558.009 126.21 Z" fill="#000000" fill-rule="nonzero" fill-opacity="1" /><path clip-path="url(#clip470)" d="M575.393 128.942 L575.393 136.303 L584.166 136.303 L584.166 139.613 L575.393 139.613 L575.393 153.687 Q575.393 156.858 576.249 157.761 Q577.129 158.664 579.791 158.664 L584.166 158.664 L584.166 162.229 L579.791 162.229 Q574.86 162.229 572.985 160.4 Q571.11 158.548 571.11 153.687 L571.11 139.613 L567.985 139.613 L567.985 136.303 L571.11 136.303 L571.11 128.942 L575.393 128.942 Z" fill="#000000" fill-rule="nonzero" fill-opacity="1" /><path clip-path="url(#clip470)" d="M589.768 136.303 L594.027 136.303 L594.027 162.229 L589.768 162.229 L589.768 136.303 M589.768 126.21 L594.027 126.21 L594.027 131.604 L589.768 131.604 L589.768 126.21 Z" fill="#000000" fill-rule="nonzero" fill-opacity="1" /><path clip-path="url(#clip470)" d="M599.883 136.303 L604.397 136.303 L612.499 158.062 L620.601 136.303 L625.115 136.303 L615.393 162.229 L609.606 162.229 L599.883 136.303 Z" fill="#000000" fill-rule="nonzero" fill-opacity="1" /><path clip-path="url(#clip470)" d="M653.17 148.201 L653.17 150.284 L633.587 150.284 Q633.865 154.682 636.226 156.997 Q638.61 159.289 642.846 159.289 Q645.3 159.289 647.591 158.687 Q649.906 158.085 652.175 156.881 L652.175 160.909 Q649.883 161.881 647.476 162.391 Q645.068 162.9 642.592 162.9 Q636.388 162.9 632.754 159.289 Q629.143 155.678 629.143 149.52 Q629.143 143.155 632.568 139.428 Q636.017 135.678 641.851 135.678 Q647.082 135.678 650.115 139.057 Q653.17 142.414 653.17 148.201 M648.911 146.951 Q648.865 143.456 646.943 141.372 Q645.045 139.289 641.897 139.289 Q638.332 139.289 636.18 141.303 Q634.05 143.317 633.726 146.974 L648.911 146.951 Z" fill="#000000" fill-rule="nonzero" fill-opacity="1" /><circle clip-path="url(#clip470)" cx="378.926" cy="196.789" r="20.48" fill="#0000ff" fill-rule="evenodd" fill-opacity="1" stroke="#000000" stroke-opacity="1" stroke-width="4.55111"/>
<path clip-path="url(#clip470)" d="M495.764 198.421 L495.764 214.069 L491.504 214.069 L491.504 198.559 Q491.504 194.879 490.069 193.05 Q488.634 191.222 485.764 191.222 Q482.315 191.222 480.324 193.421 Q478.333 195.62 478.333 199.416 L478.333 214.069 L474.051 214.069 L474.051 188.143 L478.333 188.143 L478.333 192.171 Q479.861 189.833 481.921 188.675 Q484.004 187.518 486.713 187.518 Q491.18 187.518 493.472 190.296 Q495.764 193.05 495.764 198.421 Z" fill="#000000" fill-rule="nonzero" fill-opacity="1" /><path clip-path="url(#clip470)" d="M526.435 200.041 L526.435 202.124 L506.852 202.124 Q507.129 206.522 509.49 208.837 Q511.875 211.129 516.111 211.129 Q518.564 211.129 520.856 210.527 Q523.171 209.925 525.439 208.721 L525.439 212.749 Q523.148 213.721 520.74 214.231 Q518.333 214.74 515.856 214.74 Q509.652 214.74 506.018 211.129 Q502.407 207.518 502.407 201.36 Q502.407 194.995 505.833 191.268 Q509.282 187.518 515.115 187.518 Q520.347 187.518 523.379 190.897 Q526.435 194.254 526.435 200.041 M522.175 198.791 Q522.129 195.296 520.208 193.212 Q518.31 191.129 515.162 191.129 Q511.597 191.129 509.444 193.143 Q507.314 195.157 506.99 198.814 L522.175 198.791 Z" fill="#000000" fill-rule="nonzero" fill-opacity="1" /><path clip-path="url(#clip470)" d="M550.486 200.805 Q550.486 196.175 548.564 193.629 Q546.666 191.083 543.217 191.083 Q539.791 191.083 537.87 193.629 Q535.972 196.175 535.972 200.805 Q535.972 205.411 537.87 207.958 Q539.791 210.504 543.217 210.504 Q546.666 210.504 548.564 207.958 Q550.486 205.411 550.486 200.805 M554.745 210.851 Q554.745 217.471 551.805 220.689 Q548.865 223.93 542.8 223.93 Q540.555 223.93 538.564 223.582 Q536.574 223.258 534.699 222.564 L534.699 218.42 Q536.574 219.439 538.402 219.925 Q540.231 220.411 542.129 220.411 Q546.319 220.411 548.402 218.212 Q550.486 216.036 550.486 211.615 L550.486 209.508 Q549.166 211.8 547.106 212.934 Q545.046 214.069 542.175 214.069 Q537.407 214.069 534.49 210.434 Q531.574 206.8 531.574 200.805 Q531.574 194.786 534.49 191.152 Q537.407 187.518 542.175 187.518 Q545.046 187.518 547.106 188.652 Q549.166 189.786 550.486 192.078 L550.486 188.143 L554.745 188.143 L554.745 210.851 Z" fill="#000000" fill-rule="nonzero" fill-opacity="1" /><path clip-path="url(#clip470)" d="M575.3 201.036 Q570.138 201.036 568.147 202.217 Q566.157 203.397 566.157 206.245 Q566.157 208.513 567.638 209.856 Q569.143 211.175 571.712 211.175 Q575.254 211.175 577.384 208.675 Q579.536 206.152 579.536 201.985 L579.536 201.036 L575.3 201.036 M583.796 199.277 L583.796 214.069 L579.536 214.069 L579.536 210.133 Q578.078 212.495 575.902 213.629 Q573.726 214.74 570.578 214.74 Q566.597 214.74 564.235 212.518 Q561.898 210.272 561.898 206.522 Q561.898 202.147 564.814 199.925 Q567.754 197.703 573.564 197.703 L579.536 197.703 L579.536 197.286 Q579.536 194.347 577.592 192.749 Q575.671 191.129 572.175 191.129 Q569.953 191.129 567.847 191.661 Q565.74 192.194 563.796 193.259 L563.796 189.323 Q566.134 188.421 568.333 187.981 Q570.532 187.518 572.615 187.518 Q578.24 187.518 581.018 190.434 Q583.796 193.351 583.796 199.277 Z" fill="#000000" fill-rule="nonzero" fill-opacity="1" /><path clip-path="url(#clip470)" d="M596.782 180.782 L596.782 188.143 L605.555 188.143 L605.555 191.453 L596.782 191.453 L596.782 205.527 Q596.782 208.698 597.638 209.601 Q598.518 210.504 601.18 210.504 L605.555 210.504 L605.555 214.069 L601.18 214.069 Q596.249 214.069 594.374 212.24 Q592.499 210.388 592.499 205.527 L592.499 191.453 L589.374 191.453 L589.374 188.143 L592.499 188.143 L592.499 180.782 L596.782 180.782 Z" fill="#000000" fill-rule="nonzero" fill-opacity="1" /><path clip-path="url(#clip470)" d="M611.157 188.143 L615.416 188.143 L615.416 214.069 L611.157 214.069 L611.157 188.143 M611.157 178.05 L615.416 178.05 L615.416 183.444 L611.157 183.444 L611.157 178.05 Z" fill="#000000" fill-rule="nonzero" fill-opacity="1" /><path clip-path="url(#clip470)" d="M621.272 188.143 L625.786 188.143 L633.888 209.902 L641.99 188.143 L646.504 188.143 L636.781 214.069 L630.994 214.069 L621.272 188.143 Z" fill="#000000" fill-rule="nonzero" fill-opacity="1" /><path clip-path="url(#clip470)" d="M674.559 200.041 L674.559 202.124 L654.976 202.124 Q655.253 206.522 657.615 208.837 Q659.999 211.129 664.235 211.129 Q666.689 211.129 668.98 210.527 Q671.295 209.925 673.564 208.721 L673.564 212.749 Q671.272 213.721 668.865 214.231 Q666.457 214.74 663.98 214.74 Q657.777 214.74 654.142 211.129 Q650.531 207.518 650.531 201.36 Q650.531 194.995 653.957 191.268 Q657.406 187.518 663.24 187.518 Q668.471 187.518 671.503 190.897 Q674.559 194.254 674.559 200.041 M670.3 198.791 Q670.253 195.296 668.332 193.212 Q666.434 191.129 663.286 191.129 Q659.721 191.129 657.568 193.143 Q655.439 195.157 655.115 198.814 L670.3 198.791 Z" fill="#000000" fill-rule="nonzero" fill-opacity="1" /><polyline clip-path="url(#clip470)" style="stroke:#3da44d; stroke-linecap:round; stroke-linejoin:round; stroke-width:4; stroke-opacity:1; fill:none" points="307.583,248.629 450.27,248.629 "/>
<path clip-path="url(#clip470)" d="M496.296 232.483 L496.296 237.043 Q493.634 235.77 491.273 235.145 Q488.912 234.52 486.713 234.52 Q482.893 234.52 480.81 236.001 Q478.75 237.483 478.75 240.214 Q478.75 242.506 480.116 243.687 Q481.504 244.844 485.347 245.562 L488.171 246.14 Q493.403 247.136 495.879 249.659 Q498.379 252.159 498.379 256.372 Q498.379 261.395 495 263.987 Q491.643 266.58 485.139 266.58 Q482.685 266.58 479.907 266.024 Q477.153 265.469 474.19 264.381 L474.19 259.566 Q477.037 261.163 479.768 261.973 Q482.5 262.784 485.139 262.784 Q489.143 262.784 491.319 261.21 Q493.495 259.636 493.495 256.719 Q493.495 254.173 491.921 252.737 Q490.37 251.302 486.805 250.585 L483.958 250.029 Q478.727 248.987 476.389 246.765 Q474.051 244.543 474.051 240.585 Q474.051 236.001 477.268 233.362 Q480.509 230.724 486.18 230.724 Q488.611 230.724 491.134 231.163 Q493.657 231.603 496.296 232.483 Z" fill="#000000" fill-rule="nonzero" fill-opacity="1" /><path clip-path="url(#clip470)" d="M514.583 265.909 L501.389 231.349 L506.273 231.349 L517.222 260.446 L528.194 231.349 L533.055 231.349 L519.884 265.909 L514.583 265.909 Z" fill="#000000" fill-rule="nonzero" fill-opacity="1" /><path clip-path="url(#clip470)" d="M538.101 231.349 L545.069 231.349 L553.888 254.867 L562.754 231.349 L569.722 231.349 L569.722 265.909 L565.161 265.909 L565.161 235.562 L556.249 259.265 L551.55 259.265 L542.638 235.562 L542.638 265.909 L538.101 265.909 L538.101 231.349 Z" fill="#000000" fill-rule="nonzero" fill-opacity="1" /><path clip-path="url(#clip470)" d="M610.416 240.747 L610.416 244.774 Q608.61 243.849 606.666 243.386 Q604.721 242.923 602.638 242.923 Q599.467 242.923 597.87 243.895 Q596.295 244.867 596.295 246.811 Q596.295 248.293 597.43 249.149 Q598.564 249.983 601.99 250.747 L603.448 251.071 Q607.985 252.043 609.883 253.825 Q611.805 255.585 611.805 258.756 Q611.805 262.367 608.934 264.473 Q606.087 266.58 601.087 266.58 Q599.004 266.58 596.735 266.163 Q594.49 265.77 591.99 264.96 L591.99 260.561 Q594.351 261.788 596.643 262.413 Q598.934 263.015 601.18 263.015 Q604.189 263.015 605.809 261.997 Q607.43 260.955 607.43 259.08 Q607.43 257.344 606.249 256.418 Q605.092 255.492 601.133 254.636 L599.652 254.288 Q595.694 253.455 593.934 251.742 Q592.175 250.006 592.175 246.997 Q592.175 243.339 594.768 241.349 Q597.36 239.358 602.129 239.358 Q604.49 239.358 606.573 239.705 Q608.657 240.052 610.416 240.747 Z" fill="#000000" fill-rule="nonzero" fill-opacity="1" /><path clip-path="url(#clip470)" d="M640.763 251.881 L640.763 253.964 L621.18 253.964 Q621.457 258.362 623.818 260.677 Q626.203 262.969 630.439 262.969 Q632.892 262.969 635.184 262.367 Q637.499 261.765 639.767 260.561 L639.767 264.589 Q637.476 265.561 635.068 266.071 Q632.661 266.58 630.184 266.58 Q623.981 266.58 620.346 262.969 Q616.735 259.358 616.735 253.2 Q616.735 246.835 620.161 243.108 Q623.61 239.358 629.443 239.358 Q634.675 239.358 637.707 242.737 Q640.763 246.094 640.763 251.881 M636.504 250.631 Q636.457 247.136 634.536 245.052 Q632.638 242.969 629.49 242.969 Q625.925 242.969 623.772 244.983 Q621.643 246.997 621.318 250.654 L636.504 250.631 Z" fill="#000000" fill-rule="nonzero" fill-opacity="1" /><path clip-path="url(#clip470)" d="M651.874 262.02 L651.874 275.77 L647.591 275.77 L647.591 239.983 L651.874 239.983 L651.874 243.918 Q653.216 241.603 655.253 240.492 Q657.314 239.358 660.161 239.358 Q664.883 239.358 667.823 243.108 Q670.786 246.858 670.786 252.969 Q670.786 259.08 667.823 262.83 Q664.883 266.58 660.161 266.58 Q657.314 266.58 655.253 265.469 Q653.216 264.335 651.874 262.02 M666.365 252.969 Q666.365 248.27 664.42 245.608 Q662.499 242.923 659.119 242.923 Q655.74 242.923 653.795 245.608 Q651.874 248.27 651.874 252.969 Q651.874 257.668 653.795 260.353 Q655.74 263.015 659.119 263.015 Q662.499 263.015 664.42 260.353 Q666.365 257.668 666.365 252.969 Z" fill="#000000" fill-rule="nonzero" fill-opacity="1" /><path clip-path="url(#clip470)" d="M689.628 252.876 Q684.466 252.876 682.476 254.057 Q680.485 255.237 680.485 258.085 Q680.485 260.353 681.966 261.696 Q683.471 263.015 686.04 263.015 Q689.582 263.015 691.712 260.515 Q693.864 257.992 693.864 253.825 L693.864 252.876 L689.628 252.876 M698.124 251.117 L698.124 265.909 L693.864 265.909 L693.864 261.973 Q692.406 264.335 690.23 265.469 Q688.054 266.58 684.906 266.58 Q680.925 266.58 678.564 264.358 Q676.226 262.112 676.226 258.362 Q676.226 253.987 679.142 251.765 Q682.082 249.543 687.892 249.543 L693.864 249.543 L693.864 249.126 Q693.864 246.187 691.92 244.589 Q689.999 242.969 686.503 242.969 Q684.281 242.969 682.175 243.501 Q680.068 244.034 678.124 245.099 L678.124 241.163 Q680.462 240.261 682.661 239.821 Q684.86 239.358 686.943 239.358 Q692.568 239.358 695.346 242.274 Q698.124 245.191 698.124 251.117 Z" fill="#000000" fill-rule="nonzero" fill-opacity="1" /><path clip-path="url(#clip470)" d="M721.92 243.964 Q721.202 243.548 720.346 243.362 Q719.512 243.154 718.494 243.154 Q714.883 243.154 712.938 245.515 Q711.017 247.853 711.017 252.251 L711.017 265.909 L706.735 265.909 L706.735 239.983 L711.017 239.983 L711.017 244.011 Q712.36 241.649 714.512 240.515 Q716.665 239.358 719.744 239.358 Q720.184 239.358 720.716 239.427 Q721.249 239.474 721.897 239.589 L721.92 243.964 Z" fill="#000000" fill-rule="nonzero" fill-opacity="1" /><path clip-path="url(#clip470)" d="M738.17 252.876 Q733.008 252.876 731.017 254.057 Q729.026 255.237 729.026 258.085 Q729.026 260.353 730.508 261.696 Q732.012 263.015 734.582 263.015 Q738.123 263.015 740.253 260.515 Q742.406 257.992 742.406 253.825 L742.406 252.876 L738.17 252.876 M746.665 251.117 L746.665 265.909 L742.406 265.909 L742.406 261.973 Q740.947 264.335 738.772 265.469 Q736.596 266.58 733.448 266.58 Q729.466 266.58 727.105 264.358 Q724.767 262.112 724.767 258.362 Q724.767 253.987 727.684 251.765 Q730.623 249.543 736.434 249.543 L742.406 249.543 L742.406 249.126 Q742.406 246.187 740.461 244.589 Q738.54 242.969 735.045 242.969 Q732.823 242.969 730.716 243.501 Q728.61 244.034 726.665 245.099 L726.665 241.163 Q729.003 240.261 731.202 239.821 Q733.401 239.358 735.485 239.358 Q741.11 239.358 743.887 242.274 Q746.665 245.191 746.665 251.117 Z" fill="#000000" fill-rule="nonzero" fill-opacity="1" /><path clip-path="url(#clip470)" d="M759.651 232.622 L759.651 239.983 L768.424 239.983 L768.424 243.293 L759.651 243.293 L759.651 257.367 Q759.651 260.538 760.508 261.441 Q761.387 262.344 764.049 262.344 L768.424 262.344 L768.424 265.909 L764.049 265.909 Q759.119 265.909 757.244 264.08 Q755.369 262.228 755.369 257.367 L755.369 243.293 L752.244 243.293 L752.244 239.983 L755.369 239.983 L755.369 232.622 L759.651 232.622 Z" fill="#000000" fill-rule="nonzero" fill-opacity="1" /><path clip-path="url(#clip470)" d="M784.072 242.969 Q780.646 242.969 778.656 245.654 Q776.665 248.316 776.665 252.969 Q776.665 257.622 778.632 260.307 Q780.623 262.969 784.072 262.969 Q787.475 262.969 789.466 260.284 Q791.456 257.598 791.456 252.969 Q791.456 248.362 789.466 245.677 Q787.475 242.969 784.072 242.969 M784.072 239.358 Q789.628 239.358 792.799 242.969 Q795.97 246.58 795.97 252.969 Q795.97 259.335 792.799 262.969 Q789.628 266.58 784.072 266.58 Q778.494 266.58 775.322 262.969 Q772.174 259.335 772.174 252.969 Q772.174 246.58 775.322 242.969 Q778.494 239.358 784.072 239.358 Z" fill="#000000" fill-rule="nonzero" fill-opacity="1" /><path clip-path="url(#clip470)" d="M818.054 243.964 Q817.336 243.548 816.479 243.362 Q815.646 243.154 814.628 243.154 Q811.017 243.154 809.072 245.515 Q807.151 247.853 807.151 252.251 L807.151 265.909 L802.868 265.909 L802.868 239.983 L807.151 239.983 L807.151 244.011 Q808.493 241.649 810.646 240.515 Q812.799 239.358 815.878 239.358 Q816.317 239.358 816.85 239.427 Q817.382 239.474 818.03 239.589 L818.054 243.964 Z" fill="#000000" fill-rule="nonzero" fill-opacity="1" /></svg>
