<?xml version="1.0" encoding="utf-8"?>
<svg xmlns="http://www.w3.org/2000/svg" xmlns:xlink="http://www.w3.org/1999/xlink" width="600" height="400" viewBox="0 0 2400 1600">
<defs>
  <clipPath id="clip830">
    <rect x="0" y="0" width="2400" height="1600"/>
  </clipPath>
</defs>
<path clip-path="url(#clip830)" d="M0 1600 L2400 1600 L2400 0 L0 0  Z" fill="#ffffff" fill-rule="evenodd" fill-opacity="1"/>
<defs>
  <clipPath id="clip831">
    <rect x="212" y="47" width="2141" height="1377"/>
  </clipPath>
</defs>
<path clip-path="url(#clip830)" d="M212.459 1423.18 L2352.76 1423.18 L2352.76 47.2441 L212.459 47.2441  Z" fill="#ffffff" fill-rule="evenodd" fill-opacity="1"/>
<polyline clip-path="url(#clip831)" style="stroke:#000000; stroke-linecap:round; stroke-linejoin:round; stroke-width:2; stroke-opacity:0.1; fill:none" points="406.529,1423.18 406.529,47.2441 "/>
<polyline clip-path="url(#clip831)" style="stroke:#000000; stroke-linecap:round; stroke-linejoin:round; stroke-width:2; stroke-opacity:0.1; fill:none" points="874.386,1423.18 874.386,47.2441 "/>
<polyline clip-path="url(#clip831)" style="stroke:#000000; stroke-linecap:round; stroke-linejoin:round; stroke-width:2; stroke-opacity:0.1; fill:none" points="1342.24,1423.18 1342.24,47.2441 "/>
<polyline clip-path="url(#clip831)" style="stroke:#000000; stroke-linecap:round; stroke-linejoin:round; stroke-width:2; stroke-opacity:0.1; fill:none" points="1810.1,1423.18 1810.1,47.2441 "/>
<polyline clip-path="url(#clip831)" style="stroke:#000000; stroke-linecap:round; stroke-linejoin:round; stroke-width:2; stroke-opacity:0.1; fill:none" points="2277.96,1423.18 2277.96,47.2441 "/>
<polyline clip-path="url(#clip831)" style="stroke:#000000; stroke-linecap:round; stroke-linejoin:round; stroke-width:2; stroke-opacity:0.1; fill:none" points="212.459,1373.11 2352.76,1373.11 "/>
<polyline clip-path="url(#clip831)" style="stroke:#000000; stroke-linecap:round; stroke-linejoin:round; stroke-width:2; stroke-opacity:0.1; fill:none" points="212.459,1042.14 2352.76,1042.14 "/>
<polyline clip-path="url(#clip831)" style="stroke:#000000; stroke-linecap:round; stroke-linejoin:round; stroke-width:2; stroke-opacity:0.1; fill:none" points="212.459,711.171 2352.76,711.171 "/>
<polyline clip-path="url(#clip831)" style="stroke:#000000; stroke-linecap:round; stroke-linejoin:round; stroke-width:2; stroke-opacity:0.1; fill:none" points="212.459,380.202 2352.76,380.202 "/>
<polyline clip-path="url(#clip831)" style="stroke:#000000; stroke-linecap:round; stroke-linejoin:round; stroke-width:2; stroke-opacity:0.1; fill:none" points="212.459,49.2337 2352.76,49.2337 "/>
<polyline clip-path="url(#clip830)" style="stroke:#000000; stroke-linecap:round; stroke-linejoin:round; stroke-width:4; stroke-opacity:1; fill:none" points="212.459,1423.18 2352.76,1423.18 "/>
<polyline clip-path="url(#clip830)" style="stroke:#000000; stroke-linecap:round; stroke-linejoin:round; stroke-width:4; stroke-opacity:1; fill:none" points="406.529,1423.18 406.529,1404.28 "/>
<polyline clip-path="url(#clip830)" style="stroke:#000000; stroke-linecap:round; stroke-linejoin:round; stroke-width:4; stroke-opacity:1; fill:none" points="874.386,1423.18 874.386,1404.28 "/>
<polyline clip-path="url(#clip830)" style="stroke:#000000; stroke-linecap:round; stroke-linejoin:round; stroke-width:4; stroke-opacity:1; fill:none" points="1342.24,1423.18 1342.24,1404.28 "/>
<polyline clip-path="url(#clip830)" style="stroke:#000000; stroke-linecap:round; stroke-linejoin:round; stroke-width:4; stroke-opacity:1; fill:none" points="1810.1,1423.18 1810.1,1404.28 "/>
<polyline clip-path="url(#clip830)" style="stroke:#000000; stroke-linecap:round; stroke-linejoin:round; stroke-width:4; stroke-opacity:1; fill:none" points="2277.96,1423.18 2277.96,1404.28 "/>
<path clip-path="url(#clip830)" d="M375.429 1468.75 L405.105 1468.75 L405.105 1472.69 L375.429 1472.69 L375.429 1468.75 Z" fill="#000000" fill-rule="nonzero" fill-opacity="1" /><path clip-path="url(#clip830)" d="M428.045 1455.09 L416.239 1473.54 L428.045 1473.54 L428.045 1455.09 M426.818 1451.02 L432.698 1451.02 L432.698 1473.54 L437.628 1473.54 L437.628 1477.43 L432.698 1477.43 L432.698 1485.58 L428.045 1485.58 L428.045 1477.43 L412.443 1477.43 L412.443 1472.92 L426.818 1451.02 Z" fill="#000000" fill-rule="nonzero" fill-opacity="1" /><path clip-path="url(#clip830)" d="M844.328 1468.75 L874.004 1468.75 L874.004 1472.69 L844.328 1472.69 L844.328 1468.75 Z" fill="#000000" fill-rule="nonzero" fill-opacity="1" /><path clip-path="url(#clip830)" d="M888.125 1481.64 L904.444 1481.64 L904.444 1485.58 L882.5 1485.58 L882.5 1481.64 Q885.162 1478.89 889.745 1474.26 Q894.351 1469.61 895.532 1468.27 Q897.777 1465.74 898.657 1464.01 Q899.56 1462.25 899.56 1460.56 Q899.56 1457.8 897.615 1456.07 Q895.694 1454.33 892.592 1454.33 Q890.393 1454.33 887.939 1455.09 Q885.509 1455.86 882.731 1457.41 L882.731 1452.69 Q885.555 1451.55 888.009 1450.97 Q890.462 1450.39 892.5 1450.39 Q897.87 1450.39 901.064 1453.08 Q904.259 1455.77 904.259 1460.26 Q904.259 1462.39 903.449 1464.31 Q902.661 1466.2 900.555 1468.8 Q899.976 1469.47 896.874 1472.69 Q893.773 1475.88 888.125 1481.64 Z" fill="#000000" fill-rule="nonzero" fill-opacity="1" /><path clip-path="url(#clip830)" d="M1342.24 1454.1 Q1338.63 1454.1 1336.8 1457.66 Q1335 1461.2 1335 1468.33 Q1335 1475.44 1336.8 1479.01 Q1338.63 1482.55 1342.24 1482.55 Q1345.88 1482.55 1347.68 1479.01 Q1349.51 1475.44 1349.51 1468.33 Q1349.51 1461.2 1347.68 1457.66 Q1345.88 1454.1 1342.24 1454.1 M1342.24 1450.39 Q1348.05 1450.39 1351.11 1455 Q1354.19 1459.58 1354.19 1468.33 Q1354.19 1477.06 1351.11 1481.67 Q1348.05 1486.25 1342.24 1486.25 Q1336.43 1486.25 1333.35 1481.67 Q1330.3 1477.06 1330.3 1468.33 Q1330.3 1459.58 1333.35 1455 Q1336.43 1450.39 1342.24 1450.39 Z" fill="#000000" fill-rule="nonzero" fill-opacity="1" /><path clip-path="url(#clip830)" d="M1804.75 1481.64 L1821.07 1481.64 L1821.07 1485.58 L1799.13 1485.58 L1799.13 1481.64 Q1801.79 1478.89 1806.37 1474.26 Q1810.98 1469.61 1812.16 1468.27 Q1814.41 1465.74 1815.29 1464.01 Q1816.19 1462.25 1816.19 1460.56 Q1816.19 1457.8 1814.24 1456.07 Q1812.32 1454.33 1809.22 1454.33 Q1807.02 1454.33 1804.57 1455.09 Q1802.14 1455.86 1799.36 1457.41 L1799.36 1452.69 Q1802.18 1451.55 1804.64 1450.97 Q1807.09 1450.39 1809.13 1450.39 Q1814.5 1450.39 1817.69 1453.08 Q1820.89 1455.77 1820.89 1460.26 Q1820.89 1462.39 1820.08 1464.31 Q1819.29 1466.2 1817.18 1468.8 Q1816.61 1469.47 1813.5 1472.69 Q1810.4 1475.88 1804.75 1481.64 Z" fill="#000000" fill-rule="nonzero" fill-opacity="1" /><path clip-path="url(#clip830)" d="M2280.97 1455.09 L2269.16 1473.54 L2280.97 1473.54 L2280.97 1455.09 M2279.74 1451.02 L2285.62 1451.02 L2285.62 1473.54 L2290.55 1473.54 L2290.55 1477.43 L2285.62 1477.43 L2285.62 1485.58 L2280.97 1485.58 L2280.97 1477.43 L2265.37 1477.43 L2265.37 1472.92 L2279.74 1451.02 Z" fill="#000000" fill-rule="nonzero" fill-opacity="1" /><path clip-path="url(#clip830)" d="M1280.43 1532.4 L1267.54 1549.74 L1281.1 1568.04 L1274.19 1568.04 L1263.81 1554.04 L1253.44 1568.04 L1246.53 1568.04 L1260.38 1549.39 L1247.71 1532.4 L1254.61 1532.4 L1264.07 1545.1 L1273.52 1532.4 L1280.43 1532.4 Z" fill="#000000" fill-rule="nonzero" fill-opacity="1" /><path clip-path="url(#clip830)" d="M1291.31 1562.63 L1301.82 1562.63 L1301.82 1526.38 L1290.39 1528.67 L1290.39 1522.82 L1301.75 1520.52 L1308.18 1520.52 L1308.18 1562.63 L1318.69 1562.63 L1318.69 1568.04 L1291.31 1568.04 L1291.31 1562.63 Z" fill="#000000" fill-rule="nonzero" fill-opacity="1" /><polyline clip-path="url(#clip830)" style="stroke:#000000; stroke-linecap:round; stroke-linejoin:round; stroke-width:4; stroke-opacity:1; fill:none" points="212.459,1423.18 212.459,47.2441 "/>
<polyline clip-path="url(#clip830)" style="stroke:#000000; stroke-linecap:round; stroke-linejoin:round; stroke-width:4; stroke-opacity:1; fill:none" points="212.459,1373.11 231.357,1373.11 "/>
<polyline clip-path="url(#clip830)" style="stroke:#000000; stroke-linecap:round; stroke-linejoin:round; stroke-width:4; stroke-opacity:1; fill:none" points="212.459,1042.14 231.357,1042.14 "/>
<polyline clip-path="url(#clip830)" style="stroke:#000000; stroke-linecap:round; stroke-linejoin:round; stroke-width:4; stroke-opacity:1; fill:none" points="212.459,711.171 231.357,711.171 "/>
<polyline clip-path="url(#clip830)" style="stroke:#000000; stroke-linecap:round; stroke-linejoin:round; stroke-width:4; stroke-opacity:1; fill:none" points="212.459,380.202 231.357,380.202 "/>
<polyline clip-path="url(#clip830)" style="stroke:#000000; stroke-linecap:round; stroke-linejoin:round; stroke-width:4; stroke-opacity:1; fill:none" points="212.459,49.2337 231.357,49.2337 "/>
<path clip-path="url(#clip830)" d="M114.26 1373.56 L143.936 1373.56 L143.936 1377.5 L114.26 1377.5 L114.26 1373.56 Z" fill="#000000" fill-rule="nonzero" fill-opacity="1" /><path clip-path="url(#clip830)" d="M166.876 1359.9 L155.07 1378.35 L166.876 1378.35 L166.876 1359.9 M165.649 1355.83 L171.528 1355.83 L171.528 1378.35 L176.459 1378.35 L176.459 1382.24 L171.528 1382.24 L171.528 1390.39 L166.876 1390.39 L166.876 1382.24 L151.274 1382.24 L151.274 1377.73 L165.649 1355.83 Z" fill="#000000" fill-rule="nonzero" fill-opacity="1" /><path clip-path="url(#clip830)" d="M116.343 1042.59 L146.019 1042.59 L146.019 1046.53 L116.343 1046.53 L116.343 1042.59 Z" fill="#000000" fill-rule="nonzero" fill-opacity="1" /><path clip-path="url(#clip830)" d="M160.14 1055.48 L176.459 1055.48 L176.459 1059.42 L154.515 1059.42 L154.515 1055.48 Q157.177 1052.73 161.76 1048.1 Q166.366 1043.45 167.547 1042.11 Q169.792 1039.58 170.672 1037.85 Q171.575 1036.09 171.575 1034.4 Q171.575 1031.64 169.63 1029.91 Q167.709 1028.17 164.607 1028.17 Q162.408 1028.17 159.954 1028.93 Q157.524 1029.7 154.746 1031.25 L154.746 1026.53 Q157.57 1025.39 160.024 1024.81 Q162.477 1024.23 164.515 1024.23 Q169.885 1024.23 173.079 1026.92 Q176.274 1029.61 176.274 1034.1 Q176.274 1036.23 175.464 1038.15 Q174.677 1040.04 172.57 1042.64 Q171.991 1043.31 168.889 1046.53 Q165.788 1049.72 160.14 1055.48 Z" fill="#000000" fill-rule="nonzero" fill-opacity="1" /><path clip-path="url(#clip830)" d="M164.515 696.97 Q160.903 696.97 159.075 700.535 Q157.269 704.076 157.269 711.206 Q157.269 718.312 159.075 721.877 Q160.903 725.419 164.515 725.419 Q168.149 725.419 169.954 721.877 Q171.783 718.312 171.783 711.206 Q171.783 704.076 169.954 700.535 Q168.149 696.97 164.515 696.97 M164.515 693.266 Q170.325 693.266 173.38 697.873 Q176.459 702.456 176.459 711.206 Q176.459 719.933 173.38 724.539 Q170.325 729.122 164.515 729.122 Q158.704 729.122 155.626 724.539 Q152.57 719.933 152.57 711.206 Q152.57 702.456 155.626 697.873 Q158.704 693.266 164.515 693.266 Z" fill="#000000" fill-rule="nonzero" fill-opacity="1" /><path clip-path="url(#clip830)" d="M160.14 393.547 L176.459 393.547 L176.459 397.482 L154.515 397.482 L154.515 393.547 Q157.177 390.793 161.76 386.163 Q166.366 381.51 167.547 380.168 Q169.792 377.645 170.672 375.908 Q171.575 374.149 171.575 372.459 Q171.575 369.705 169.63 367.969 Q167.709 366.233 164.607 366.233 Q162.408 366.233 159.954 366.996 Q157.524 367.76 154.746 369.311 L154.746 364.589 Q157.57 363.455 160.024 362.876 Q162.477 362.297 164.515 362.297 Q169.885 362.297 173.079 364.983 Q176.274 367.668 176.274 372.158 Q176.274 374.288 175.464 376.209 Q174.677 378.108 172.57 380.7 Q171.991 381.371 168.889 384.589 Q165.788 387.783 160.14 393.547 Z" fill="#000000" fill-rule="nonzero" fill-opacity="1" /><path clip-path="url(#clip830)" d="M166.876 36.0278 L155.07 54.4767 L166.876 54.4767 L166.876 36.0278 M165.649 31.9537 L171.528 31.9537 L171.528 54.4767 L176.459 54.4767 L176.459 58.3656 L171.528 58.3656 L171.528 66.5137 L166.876 66.5137 L166.876 58.3656 L151.274 58.3656 L151.274 53.8517 L165.649 31.9537 Z" fill="#000000" fill-rule="nonzero" fill-opacity="1" /><path clip-path="url(#clip830)" d="M28.3562 737.138 L45.7028 750.028 L64.0042 736.469 L64.0042 743.376 L49.9996 753.752 L64.0042 764.128 L64.0042 771.035 L45.3526 757.19 L28.3562 769.857 L28.3562 762.951 L41.0558 753.497 L28.3562 744.044 L28.3562 737.138 Z" fill="#000000" fill-rule="nonzero" fill-opacity="1" /><path clip-path="url(#clip830)" d="M58.5933 721.828 L58.5933 699.389 L64.0042 699.389 L64.0042 729.562 L58.5933 729.562 Q54.8057 725.902 48.44 719.6 Q42.0425 713.266 40.1964 711.643 Q36.7271 708.556 34.34 707.346 Q31.921 706.105 29.5975 706.105 Q25.8099 706.105 23.4228 708.778 Q21.0356 711.42 21.0356 715.685 Q21.0356 718.709 22.086 722.083 Q23.1363 725.425 25.2688 729.244 L18.7758 729.244 Q17.2162 725.361 16.4205 721.987 Q15.6248 718.613 15.6248 715.812 Q15.6248 708.428 19.3169 704.036 Q23.009 699.644 29.1837 699.644 Q32.112 699.644 34.7537 700.758 Q37.3637 701.84 40.9285 704.736 Q41.8515 705.532 46.2757 709.797 Q50.668 714.062 58.5933 721.828 Z" fill="#000000" fill-rule="nonzero" fill-opacity="1" /><path clip-path="url(#clip831)" d="M1771.74 840.449 L1771.74 872.449 L1803.74 872.449 L1803.74 840.449 L1771.74 840.449 Z" fill="#ff0000" fill-rule="evenodd" fill-opacity="1" stroke="#000000" stroke-opacity="1" stroke-width="3.2"/>
<path clip-path="url(#clip831)" d="M1722.09 556.296 L1722.09 588.296 L1754.09 588.296 L1754.09 556.296 L1722.09 556.296 Z" fill="#ff0000" fill-rule="evenodd" fill-opacity="1" stroke="#000000" stroke-opacity="1" stroke-width="3.2"/>
<path clip-path="url(#clip831)" d="M1889.4 800.281 L1889.4 832.281 L1921.4 832.281 L1921.4 800.281 L1889.4 800.281 Z" fill="#ff0000" fill-rule="evenodd" fill-opacity="1" stroke="#000000" stroke-opacity="1" stroke-width="3.2"/>
<path clip-path="url(#clip831)" d="M1950.05 301.631 L1950.05 333.631 L1982.05 333.631 L1982.05 301.631 L1950.05 301.631 Z" fill="#ff0000" fill-rule="evenodd" fill-opacity="1" stroke="#000000" stroke-opacity="1" stroke-width="3.2"/>
<path clip-path="url(#clip831)" d="M1140.38 150.942 L1140.38 182.942 L1172.38 182.942 L1172.38 150.942 L1140.38 150.942 Z" fill="#ff0000" fill-rule="evenodd" fill-opacity="1" stroke="#000000" stroke-opacity="1" stroke-width="3.2"/>
<path clip-path="url(#clip831)" d="M1901.41 570.692 L1901.41 602.692 L1933.41 602.692 L1933.41 570.692 L1901.41 570.692 Z" fill="#ff0000" fill-rule="evenodd" fill-opacity="1" stroke="#000000" stroke-opacity="1" stroke-width="3.2"/>
<path clip-path="url(#clip831)" d="M1333.06 149.371 L1333.06 181.371 L1365.06 181.371 L1365.06 149.371 L1333.06 149.371 Z" fill="#ff0000" fill-rule="evenodd" fill-opacity="1" stroke="#000000" stroke-opacity="1" stroke-width="3.2"/>
<path clip-path="url(#clip831)" d="M1054.73 286.996 L1054.73 318.996 L1086.73 318.996 L1086.73 286.996 L1054.73 286.996 Z" fill="#ff0000" fill-rule="evenodd" fill-opacity="1" stroke="#000000" stroke-opacity="1" stroke-width="3.2"/>
<path clip-path="url(#clip831)" d="M1880.51 584.483 L1880.51 616.483 L1912.51 616.483 L1912.51 584.483 L1880.51 584.483 Z" fill="#ff0000" fill-rule="evenodd" fill-opacity="1" stroke="#000000" stroke-opacity="1" stroke-width="3.2"/>
<path clip-path="url(#clip831)" d="M1645.18 855.612 L1645.18 887.612 L1677.18 887.612 L1677.18 855.612 L1645.18 855.612 Z" fill="#ff0000" fill-rule="evenodd" fill-opacity="1" stroke="#000000" stroke-opacity="1" stroke-width="3.2"/>
<path clip-path="url(#clip831)" d="M1384.84 899.826 L1384.84 931.826 L1416.84 931.826 L1416.84 899.826 L1384.84 899.826 Z" fill="#ff0000" fill-rule="evenodd" fill-opacity="1" stroke="#000000" stroke-opacity="1" stroke-width="3.2"/>
<path clip-path="url(#clip831)" d="M2276.18 420.439 L2276.18 452.439 L2308.18 452.439 L2308.18 420.439 L2276.18 420.439 Z" fill="#ff0000" fill-rule="evenodd" fill-opacity="1" stroke="#000000" stroke-opacity="1" stroke-width="3.2"/>
<path clip-path="url(#clip831)" d="M1692.9 451.336 L1692.9 483.336 L1724.9 483.336 L1724.9 451.336 L1692.9 451.336 Z" fill="#ff0000" fill-rule="evenodd" fill-opacity="1" stroke="#000000" stroke-opacity="1" stroke-width="3.2"/>
<path clip-path="url(#clip831)" d="M1397.1 620.121 L1397.1 652.121 L1429.1 652.121 L1429.1 620.121 L1397.1 620.121 Z" fill="#ff0000" fill-rule="evenodd" fill-opacity="1" stroke="#000000" stroke-opacity="1" stroke-width="3.2"/>
<path clip-path="url(#clip831)" d="M1938.64 653.388 L1938.64 685.388 L1970.64 685.388 L1970.64 653.388 L1938.64 653.388 Z" fill="#ff0000" fill-rule="evenodd" fill-opacity="1" stroke="#000000" stroke-opacity="1" stroke-width="3.2"/>
<path clip-path="url(#clip831)" d="M1475.2 366.145 L1475.2 398.145 L1507.2 398.145 L1507.2 366.145 L1475.2 366.145 Z" fill="#ff0000" fill-rule="evenodd" fill-opacity="1" stroke="#000000" stroke-opacity="1" stroke-width="3.2"/>
<path clip-path="url(#clip831)" d="M1771.06 123.918 L1771.06 155.918 L1803.06 155.918 L1803.06 123.918 L1771.06 123.918 Z" fill="#ff0000" fill-rule="evenodd" fill-opacity="1" stroke="#000000" stroke-opacity="1" stroke-width="3.2"/>
<path clip-path="url(#clip831)" d="M1531.87 372.847 L1531.87 404.847 L1563.87 404.847 L1563.87 372.847 L1531.87 372.847 Z" fill="#ff0000" fill-rule="evenodd" fill-opacity="1" stroke="#000000" stroke-opacity="1" stroke-width="3.2"/>
<path clip-path="url(#clip831)" d="M1922.15 225.287 L1922.15 257.287 L1954.15 257.287 L1954.15 225.287 L1922.15 225.287 Z" fill="#ff0000" fill-rule="evenodd" fill-opacity="1" stroke="#000000" stroke-opacity="1" stroke-width="3.2"/>
<path clip-path="url(#clip831)" d="M1426.56 561.378 L1426.56 593.378 L1458.56 593.378 L1458.56 561.378 L1426.56 561.378 Z" fill="#ff0000" fill-rule="evenodd" fill-opacity="1" stroke="#000000" stroke-opacity="1" stroke-width="3.2"/>
<path clip-path="url(#clip831)" d="M1829.94 461.135 L1829.94 493.135 L1861.94 493.135 L1861.94 461.135 L1829.94 461.135 Z" fill="#ff0000" fill-rule="evenodd" fill-opacity="1" stroke="#000000" stroke-opacity="1" stroke-width="3.2"/>
<path clip-path="url(#clip831)" d="M1911.51 203.651 L1911.51 235.651 L1943.51 235.651 L1943.51 203.651 L1911.51 203.651 Z" fill="#ff0000" fill-rule="evenodd" fill-opacity="1" stroke="#000000" stroke-opacity="1" stroke-width="3.2"/>
<path clip-path="url(#clip831)" d="M1423.76 619.173 L1423.76 651.173 L1455.76 651.173 L1455.76 619.173 L1423.76 619.173 Z" fill="#ff0000" fill-rule="evenodd" fill-opacity="1" stroke="#000000" stroke-opacity="1" stroke-width="3.2"/>
<path clip-path="url(#clip831)" d="M1863 352.337 L1863 384.337 L1895 384.337 L1895 352.337 L1863 352.337 Z" fill="#ff0000" fill-rule="evenodd" fill-opacity="1" stroke="#000000" stroke-opacity="1" stroke-width="3.2"/>
<path clip-path="url(#clip831)" d="M1762.43 662.706 L1762.43 694.706 L1794.43 694.706 L1794.43 662.706 L1762.43 662.706 Z" fill="#ff0000" fill-rule="evenodd" fill-opacity="1" stroke="#000000" stroke-opacity="1" stroke-width="3.2"/>
<path clip-path="url(#clip831)" d="M1223.19 607.284 L1223.19 639.284 L1255.19 639.284 L1255.19 607.284 L1223.19 607.284 Z" fill="#ff0000" fill-rule="evenodd" fill-opacity="1" stroke="#000000" stroke-opacity="1" stroke-width="3.2"/>
<path clip-path="url(#clip831)" d="M1906.56 488.875 L1906.56 520.875 L1938.56 520.875 L1938.56 488.875 L1906.56 488.875 Z" fill="#ff0000" fill-rule="evenodd" fill-opacity="1" stroke="#000000" stroke-opacity="1" stroke-width="3.2"/>
<path clip-path="url(#clip831)" d="M1487.3 655.321 L1487.3 687.321 L1519.3 687.321 L1519.3 655.321 L1487.3 655.321 Z" fill="#ff0000" fill-rule="evenodd" fill-opacity="1" stroke="#000000" stroke-opacity="1" stroke-width="3.2"/>
<path clip-path="url(#clip831)" d="M1833.15 420.528 L1833.15 452.528 L1865.15 452.528 L1865.15 420.528 L1833.15 420.528 Z" fill="#ff0000" fill-rule="evenodd" fill-opacity="1" stroke="#000000" stroke-opacity="1" stroke-width="3.2"/>
<path clip-path="url(#clip831)" d="M2237.64 234.674 L2237.64 266.674 L2269.64 266.674 L2269.64 234.674 L2237.64 234.674 Z" fill="#ff0000" fill-rule="evenodd" fill-opacity="1" stroke="#000000" stroke-opacity="1" stroke-width="3.2"/>
<path clip-path="url(#clip831)" d="M1395.99 264.69 L1395.99 296.69 L1427.99 296.69 L1427.99 264.69 L1395.99 264.69 Z" fill="#ff0000" fill-rule="evenodd" fill-opacity="1" stroke="#000000" stroke-opacity="1" stroke-width="3.2"/>
<path clip-path="url(#clip831)" d="M1565.09 225.269 L1565.09 257.269 L1597.09 257.269 L1597.09 225.269 L1565.09 225.269 Z" fill="#ff0000" fill-rule="evenodd" fill-opacity="1" stroke="#000000" stroke-opacity="1" stroke-width="3.2"/>
<path clip-path="url(#clip831)" d="M2069.32 152.899 L2069.32 184.899 L2101.32 184.899 L2101.32 152.899 L2069.32 152.899 Z" fill="#ff0000" fill-rule="evenodd" fill-opacity="1" stroke="#000000" stroke-opacity="1" stroke-width="3.2"/>
<path clip-path="url(#clip831)" d="M1788.74 70.1857 L1788.74 102.186 L1820.74 102.186 L1820.74 70.1857 L1788.74 70.1857 Z" fill="#ff0000" fill-rule="evenodd" fill-opacity="1" stroke="#000000" stroke-opacity="1" stroke-width="3.2"/>
<path clip-path="url(#clip831)" d="M2048.05 630.046 L2048.05 662.046 L2080.05 662.046 L2080.05 630.046 L2048.05 630.046 Z" fill="#ff0000" fill-rule="evenodd" fill-opacity="1" stroke="#000000" stroke-opacity="1" stroke-width="3.2"/>
<path clip-path="url(#clip831)" d="M1711.69 307.419 L1711.69 339.419 L1743.69 339.419 L1743.69 307.419 L1711.69 307.419 Z" fill="#ff0000" fill-rule="evenodd" fill-opacity="1" stroke="#000000" stroke-opacity="1" stroke-width="3.2"/>
<path clip-path="url(#clip831)" d="M1000.94 647.491 L1000.94 679.491 L1032.94 679.491 L1032.94 647.491 L1000.94 647.491 Z" fill="#ff0000" fill-rule="evenodd" fill-opacity="1" stroke="#000000" stroke-opacity="1" stroke-width="3.2"/>
<path clip-path="url(#clip831)" d="M1560.84 701.962 L1560.84 733.962 L1592.84 733.962 L1592.84 701.962 L1560.84 701.962 Z" fill="#ff0000" fill-rule="evenodd" fill-opacity="1" stroke="#000000" stroke-opacity="1" stroke-width="3.2"/>
<path clip-path="url(#clip831)" d="M2046.45 293.651 L2046.45 325.651 L2078.45 325.651 L2078.45 293.651 L2046.45 293.651 Z" fill="#ff0000" fill-rule="evenodd" fill-opacity="1" stroke="#000000" stroke-opacity="1" stroke-width="3.2"/>
<path clip-path="url(#clip831)" d="M1645.58 388.458 L1645.58 420.458 L1677.58 420.458 L1677.58 388.458 L1645.58 388.458 Z" fill="#ff0000" fill-rule="evenodd" fill-opacity="1" stroke="#000000" stroke-opacity="1" stroke-width="3.2"/>
<path clip-path="url(#clip831)" d="M2027.66 843.423 L2027.66 875.423 L2059.66 875.423 L2059.66 843.423 L2027.66 843.423 Z" fill="#ff0000" fill-rule="evenodd" fill-opacity="1" stroke="#000000" stroke-opacity="1" stroke-width="3.2"/>
<path clip-path="url(#clip831)" d="M1549.17 1036.88 L1549.17 1068.88 L1581.17 1068.88 L1581.17 1036.88 L1549.17 1036.88 Z" fill="#ff0000" fill-rule="evenodd" fill-opacity="1" stroke="#000000" stroke-opacity="1" stroke-width="3.2"/>
<path clip-path="url(#clip831)" d="M1730.07 524.241 L1730.07 556.241 L1762.07 556.241 L1762.07 524.241 L1730.07 524.241 Z" fill="#ff0000" fill-rule="evenodd" fill-opacity="1" stroke="#000000" stroke-opacity="1" stroke-width="3.2"/>
<path clip-path="url(#clip831)" d="M987.195 933.937 L987.195 965.937 L1019.2 965.937 L1019.2 933.937 L987.195 933.937 Z" fill="#ff0000" fill-rule="evenodd" fill-opacity="1" stroke="#000000" stroke-opacity="1" stroke-width="3.2"/>
<path clip-path="url(#clip831)" d="M1320.15 500.688 L1320.15 532.688 L1352.15 532.688 L1352.15 500.688 L1320.15 500.688 Z" fill="#ff0000" fill-rule="evenodd" fill-opacity="1" stroke="#000000" stroke-opacity="1" stroke-width="3.2"/>
<path clip-path="url(#clip831)" d="M1557.99 704.401 L1557.99 736.401 L1589.99 736.401 L1589.99 704.401 L1557.99 704.401 Z" fill="#ff0000" fill-rule="evenodd" fill-opacity="1" stroke="#000000" stroke-opacity="1" stroke-width="3.2"/>
<path clip-path="url(#clip831)" d="M1420.37 586.425 L1420.37 618.425 L1452.37 618.425 L1452.37 586.425 L1420.37 586.425 Z" fill="#ff0000" fill-rule="evenodd" fill-opacity="1" stroke="#000000" stroke-opacity="1" stroke-width="3.2"/>
<path clip-path="url(#clip831)" d="M1530.08 505.577 L1530.08 537.577 L1562.08 537.577 L1562.08 505.577 L1530.08 505.577 Z" fill="#ff0000" fill-rule="evenodd" fill-opacity="1" stroke="#000000" stroke-opacity="1" stroke-width="3.2"/>
<path clip-path="url(#clip831)" d="M2007.16 489.317 L2007.16 521.317 L2039.16 521.317 L2039.16 489.317 L2007.16 489.317 Z" fill="#ff0000" fill-rule="evenodd" fill-opacity="1" stroke="#000000" stroke-opacity="1" stroke-width="3.2"/>
<path clip-path="url(#clip831)" d="M1504.47 347.709 L1504.47 379.709 L1536.47 379.709 L1536.47 347.709 L1504.47 347.709 Z" fill="#ff0000" fill-rule="evenodd" fill-opacity="1" stroke="#000000" stroke-opacity="1" stroke-width="3.2"/>
<circle clip-path="url(#clip831)" cx="943.382" cy="953.051" r="14.4" fill="#0000ff" fill-rule="evenodd" fill-opacity="1" stroke="#000000" stroke-opacity="1" stroke-width="3.2"/>
<circle clip-path="url(#clip831)" cx="1448.33" cy="900.105" r="14.4" fill="#0000ff" fill-rule="evenodd" fill-opacity="1" stroke="#000000" stroke-opacity="1" stroke-width="3.2"/>
<circle clip-path="url(#clip831)" cx="1266.42" cy="969.411" r="14.4" fill="#0000ff" fill-rule="evenodd" fill-opacity="1" stroke="#000000" stroke-opacity="1" stroke-width="3.2"/>
<circle clip-path="url(#clip831)" cx="912.513" cy="1079.12" r="14.4" fill="#0000ff" fill-rule="evenodd" fill-opacity="1" stroke="#000000" stroke-opacity="1" stroke-width="3.2"/>
<circle clip-path="url(#clip831)" cx="1186.72" cy="747.33" r="14.4" fill="#0000ff" fill-rule="evenodd" fill-opacity="1" stroke="#000000" stroke-opacity="1" stroke-width="3.2"/>
<circle clip-path="url(#clip831)" cx="819.163" cy="695.58" r="14.4" fill="#0000ff" fill-rule="evenodd" fill-opacity="1" stroke="#000000" stroke-opacity="1" stroke-width="3.2"/>
<circle clip-path="url(#clip831)" cx="1531.06" cy="833.438" r="14.4" fill="#0000ff" fill-rule="evenodd" fill-opacity="1" stroke="#000000" stroke-opacity="1" stroke-width="3.2"/>
<circle clip-path="url(#clip831)" cx="730.051" cy="1038.2" r="14.4" fill="#0000ff" fill-rule="evenodd" fill-opacity="1" stroke="#000000" stroke-opacity="1" stroke-width="3.2"/>
<circle clip-path="url(#clip831)" cx="1589.39" cy="862.44" r="14.4" fill="#0000ff" fill-rule="evenodd" fill-opacity="1" stroke="#000000" stroke-opacity="1" stroke-width="3.2"/>
<circle clip-path="url(#clip831)" cx="878.106" cy="569.157" r="14.4" fill="#0000ff" fill-rule="evenodd" fill-opacity="1" stroke="#000000" stroke-opacity="1" stroke-width="3.2"/>
<circle clip-path="url(#clip831)" cx="1066.24" cy="841.904" r="14.4" fill="#0000ff" fill-rule="evenodd" fill-opacity="1" stroke="#000000" stroke-opacity="1" stroke-width="3.2"/>
<circle clip-path="url(#clip831)" cx="1398.92" cy="1013.73" r="14.4" fill="#0000ff" fill-rule="evenodd" fill-opacity="1" stroke="#000000" stroke-opacity="1" stroke-width="3.2"/>
<circle clip-path="url(#clip831)" cx="910.168" cy="716.163" r="14.4" fill="#0000ff" fill-rule="evenodd" fill-opacity="1" stroke="#000000" stroke-opacity="1" stroke-width="3.2"/>
<circle clip-path="url(#clip831)" cx="1181.47" cy="1092.58" r="14.4" fill="#0000ff" fill-rule="evenodd" fill-opacity="1" stroke="#000000" stroke-opacity="1" stroke-width="3.2"/>
<circle clip-path="url(#clip831)" cx="908.033" cy="1159.46" r="14.4" fill="#0000ff" fill-rule="evenodd" fill-opacity="1" stroke="#000000" stroke-opacity="1" stroke-width="3.2"/>
<circle clip-path="url(#clip831)" cx="595.259" cy="815.683" r="14.4" fill="#0000ff" fill-rule="evenodd" fill-opacity="1" stroke="#000000" stroke-opacity="1" stroke-width="3.2"/>
<circle clip-path="url(#clip831)" cx="1113.35" cy="1069.22" r="14.4" fill="#0000ff" fill-rule="evenodd" fill-opacity="1" stroke="#000000" stroke-opacity="1" stroke-width="3.2"/>
<circle clip-path="url(#clip831)" cx="273.033" cy="643.033" r="14.4" fill="#0000ff" fill-rule="evenodd" fill-opacity="1" stroke="#000000" stroke-opacity="1" stroke-width="3.2"/>
<circle clip-path="url(#clip831)" cx="1060.08" cy="997.065" r="14.4" fill="#0000ff" fill-rule="evenodd" fill-opacity="1" stroke="#000000" stroke-opacity="1" stroke-width="3.2"/>
<circle clip-path="url(#clip831)" cx="1274.17" cy="1202.73" r="14.4" fill="#0000ff" fill-rule="evenodd" fill-opacity="1" stroke="#000000" stroke-opacity="1" stroke-width="3.2"/>
<circle clip-path="url(#clip831)" cx="1515.02" cy="849.028" r="14.4" fill="#0000ff" fill-rule="evenodd" fill-opacity="1" stroke="#000000" stroke-opacity="1" stroke-width="3.2"/>
<circle clip-path="url(#clip831)" cx="1467.62" cy="731.691" r="14.4" fill="#0000ff" fill-rule="evenodd" fill-opacity="1" stroke="#000000" stroke-opacity="1" stroke-width="3.2"/>
<circle clip-path="url(#clip831)" cx="716.811" cy="1384.24" r="14.4" fill="#0000ff" fill-rule="evenodd" fill-opacity="1" stroke="#000000" stroke-opacity="1" stroke-width="3.2"/>
<circle clip-path="url(#clip831)" cx="807.754" cy="1244.16" r="14.4" fill="#0000ff" fill-rule="evenodd" fill-opacity="1" stroke="#000000" stroke-opacity="1" stroke-width="3.2"/>
<circle clip-path="url(#clip831)" cx="1177.75" cy="877.097" r="14.4" fill="#0000ff" fill-rule="evenodd" fill-opacity="1" stroke="#000000" stroke-opacity="1" stroke-width="3.2"/>
<circle clip-path="url(#clip831)" cx="824.357" cy="995.319" r="14.4" fill="#0000ff" fill-rule="evenodd" fill-opacity="1" stroke="#000000" stroke-opacity="1" stroke-width="3.2"/>
<circle clip-path="url(#clip831)" cx="936.315" cy="734.011" r="14.4" fill="#0000ff" fill-rule="evenodd" fill-opacity="1" stroke="#000000" stroke-opacity="1" stroke-width="3.2"/>
<circle clip-path="url(#clip831)" cx="595.313" cy="1091.31" r="14.4" fill="#0000ff" fill-rule="evenodd" fill-opacity="1" stroke="#000000" stroke-opacity="1" stroke-width="3.2"/>
<circle clip-path="url(#clip831)" cx="1155.2" cy="617.403" r="14.4" fill="#0000ff" fill-rule="evenodd" fill-opacity="1" stroke="#000000" stroke-opacity="1" stroke-width="3.2"/>
<circle clip-path="url(#clip831)" cx="821.779" cy="859.572" r="14.4" fill="#0000ff" fill-rule="evenodd" fill-opacity="1" stroke="#000000" stroke-opacity="1" stroke-width="3.2"/>
<circle clip-path="url(#clip831)" cx="978.155" cy="1112.41" r="14.4" fill="#0000ff" fill-rule="evenodd" fill-opacity="1" stroke="#000000" stroke-opacity="1" stroke-width="3.2"/>
<circle clip-path="url(#clip831)" cx="650.623" cy="866.602" r="14.4" fill="#0000ff" fill-rule="evenodd" fill-opacity="1" stroke="#000000" stroke-opacity="1" stroke-width="3.2"/>
<circle clip-path="url(#clip831)" cx="905.731" cy="736.37" r="14.4" fill="#0000ff" fill-rule="evenodd" fill-opacity="1" stroke="#000000" stroke-opacity="1" stroke-width="3.2"/>
<circle clip-path="url(#clip831)" cx="856.456" cy="1042.26" r="14.4" fill="#0000ff" fill-rule="evenodd" fill-opacity="1" stroke="#000000" stroke-opacity="1" stroke-width="3.2"/>
<circle clip-path="url(#clip831)" cx="772.235" cy="971.381" r="14.4" fill="#0000ff" fill-rule="evenodd" fill-opacity="1" stroke="#000000" stroke-opacity="1" stroke-width="3.2"/>
<circle clip-path="url(#clip831)" cx="1436.8" cy="1091.4" r="14.4" fill="#0000ff" fill-rule="evenodd" fill-opacity="1" stroke="#000000" stroke-opacity="1" stroke-width="3.2"/>
<circle clip-path="url(#clip831)" cx="1124.04" cy="1084.88" r="14.4" fill="#0000ff" fill-rule="evenodd" fill-opacity="1" stroke="#000000" stroke-opacity="1" stroke-width="3.2"/>
<circle clip-path="url(#clip831)" cx="1037.51" cy="1011.41" r="14.4" fill="#0000ff" fill-rule="evenodd" fill-opacity="1" stroke="#000000" stroke-opacity="1" stroke-width="3.2"/>
<circle clip-path="url(#clip831)" cx="792.619" cy="1098.27" r="14.4" fill="#0000ff" fill-rule="evenodd" fill-opacity="1" stroke="#000000" stroke-opacity="1" stroke-width="3.2"/>
<circle clip-path="url(#clip831)" cx="582.241" cy="1146.44" r="14.4" fill="#0000ff" fill-rule="evenodd" fill-opacity="1" stroke="#000000" stroke-opacity="1" stroke-width="3.2"/>
<circle clip-path="url(#clip831)" cx="1066.96" cy="1122.07" r="14.4" fill="#0000ff" fill-rule="evenodd" fill-opacity="1" stroke="#000000" stroke-opacity="1" stroke-width="3.2"/>
<circle clip-path="url(#clip831)" cx="1251.55" cy="739.748" r="14.4" fill="#0000ff" fill-rule="evenodd" fill-opacity="1" stroke="#000000" stroke-opacity="1" stroke-width="3.2"/>
<circle clip-path="url(#clip831)" cx="1191.99" cy="1112.28" r="14.4" fill="#0000ff" fill-rule="evenodd" fill-opacity="1" stroke="#000000" stroke-opacity="1" stroke-width="3.2"/>
<circle clip-path="url(#clip831)" cx="1418.25" cy="717.464" r="14.4" fill="#0000ff" fill-rule="evenodd" fill-opacity="1" stroke="#000000" stroke-opacity="1" stroke-width="3.2"/>
<circle clip-path="url(#clip831)" cx="1175.32" cy="640.875" r="14.4" fill="#0000ff" fill-rule="evenodd" fill-opacity="1" stroke="#000000" stroke-opacity="1" stroke-width="3.2"/>
<circle clip-path="url(#clip831)" cx="1141.66" cy="775.577" r="14.4" fill="#0000ff" fill-rule="evenodd" fill-opacity="1" stroke="#000000" stroke-opacity="1" stroke-width="3.2"/>
<circle clip-path="url(#clip831)" cx="671.695" cy="979.636" r="14.4" fill="#0000ff" fill-rule="evenodd" fill-opacity="1" stroke="#000000" stroke-opacity="1" stroke-width="3.2"/>
<circle clip-path="url(#clip831)" cx="658.277" cy="1036.7" r="14.4" fill="#0000ff" fill-rule="evenodd" fill-opacity="1" stroke="#000000" stroke-opacity="1" stroke-width="3.2"/>
<circle clip-path="url(#clip831)" cx="1270.06" cy="925.757" r="14.4" fill="#0000ff" fill-rule="evenodd" fill-opacity="1" stroke="#000000" stroke-opacity="1" stroke-width="3.2"/>
<circle clip-path="url(#clip831)" cx="1347.58" cy="977.957" r="14.4" fill="#0000ff" fill-rule="evenodd" fill-opacity="1" stroke="#000000" stroke-opacity="1" stroke-width="3.2"/>
<path clip-path="url(#clip830)" d="M283.802 248.629 L698.34 248.629 L698.34 93.1086 L283.802 93.1086  Z" fill="#ffffff" fill-rule="evenodd" fill-opacity="1"/>
<polyline clip-path="url(#clip830)" style="stroke:#000000; stroke-linecap:round; stroke-linejoin:round; stroke-width:4; stroke-opacity:1; fill:none" points="283.802,248.629 698.34,248.629 698.34,93.1086 283.802,93.1086 283.802,248.629 "/>
<path clip-path="url(#clip830)" d="M356.171 122.193 L356.171 167.704 L401.682 167.704 L401.682 122.193 L356.171 122.193 Z" fill="#ff0000" fill-rule="evenodd" fill-opacity="1" stroke="#000000" stroke-opacity="1" stroke-width="4.55111"/>
<path clip-path="url(#clip830)" d="M478.333 158.34 L478.333 172.09 L474.051 172.09 L474.051 136.303 L478.333 136.303 L478.333 140.238 Q479.676 137.923 481.713 136.812 Q483.773 135.678 486.62 135.678 Q491.342 135.678 494.282 139.428 Q497.245 143.178 497.245 149.289 Q497.245 155.4 494.282 159.15 Q491.342 162.9 486.62 162.9 Q483.773 162.9 481.713 161.789 Q479.676 160.655 478.333 158.34 M492.824 149.289 Q492.824 144.59 490.879 141.928 Q488.958 139.243 485.578 139.243 Q482.199 139.243 480.254 141.928 Q478.333 144.59 478.333 149.289 Q478.333 153.988 480.254 156.673 Q482.199 159.335 485.578 159.335 Q488.958 159.335 490.879 156.673 Q492.824 153.988 492.824 149.289 Z" fill="#000000" fill-rule="nonzero" fill-opacity="1" /><path clip-path="url(#clip830)" d="M514.351 139.289 Q510.926 139.289 508.935 141.974 Q506.944 144.636 506.944 149.289 Q506.944 153.942 508.912 156.627 Q510.902 159.289 514.351 159.289 Q517.754 159.289 519.745 156.604 Q521.736 153.918 521.736 149.289 Q521.736 144.682 519.745 141.997 Q517.754 139.289 514.351 139.289 M514.351 135.678 Q519.907 135.678 523.078 139.289 Q526.25 142.9 526.25 149.289 Q526.25 155.655 523.078 159.289 Q519.907 162.9 514.351 162.9 Q508.773 162.9 505.602 159.289 Q502.453 155.655 502.453 149.289 Q502.453 142.9 505.602 139.289 Q508.773 135.678 514.351 135.678 Z" fill="#000000" fill-rule="nonzero" fill-opacity="1" /><path clip-path="url(#clip830)" d="M549.837 137.067 L549.837 141.094 Q548.032 140.169 546.087 139.706 Q544.143 139.243 542.06 139.243 Q538.888 139.243 537.291 140.215 Q535.717 141.187 535.717 143.131 Q535.717 144.613 536.851 145.469 Q537.986 146.303 541.412 147.067 L542.87 147.391 Q547.407 148.363 549.305 150.145 Q551.226 151.905 551.226 155.076 Q551.226 158.687 548.356 160.793 Q545.509 162.9 540.509 162.9 Q538.425 162.9 536.157 162.483 Q533.912 162.09 531.412 161.28 L531.412 156.881 Q533.773 158.108 536.064 158.733 Q538.356 159.335 540.601 159.335 Q543.611 159.335 545.231 158.317 Q546.851 157.275 546.851 155.4 Q546.851 153.664 545.671 152.738 Q544.513 151.812 540.555 150.956 L539.074 150.608 Q535.115 149.775 533.356 148.062 Q531.597 146.326 531.597 143.317 Q531.597 139.659 534.189 137.669 Q536.782 135.678 541.55 135.678 Q543.911 135.678 545.995 136.025 Q548.078 136.372 549.837 137.067 Z" fill="#000000" fill-rule="nonzero" fill-opacity="1" /><path clip-path="url(#clip830)" d="M558.009 136.303 L562.268 136.303 L562.268 162.229 L558.009 162.229 L558.009 136.303 M558.009 126.21 L562.268 126.21 L562.268 131.604 L558.009 131.604 L558.009 126.21 Z" fill="#000000" fill-rule="nonzero" fill-opacity="1" /><path clip-path="url(#clip830)" d="M575.393 128.942 L575.393 136.303 L584.166 136.303 L584.166 139.613 L575.393 139.613 L575.393 153.687 Q575.393 156.858 576.249 157.761 Q577.129 158.664 579.791 158.664 L584.166 158.664 L584.166 162.229 L579.791 162.229 Q574.86 162.229 572.985 160.4 Q571.11 158.548 571.11 153.687 L571.11 139.613 L567.985 139.613 L567.985 136.303 L571.11 136.303 L571.11 128.942 L575.393 128.942 Z" fill="#000000" fill-rule="nonzero" fill-opacity="1" /><path clip-path="url(#clip830)" d="M589.768 136.303 L594.027 136.303 L594.027 162.229 L589.768 162.229 L589.768 136.303 M589.768 126.21 L594.027 126.21 L594.027 131.604 L589.768 131.604 L589.768 126.21 Z" fill="#000000" fill-rule="nonzero" fill-opacity="1" /><path clip-path="url(#clip830)" d="M599.883 136.303 L604.397 136.303 L612.499 158.062 L620.601 136.303 L625.115 136.303 L615.393 162.229 L609.606 162.229 L599.883 136.303 Z" fill="#000000" fill-rule="nonzero" fill-opacity="1" /><path clip-path="url(#clip830)" d="M653.17 148.201 L653.17 150.284 L633.587 150.284 Q633.865 154.682 636.226 156.997 Q638.61 159.289 642.846 159.289 Q645.3 159.289 647.591 158.687 Q649.906 158.085 652.175 156.881 L652.175 160.909 Q649.883 161.881 647.476 162.391 Q645.068 162.9 642.592 162.9 Q636.388 162.9 632.754 159.289 Q629.143 155.678 629.143 149.52 Q629.143 143.155 632.568 139.428 Q636.017 135.678 641.851 135.678 Q647.082 135.678 650.115 139.057 Q653.17 142.414 653.17 148.201 M648.911 146.951 Q648.865 143.456 646.943 141.372 Q645.045 139.289 641.897 139.289 Q638.332 139.289 636.18 141.303 Q634.05 143.317 633.726 146.974 L648.911 146.951 Z" fill="#000000" fill-rule="nonzero" fill-opacity="1" /><circle clip-path="url(#clip830)" cx="378.926" cy="196.789" r="20.48" fill="#0000ff" fill-rule="evenodd" fill-opacity="1" stroke="#000000" stroke-opacity="1" stroke-width="4.55111"/>
<path clip-path="url(#clip830)" d="M495.764 198.421 L495.764 214.069 L491.504 214.069 L491.504 198.559 Q491.504 194.879 490.069 193.05 Q488.634 191.222 485.764 191.222 Q482.315 191.222 480.324 193.421 Q478.333 195.62 478.333 199.416 L478.333 214.069 L474.051 214.069 L474.051 188.143 L478.333 188.143 L478.333 192.171 Q479.861 189.833 481.921 188.675 Q484.004 187.518 486.713 187.518 Q491.18 187.518 493.472 190.296 Q495.764 193.05 495.764 198.421 Z" fill="#000000" fill-rule="nonzero" fill-opacity="1" /><path clip-path="url(#clip830)" d="M526.435 200.041 L526.435 202.124 L506.852 202.124 Q507.129 206.522 509.49 208.837 Q511.875 211.129 516.111 211.129 Q518.564 211.129 520.856 210.527 Q523.171 209.925 525.439 208.721 L525.439 212.749 Q523.148 213.721 520.74 214.231 Q518.333 214.74 515.856 214.74 Q509.652 214.74 506.018 211.129 Q502.407 207.518 502.407 201.36 Q502.407 194.995 505.833 191.268 Q509.282 187.518 515.115 187.518 Q520.347 187.518 523.379 190.897 Q526.435 194.254 526.435 200.041 M522.175 198.791 Q522.129 195.296 520.208 193.212 Q518.31 191.129 515.162 191.129 Q511.597 191.129 509.444 193.143 Q507.314 195.157 506.99 198.814 L522.175 198.791 Z" fill="#000000" fill-rule="nonzero" fill-opacity="1" /><path clip-path="url(#clip830)" d="M550.486 200.805 Q550.486 196.175 548.564 193.629 Q546.666 191.083 543.217 191.083 Q539.791 191.083 537.87 193.629 Q535.972 196.175 535.972 200.805 Q535.972 205.411 537.87 207.958 Q539.791 210.504 543.217 210.504 Q546.666 210.504 548.564 207.958 Q550.486 205.411 550.486 200.805 M554.745 210.851 Q554.745 217.471 551.805 220.689 Q548.865 223.93 542.8 223.93 Q540.555 223.93 538.564 223.582 Q536.574 223.258 534.699 222.564 L534.699 218.42 Q536.574 219.439 538.402 219.925 Q540.231 220.411 542.129 220.411 Q546.319 220.411 548.402 218.212 Q550.486 216.036 550.486 211.615 L550.486 209.508 Q549.166 211.8 547.106 212.934 Q545.046 214.069 542.175 214.069 Q537.407 214.069 534.49 210.434 Q531.574 206.8 531.574 200.805 Q531.574 194.786 534.49 191.152 Q537.407 187.518 542.175 187.518 Q545.046 187.518 547.106 188.652 Q549.166 189.786 550.486 192.078 L550.486 188.143 L554.745 188.143 L554.745 210.851 Z" fill="#000000" fill-rule="nonzero" fill-opacity="1" /><path clip-path="url(#clip830)" d="M575.3 201.036 Q570.138 201.036 568.147 202.217 Q566.157 203.397 566.157 206.245 Q566.157 208.513 567.638 209.856 Q569.143 211.175 571.712 211.175 Q575.254 211.175 577.384 208.675 Q579.536 206.152 579.536 201.985 L579.536 201.036 L575.3 201.036 M583.796 199.277 L583.796 214.069 L579.536 214.069 L579.536 210.133 Q578.078 212.495 575.902 213.629 Q573.726 214.74 570.578 214.74 Q566.597 214.74 564.235 212.518 Q561.898 210.272 561.898 206.522 Q561.898 202.147 564.814 199.925 Q567.754 197.703 573.564 197.703 L579.536 197.703 L579.536 197.286 Q579.536 194.347 577.592 192.749 Q575.671 191.129 572.175 191.129 Q569.953 191.129 567.847 191.661 Q565.74 192.194 563.796 193.259 L563.796 189.323 Q566.134 188.421 568.333 187.981 Q570.532 187.518 572.615 187.518 Q578.24 187.518 581.018 190.434 Q583.796 193.351 583.796 199.277 Z" fill="#000000" fill-rule="nonzero" fill-opacity="1" /><path clip-path="url(#clip830)" d="M596.782 180.782 L596.782 188.143 L605.555 188.143 L605.555 191.453 L596.782 191.453 L596.782 205.527 Q596.782 208.698 597.638 209.601 Q598.518 210.504 601.18 210.504 L605.555 210.504 L605.555 214.069 L601.18 214.069 Q596.249 214.069 594.374 212.24 Q592.499 210.388 592.499 205.527 L592.499 191.453 L589.374 191.453 L589.374 188.143 L592.499 188.143 L592.499 180.782 L596.782 180.782 Z" fill="#000000" fill-rule="nonzero" fill-opacity="1" /><path clip-path="url(#clip830)" d="M611.157 188.143 L615.416 188.143 L615.416 214.069 L611.157 214.069 L611.157 188.143 M611.157 178.05 L615.416 178.05 L615.416 183.444 L611.157 183.444 L611.157 178.05 Z" fill="#000000" fill-rule="nonzero" fill-opacity="1" /><path clip-path="url(#clip830)" d="M621.272 188.143 L625.786 188.143 L633.888 209.902 L641.99 188.143 L646.504 188.143 L636.781 214.069 L630.994 214.069 L621.272 188.143 Z" fill="#000000" fill-rule="nonzero" fill-opacity="1" /><path clip-path="url(#clip830)" d="M674.559 200.041 L674.559 202.124 L654.976 202.124 Q655.253 206.522 657.615 208.837 Q659.999 211.129 664.235 211.129 Q666.689 211.129 668.98 210.527 Q671.295 209.925 673.564 208.721 L673.564 212.749 Q671.272 213.721 668.865 214.231 Q666.457 214.74 663.98 214.74 Q657.777 214.74 654.142 211.129 Q650.531 207.518 650.531 201.36 Q650.531 194.995 653.957 191.268 Q657.406 187.518 663.24 187.518 Q668.471 187.518 671.503 190.897 Q674.559 194.254 674.559 200.041 M670.3 198.791 Q670.253 195.296 668.332 193.212 Q666.434 191.129 663.286 191.129 Q659.721 191.129 657.568 193.143 Q655.439 195.157 655.115 198.814 L670.3 198.791 Z" fill="#000000" fill-rule="nonzero" fill-opacity="1" /></svg>
