<?xml version="1.0" encoding="utf-8"?>
<svg xmlns="http://www.w3.org/2000/svg" xmlns:xlink="http://www.w3.org/1999/xlink" width="600" height="400" viewBox="0 0 2400 1600">
<defs>
  <clipPath id="clip830">
    <rect x="0" y="0" width="2400" height="1600"/>
  </clipPath>
</defs>
<path clip-path="url(#clip830)" d="M0 1600 L2400 1600 L2400 0 L0 0  Z" fill="#ffffff" fill-rule="evenodd" fill-opacity="1"/>
<defs>
  <clipPath id="clip831">
    <rect x="249" y="123" width="2104" height="1301"/>
  </clipPath>
</defs>
<path clip-path="url(#clip830)" d="M249.542 1423.18 L2352.76 1423.18 L2352.76 123.472 L249.542 123.472  Z" fill="#ffffff" fill-rule="evenodd" fill-opacity="1"/>
<polyline clip-path="url(#clip831)" style="stroke:#000000; stroke-linecap:round; stroke-linejoin:round; stroke-width:2; stroke-opacity:0.1; fill:none" points="704.825,1423.18 704.825,123.472 "/>
<polyline clip-path="url(#clip831)" style="stroke:#000000; stroke-linecap:round; stroke-linejoin:round; stroke-width:2; stroke-opacity:0.1; fill:none" points="1168.61,1423.18 1168.61,123.472 "/>
<polyline clip-path="url(#clip831)" style="stroke:#000000; stroke-linecap:round; stroke-linejoin:round; stroke-width:2; stroke-opacity:0.1; fill:none" points="1632.4,1423.18 1632.4,123.472 "/>
<polyline clip-path="url(#clip831)" style="stroke:#000000; stroke-linecap:round; stroke-linejoin:round; stroke-width:2; stroke-opacity:0.1; fill:none" points="2096.19,1423.18 2096.19,123.472 "/>
<polyline clip-path="url(#clip831)" style="stroke:#000000; stroke-linecap:round; stroke-linejoin:round; stroke-width:2; stroke-opacity:0.1; fill:none" points="249.542,1233.55 2352.76,1233.55 "/>
<polyline clip-path="url(#clip831)" style="stroke:#000000; stroke-linecap:round; stroke-linejoin:round; stroke-width:2; stroke-opacity:0.1; fill:none" points="249.542,956.303 2352.76,956.303 "/>
<polyline clip-path="url(#clip831)" style="stroke:#000000; stroke-linecap:round; stroke-linejoin:round; stroke-width:2; stroke-opacity:0.1; fill:none" points="249.542,679.058 2352.76,679.058 "/>
<polyline clip-path="url(#clip831)" style="stroke:#000000; stroke-linecap:round; stroke-linejoin:round; stroke-width:2; stroke-opacity:0.1; fill:none" points="249.542,401.812 2352.76,401.812 "/>
<polyline clip-path="url(#clip831)" style="stroke:#000000; stroke-linecap:round; stroke-linejoin:round; stroke-width:2; stroke-opacity:0.1; fill:none" points="249.542,124.567 2352.76,124.567 "/>
<polyline clip-path="url(#clip830)" style="stroke:#000000; stroke-linecap:round; stroke-linejoin:round; stroke-width:4; stroke-opacity:1; fill:none" points="249.542,1423.18 2352.76,1423.18 "/>
<polyline clip-path="url(#clip830)" style="stroke:#000000; stroke-linecap:round; stroke-linejoin:round; stroke-width:4; stroke-opacity:1; fill:none" points="704.825,1423.18 704.825,1404.28 "/>
<polyline clip-path="url(#clip830)" style="stroke:#000000; stroke-linecap:round; stroke-linejoin:round; stroke-width:4; stroke-opacity:1; fill:none" points="1168.61,1423.18 1168.61,1404.28 "/>
<polyline clip-path="url(#clip830)" style="stroke:#000000; stroke-linecap:round; stroke-linejoin:round; stroke-width:4; stroke-opacity:1; fill:none" points="1632.4,1423.18 1632.4,1404.28 "/>
<polyline clip-path="url(#clip830)" style="stroke:#000000; stroke-linecap:round; stroke-linejoin:round; stroke-width:4; stroke-opacity:1; fill:none" points="2096.19,1423.18 2096.19,1404.28 "/>
<path clip-path="url(#clip830)" d="M682.823 1454.1 Q679.212 1454.1 677.383 1457.66 Q675.578 1461.2 675.578 1468.33 Q675.578 1475.44 677.383 1479.01 Q679.212 1482.55 682.823 1482.55 Q686.457 1482.55 688.263 1479.01 Q690.092 1475.44 690.092 1468.33 Q690.092 1461.2 688.263 1457.66 Q686.457 1454.1 682.823 1454.1 M682.823 1450.39 Q688.633 1450.39 691.689 1455 Q694.768 1459.58 694.768 1468.33 Q694.768 1477.06 691.689 1481.67 Q688.633 1486.25 682.823 1486.25 Q677.013 1486.25 673.934 1481.67 Q670.879 1477.06 670.879 1468.33 Q670.879 1459.58 673.934 1455 Q677.013 1450.39 682.823 1450.39 Z" fill="#000000" fill-rule="nonzero" fill-opacity="1" /><path clip-path="url(#clip830)" d="M702.985 1479.7 L707.869 1479.7 L707.869 1485.58 L702.985 1485.58 L702.985 1479.7 Z" fill="#000000" fill-rule="nonzero" fill-opacity="1" /><path clip-path="url(#clip830)" d="M718.865 1481.64 L726.504 1481.64 L726.504 1455.28 L718.193 1456.95 L718.193 1452.69 L726.457 1451.02 L731.133 1451.02 L731.133 1481.64 L738.772 1481.64 L738.772 1485.58 L718.865 1485.58 L718.865 1481.64 Z" fill="#000000" fill-rule="nonzero" fill-opacity="1" /><path clip-path="url(#clip830)" d="M1146.8 1454.1 Q1143.19 1454.1 1141.36 1457.66 Q1139.55 1461.2 1139.55 1468.33 Q1139.55 1475.44 1141.36 1479.01 Q1143.19 1482.55 1146.8 1482.55 Q1150.43 1482.55 1152.24 1479.01 Q1154.07 1475.44 1154.07 1468.33 Q1154.07 1461.2 1152.24 1457.66 Q1150.43 1454.1 1146.8 1454.1 M1146.8 1450.39 Q1152.61 1450.39 1155.66 1455 Q1158.74 1459.58 1158.74 1468.33 Q1158.74 1477.06 1155.66 1481.67 Q1152.61 1486.25 1146.8 1486.25 Q1140.99 1486.25 1137.91 1481.67 Q1134.85 1477.06 1134.85 1468.33 Q1134.85 1459.58 1137.91 1455 Q1140.99 1450.39 1146.8 1450.39 Z" fill="#000000" fill-rule="nonzero" fill-opacity="1" /><path clip-path="url(#clip830)" d="M1166.96 1479.7 L1171.84 1479.7 L1171.84 1485.58 L1166.96 1485.58 L1166.96 1479.7 Z" fill="#000000" fill-rule="nonzero" fill-opacity="1" /><path clip-path="url(#clip830)" d="M1186.06 1481.64 L1202.38 1481.64 L1202.38 1485.58 L1180.43 1485.58 L1180.43 1481.64 Q1183.09 1478.89 1187.68 1474.26 Q1192.28 1469.61 1193.46 1468.27 Q1195.71 1465.74 1196.59 1464.01 Q1197.49 1462.25 1197.49 1460.56 Q1197.49 1457.8 1195.55 1456.07 Q1193.63 1454.33 1190.52 1454.33 Q1188.33 1454.33 1185.87 1455.09 Q1183.44 1455.86 1180.66 1457.41 L1180.66 1452.69 Q1183.49 1451.55 1185.94 1450.97 Q1188.39 1450.39 1190.43 1450.39 Q1195.8 1450.39 1199 1453.08 Q1202.19 1455.77 1202.19 1460.26 Q1202.19 1462.39 1201.38 1464.31 Q1200.59 1466.2 1198.49 1468.8 Q1197.91 1469.47 1194.81 1472.69 Q1191.71 1475.88 1186.06 1481.64 Z" fill="#000000" fill-rule="nonzero" fill-opacity="1" /><path clip-path="url(#clip830)" d="M1610.11 1454.1 Q1606.5 1454.1 1604.67 1457.66 Q1602.87 1461.2 1602.87 1468.33 Q1602.87 1475.44 1604.67 1479.01 Q1606.5 1482.55 1610.11 1482.55 Q1613.75 1482.55 1615.55 1479.01 Q1617.38 1475.44 1617.38 1468.33 Q1617.38 1461.2 1615.55 1457.66 Q1613.75 1454.1 1610.11 1454.1 M1610.11 1450.39 Q1615.92 1450.39 1618.98 1455 Q1622.06 1459.58 1622.06 1468.33 Q1622.06 1477.06 1618.98 1481.67 Q1615.92 1486.25 1610.11 1486.25 Q1604.3 1486.25 1601.22 1481.67 Q1598.17 1477.06 1598.17 1468.33 Q1598.17 1459.58 1601.22 1455 Q1604.3 1450.39 1610.11 1450.39 Z" fill="#000000" fill-rule="nonzero" fill-opacity="1" /><path clip-path="url(#clip830)" d="M1630.27 1479.7 L1635.16 1479.7 L1635.16 1485.58 L1630.27 1485.58 L1630.27 1479.7 Z" fill="#000000" fill-rule="nonzero" fill-opacity="1" /><path clip-path="url(#clip830)" d="M1659.51 1466.95 Q1662.87 1467.66 1664.74 1469.93 Q1666.64 1472.2 1666.64 1475.53 Q1666.64 1480.65 1663.12 1483.45 Q1659.6 1486.25 1653.12 1486.25 Q1650.95 1486.25 1648.63 1485.81 Q1646.34 1485.39 1643.89 1484.54 L1643.89 1480.02 Q1645.83 1481.16 1648.15 1481.74 Q1650.46 1482.32 1652.98 1482.32 Q1657.38 1482.32 1659.67 1480.58 Q1661.99 1478.84 1661.99 1475.53 Q1661.99 1472.48 1659.83 1470.77 Q1657.71 1469.03 1653.89 1469.03 L1649.86 1469.03 L1649.86 1465.19 L1654.07 1465.19 Q1657.52 1465.19 1659.35 1463.82 Q1661.18 1462.43 1661.18 1459.84 Q1661.18 1457.18 1659.28 1455.77 Q1657.4 1454.33 1653.89 1454.33 Q1651.96 1454.33 1649.77 1454.75 Q1647.57 1455.16 1644.93 1456.04 L1644.93 1451.88 Q1647.59 1451.14 1649.9 1450.77 Q1652.24 1450.39 1654.3 1450.39 Q1659.63 1450.39 1662.73 1452.83 Q1665.83 1455.23 1665.83 1459.35 Q1665.83 1462.22 1664.19 1464.21 Q1662.54 1466.18 1659.51 1466.95 Z" fill="#000000" fill-rule="nonzero" fill-opacity="1" /><path clip-path="url(#clip830)" d="M2073.34 1454.1 Q2069.72 1454.1 2067.9 1457.66 Q2066.09 1461.2 2066.09 1468.33 Q2066.09 1475.44 2067.9 1479.01 Q2069.72 1482.55 2073.34 1482.55 Q2076.97 1482.55 2078.77 1479.01 Q2080.6 1475.44 2080.6 1468.33 Q2080.6 1461.2 2078.77 1457.66 Q2076.97 1454.1 2073.34 1454.1 M2073.34 1450.39 Q2079.15 1450.39 2082.2 1455 Q2085.28 1459.58 2085.28 1468.33 Q2085.28 1477.06 2082.2 1481.67 Q2079.15 1486.25 2073.34 1486.25 Q2067.52 1486.25 2064.45 1481.67 Q2061.39 1477.06 2061.39 1468.33 Q2061.39 1459.58 2064.45 1455 Q2067.52 1450.39 2073.34 1450.39 Z" fill="#000000" fill-rule="nonzero" fill-opacity="1" /><path clip-path="url(#clip830)" d="M2093.5 1479.7 L2098.38 1479.7 L2098.38 1485.58 L2093.5 1485.58 L2093.5 1479.7 Z" fill="#000000" fill-rule="nonzero" fill-opacity="1" /><path clip-path="url(#clip830)" d="M2121.41 1455.09 L2109.61 1473.54 L2121.41 1473.54 L2121.41 1455.09 M2120.19 1451.02 L2126.07 1451.02 L2126.07 1473.54 L2131 1473.54 L2131 1477.43 L2126.07 1477.43 L2126.07 1485.58 L2121.41 1485.58 L2121.41 1477.43 L2105.81 1477.43 L2105.81 1472.92 L2120.19 1451.02 Z" fill="#000000" fill-rule="nonzero" fill-opacity="1" /><path clip-path="url(#clip830)" d="M932.463 1522.08 L932.463 1528.35 Q928.803 1526.6 925.556 1525.74 Q922.31 1524.88 919.286 1524.88 Q914.034 1524.88 911.17 1526.92 Q908.337 1528.96 908.337 1532.71 Q908.337 1535.87 910.215 1537.49 Q912.125 1539.08 917.408 1540.07 L921.291 1540.86 Q928.485 1542.23 931.89 1545.7 Q935.328 1549.14 935.328 1554.93 Q935.328 1561.84 930.681 1565.4 Q926.066 1568.97 917.122 1568.97 Q913.748 1568.97 909.929 1568.2 Q906.141 1567.44 902.067 1565.94 L902.067 1559.32 Q905.982 1561.52 909.738 1562.63 Q913.493 1563.75 917.122 1563.75 Q922.628 1563.75 925.62 1561.58 Q928.612 1559.42 928.612 1555.41 Q928.612 1551.91 926.448 1549.93 Q924.315 1547.96 919.413 1546.97 L915.499 1546.21 Q908.305 1544.78 905.091 1541.72 Q901.876 1538.67 901.876 1533.22 Q901.876 1526.92 906.3 1523.29 Q910.756 1519.66 918.554 1519.66 Q921.896 1519.66 925.365 1520.27 Q928.835 1520.87 932.463 1522.08 Z" fill="#000000" fill-rule="nonzero" fill-opacity="1" /><path clip-path="url(#clip830)" d="M950.892 1522.27 L950.892 1532.4 L962.955 1532.4 L962.955 1536.95 L950.892 1536.95 L950.892 1556.3 Q950.892 1560.66 952.07 1561.9 Q953.279 1563.14 956.939 1563.14 L962.955 1563.14 L962.955 1568.04 L956.939 1568.04 Q950.16 1568.04 947.582 1565.53 Q945.004 1562.98 945.004 1556.3 L945.004 1536.95 L940.707 1536.95 L940.707 1532.4 L945.004 1532.4 L945.004 1522.27 L950.892 1522.27 Z" fill="#000000" fill-rule="nonzero" fill-opacity="1" /><path clip-path="url(#clip830)" d="M986.858 1550.12 Q979.76 1550.12 977.023 1551.75 Q974.286 1553.37 974.286 1557.29 Q974.286 1560.4 976.323 1562.25 Q978.392 1564.07 981.925 1564.07 Q986.794 1564.07 989.723 1560.63 Q992.683 1557.16 992.683 1551.43 L992.683 1550.12 L986.858 1550.12 M998.539 1547.71 L998.539 1568.04 L992.683 1568.04 L992.683 1562.63 Q990.678 1565.88 987.686 1567.44 Q984.694 1568.97 980.365 1568.97 Q974.891 1568.97 971.644 1565.91 Q968.429 1562.82 968.429 1557.67 Q968.429 1551.65 972.44 1548.6 Q976.482 1545.54 984.471 1545.54 L992.683 1545.54 L992.683 1544.97 Q992.683 1540.93 990.009 1538.73 Q987.367 1536.5 982.561 1536.5 Q979.506 1536.5 976.609 1537.23 Q973.713 1537.97 971.039 1539.43 L971.039 1534.02 Q974.254 1532.78 977.278 1532.17 Q980.301 1531.54 983.166 1531.54 Q990.9 1531.54 994.72 1535.55 Q998.539 1539.56 998.539 1547.71 Z" fill="#000000" fill-rule="nonzero" fill-opacity="1" /><path clip-path="url(#clip830)" d="M1040.23 1546.53 L1040.23 1568.04 L1034.38 1568.04 L1034.38 1546.72 Q1034.38 1541.66 1032.4 1539.14 Q1030.43 1536.63 1026.48 1536.63 Q1021.74 1536.63 1019 1539.65 Q1016.27 1542.68 1016.27 1547.9 L1016.27 1568.04 L1010.38 1568.04 L1010.38 1532.4 L1016.27 1532.4 L1016.27 1537.93 Q1018.37 1534.72 1021.2 1533.13 Q1024.07 1531.54 1027.79 1531.54 Q1033.93 1531.54 1037.08 1535.36 Q1040.23 1539.14 1040.23 1546.53 Z" fill="#000000" fill-rule="nonzero" fill-opacity="1" /><path clip-path="url(#clip830)" d="M1075.37 1537.81 L1075.37 1518.52 L1081.23 1518.52 L1081.23 1568.04 L1075.37 1568.04 L1075.37 1562.7 Q1073.53 1565.88 1070.69 1567.44 Q1067.89 1568.97 1063.95 1568.97 Q1057.49 1568.97 1053.41 1563.81 Q1049.37 1558.65 1049.37 1550.25 Q1049.37 1541.85 1053.41 1536.69 Q1057.49 1531.54 1063.95 1531.54 Q1067.89 1531.54 1070.69 1533.1 Q1073.53 1534.62 1075.37 1537.81 M1055.42 1550.25 Q1055.42 1556.71 1058.06 1560.4 Q1060.73 1564.07 1065.38 1564.07 Q1070.03 1564.07 1072.7 1560.4 Q1075.37 1556.71 1075.37 1550.25 Q1075.37 1543.79 1072.7 1540.13 Q1070.03 1536.44 1065.38 1536.44 Q1060.73 1536.44 1058.06 1540.13 Q1055.42 1543.79 1055.42 1550.25 Z" fill="#000000" fill-rule="nonzero" fill-opacity="1" /><path clip-path="url(#clip830)" d="M1109.49 1550.12 Q1102.4 1550.12 1099.66 1551.75 Q1096.92 1553.37 1096.92 1557.29 Q1096.92 1560.4 1098.96 1562.25 Q1101.03 1564.07 1104.56 1564.07 Q1109.43 1564.07 1112.36 1560.63 Q1115.32 1557.16 1115.32 1551.43 L1115.32 1550.12 L1109.49 1550.12 M1121.17 1547.71 L1121.17 1568.04 L1115.32 1568.04 L1115.32 1562.63 Q1113.31 1565.88 1110.32 1567.44 Q1107.33 1568.97 1103 1568.97 Q1097.53 1568.97 1094.28 1565.91 Q1091.06 1562.82 1091.06 1557.67 Q1091.06 1551.65 1095.08 1548.6 Q1099.12 1545.54 1107.11 1545.54 L1115.32 1545.54 L1115.32 1544.97 Q1115.32 1540.93 1112.64 1538.73 Q1110 1536.5 1105.2 1536.5 Q1102.14 1536.5 1099.24 1537.23 Q1096.35 1537.97 1093.67 1539.43 L1093.67 1534.02 Q1096.89 1532.78 1099.91 1532.17 Q1102.94 1531.54 1105.8 1531.54 Q1113.54 1531.54 1117.36 1535.55 Q1121.17 1539.56 1121.17 1547.71 Z" fill="#000000" fill-rule="nonzero" fill-opacity="1" /><path clip-path="url(#clip830)" d="M1153.89 1537.87 Q1152.91 1537.3 1151.73 1537.04 Q1150.58 1536.76 1149.18 1536.76 Q1144.22 1536.76 1141.54 1540 Q1138.9 1543.22 1138.9 1549.27 L1138.9 1568.04 L1133.01 1568.04 L1133.01 1532.4 L1138.9 1532.4 L1138.9 1537.93 Q1140.75 1534.69 1143.71 1533.13 Q1146.67 1531.54 1150.9 1531.54 Q1151.51 1531.54 1152.24 1531.63 Q1152.97 1531.7 1153.86 1531.85 L1153.89 1537.87 Z" fill="#000000" fill-rule="nonzero" fill-opacity="1" /><path clip-path="url(#clip830)" d="M1182.35 1537.81 L1182.35 1518.52 L1188.21 1518.52 L1188.21 1568.04 L1182.35 1568.04 L1182.35 1562.7 Q1180.5 1565.88 1177.67 1567.44 Q1174.87 1568.97 1170.92 1568.97 Q1164.46 1568.97 1160.39 1563.81 Q1156.35 1558.65 1156.35 1550.25 Q1156.35 1541.85 1160.39 1536.69 Q1164.46 1531.54 1170.92 1531.54 Q1174.87 1531.54 1177.67 1533.1 Q1180.5 1534.62 1182.35 1537.81 M1162.39 1550.25 Q1162.39 1556.71 1165.03 1560.4 Q1167.71 1564.07 1172.35 1564.07 Q1177 1564.07 1179.68 1560.4 Q1182.35 1556.71 1182.35 1550.25 Q1182.35 1543.79 1179.68 1540.13 Q1177 1536.44 1172.35 1536.44 Q1167.71 1536.44 1165.03 1540.13 Q1162.39 1543.79 1162.39 1550.25 Z" fill="#000000" fill-rule="nonzero" fill-opacity="1" /><path clip-path="url(#clip830)" d="M1244.45 1537.81 L1244.45 1518.52 L1250.3 1518.52 L1250.3 1568.04 L1244.45 1568.04 L1244.45 1562.7 Q1242.6 1565.88 1239.77 1567.44 Q1236.97 1568.97 1233.02 1568.97 Q1226.56 1568.97 1222.48 1563.81 Q1218.44 1558.65 1218.44 1550.25 Q1218.44 1541.85 1222.48 1536.69 Q1226.56 1531.54 1233.02 1531.54 Q1236.97 1531.54 1239.77 1533.1 Q1242.6 1534.62 1244.45 1537.81 M1224.49 1550.25 Q1224.49 1556.71 1227.13 1560.4 Q1229.81 1564.07 1234.45 1564.07 Q1239.1 1564.07 1241.77 1560.4 Q1244.45 1556.71 1244.45 1550.25 Q1244.45 1543.79 1241.77 1540.13 Q1239.1 1536.44 1234.45 1536.44 Q1229.81 1536.44 1227.13 1540.13 Q1224.49 1543.79 1224.49 1550.25 Z" fill="#000000" fill-rule="nonzero" fill-opacity="1" /><path clip-path="url(#clip830)" d="M1292.86 1548.76 L1292.86 1551.62 L1265.93 1551.62 Q1266.31 1557.67 1269.56 1560.85 Q1272.84 1564 1278.66 1564 Q1282.04 1564 1285.19 1563.17 Q1288.37 1562.35 1291.49 1560.69 L1291.49 1566.23 Q1288.34 1567.57 1285.03 1568.27 Q1281.72 1568.97 1278.31 1568.97 Q1269.78 1568.97 1264.78 1564 Q1259.82 1559.04 1259.82 1550.57 Q1259.82 1541.82 1264.53 1536.69 Q1269.27 1531.54 1277.29 1531.54 Q1284.49 1531.54 1288.66 1536.18 Q1292.86 1540.8 1292.86 1548.76 M1287 1547.04 Q1286.94 1542.23 1284.3 1539.37 Q1281.69 1536.5 1277.36 1536.5 Q1272.46 1536.5 1269.5 1539.27 Q1266.57 1542.04 1266.12 1547.07 L1287 1547.04 Z" fill="#000000" fill-rule="nonzero" fill-opacity="1" /><path clip-path="url(#clip830)" d="M1298.27 1532.4 L1304.48 1532.4 L1315.62 1562.31 L1326.76 1532.4 L1332.96 1532.4 L1319.59 1568.04 L1311.64 1568.04 L1298.27 1532.4 Z" fill="#000000" fill-rule="nonzero" fill-opacity="1" /><path clip-path="url(#clip830)" d="M1341.05 1532.4 L1346.9 1532.4 L1346.9 1568.04 L1341.05 1568.04 L1341.05 1532.4 M1341.05 1518.52 L1346.9 1518.52 L1346.9 1525.93 L1341.05 1525.93 L1341.05 1518.52 Z" fill="#000000" fill-rule="nonzero" fill-opacity="1" /><path clip-path="url(#clip830)" d="M1375.36 1550.12 Q1368.26 1550.12 1365.52 1551.75 Q1362.78 1553.37 1362.78 1557.29 Q1362.78 1560.4 1364.82 1562.25 Q1366.89 1564.07 1370.42 1564.07 Q1375.29 1564.07 1378.22 1560.63 Q1381.18 1557.16 1381.18 1551.43 L1381.18 1550.12 L1375.36 1550.12 M1387.04 1547.71 L1387.04 1568.04 L1381.18 1568.04 L1381.18 1562.63 Q1379.18 1565.88 1376.18 1567.44 Q1373.19 1568.97 1368.86 1568.97 Q1363.39 1568.97 1360.14 1565.91 Q1356.93 1562.82 1356.93 1557.67 Q1356.93 1551.65 1360.94 1548.6 Q1364.98 1545.54 1372.97 1545.54 L1381.18 1545.54 L1381.18 1544.97 Q1381.18 1540.93 1378.51 1538.73 Q1375.87 1536.5 1371.06 1536.5 Q1368 1536.5 1365.11 1537.23 Q1362.21 1537.97 1359.54 1539.43 L1359.54 1534.02 Q1362.75 1532.78 1365.78 1532.17 Q1368.8 1531.54 1371.67 1531.54 Q1379.4 1531.54 1383.22 1535.55 Q1387.04 1539.56 1387.04 1547.71 Z" fill="#000000" fill-rule="nonzero" fill-opacity="1" /><path clip-path="url(#clip830)" d="M1404.89 1522.27 L1404.89 1532.4 L1416.96 1532.4 L1416.96 1536.95 L1404.89 1536.95 L1404.89 1556.3 Q1404.89 1560.66 1406.07 1561.9 Q1407.28 1563.14 1410.94 1563.14 L1416.96 1563.14 L1416.96 1568.04 L1410.94 1568.04 Q1404.16 1568.04 1401.58 1565.53 Q1399.01 1562.98 1399.01 1556.3 L1399.01 1536.95 L1394.71 1536.95 L1394.71 1532.4 L1399.01 1532.4 L1399.01 1522.27 L1404.89 1522.27 Z" fill="#000000" fill-rule="nonzero" fill-opacity="1" /><path clip-path="url(#clip830)" d="M1424.66 1532.4 L1430.52 1532.4 L1430.52 1568.04 L1424.66 1568.04 L1424.66 1532.4 M1424.66 1518.52 L1430.52 1518.52 L1430.52 1525.93 L1424.66 1525.93 L1424.66 1518.52 Z" fill="#000000" fill-rule="nonzero" fill-opacity="1" /><path clip-path="url(#clip830)" d="M1456.58 1536.5 Q1451.87 1536.5 1449.14 1540.19 Q1446.4 1543.85 1446.4 1550.25 Q1446.4 1556.65 1449.1 1560.34 Q1451.84 1564 1456.58 1564 Q1461.26 1564 1464 1560.31 Q1466.74 1556.62 1466.74 1550.25 Q1466.74 1543.92 1464 1540.23 Q1461.26 1536.5 1456.58 1536.5 M1456.58 1531.54 Q1464.22 1531.54 1468.58 1536.5 Q1472.94 1541.47 1472.94 1550.25 Q1472.94 1559 1468.58 1564 Q1464.22 1568.97 1456.58 1568.97 Q1448.91 1568.97 1444.55 1564 Q1440.22 1559 1440.22 1550.25 Q1440.22 1541.47 1444.55 1536.5 Q1448.91 1531.54 1456.58 1531.54 Z" fill="#000000" fill-rule="nonzero" fill-opacity="1" /><path clip-path="url(#clip830)" d="M1512.28 1546.53 L1512.28 1568.04 L1506.43 1568.04 L1506.43 1546.72 Q1506.43 1541.66 1504.45 1539.14 Q1502.48 1536.63 1498.53 1536.63 Q1493.79 1536.63 1491.05 1539.65 Q1488.32 1542.68 1488.32 1547.9 L1488.32 1568.04 L1482.43 1568.04 L1482.43 1532.4 L1488.32 1532.4 L1488.32 1537.93 Q1490.42 1534.72 1493.25 1533.13 Q1496.11 1531.54 1499.84 1531.54 Q1505.98 1531.54 1509.13 1535.36 Q1512.28 1539.14 1512.28 1546.53 Z" fill="#000000" fill-rule="nonzero" fill-opacity="1" /><path clip-path="url(#clip830)" d="M1558.75 1518.58 Q1554.49 1525.9 1552.42 1533.06 Q1550.35 1540.23 1550.35 1547.58 Q1550.35 1554.93 1552.42 1562.16 Q1554.52 1569.35 1558.75 1576.64 L1553.66 1576.64 Q1548.89 1569.16 1546.5 1561.93 Q1544.14 1554.71 1544.14 1547.58 Q1544.14 1540.48 1546.5 1533.29 Q1548.85 1526.09 1553.66 1518.58 L1558.75 1518.58 Z" fill="#000000" fill-rule="nonzero" fill-opacity="1" /><path clip-path="url(#clip830)" d="M1590.77 1537.87 Q1589.79 1537.3 1588.61 1537.04 Q1587.46 1536.76 1586.06 1536.76 Q1581.1 1536.76 1578.42 1540 Q1575.78 1543.22 1575.78 1549.27 L1575.78 1568.04 L1569.89 1568.04 L1569.89 1532.4 L1575.78 1532.4 L1575.78 1537.93 Q1577.63 1534.69 1580.59 1533.13 Q1583.55 1531.54 1587.78 1531.54 Q1588.39 1531.54 1589.12 1531.63 Q1589.85 1531.7 1590.74 1531.85 L1590.77 1537.87 Z" fill="#000000" fill-rule="nonzero" fill-opacity="1" /><path clip-path="url(#clip830)" d="M1596.92 1532.4 L1602.77 1532.4 L1602.77 1568.04 L1596.92 1568.04 L1596.92 1532.4 M1596.92 1518.52 L1602.77 1518.52 L1602.77 1525.93 L1596.92 1525.93 L1596.92 1518.52 Z" fill="#000000" fill-rule="nonzero" fill-opacity="1" /><path clip-path="url(#clip830)" d="M1637.75 1533.45 L1637.75 1538.98 Q1635.27 1537.71 1632.6 1537.07 Q1629.92 1536.44 1627.06 1536.44 Q1622.7 1536.44 1620.5 1537.77 Q1618.34 1539.11 1618.34 1541.79 Q1618.34 1543.82 1619.9 1545 Q1621.46 1546.15 1626.17 1547.2 L1628.17 1547.64 Q1634.41 1548.98 1637.02 1551.43 Q1639.66 1553.85 1639.66 1558.21 Q1639.66 1563.17 1635.71 1566.07 Q1631.8 1568.97 1624.92 1568.97 Q1622.06 1568.97 1618.94 1568.39 Q1615.85 1567.85 1612.42 1566.74 L1612.42 1560.69 Q1615.66 1562.38 1618.81 1563.24 Q1621.96 1564.07 1625.05 1564.07 Q1629.19 1564.07 1631.42 1562.66 Q1633.65 1561.23 1633.65 1558.65 Q1633.65 1556.27 1632.02 1554.99 Q1630.43 1553.72 1624.99 1552.54 L1622.95 1552.07 Q1617.51 1550.92 1615.09 1548.56 Q1612.67 1546.18 1612.67 1542.04 Q1612.67 1537.01 1616.24 1534.27 Q1619.8 1531.54 1626.36 1531.54 Q1629.6 1531.54 1632.47 1532.01 Q1635.33 1532.49 1637.75 1533.45 Z" fill="#000000" fill-rule="nonzero" fill-opacity="1" /><path clip-path="url(#clip830)" d="M1648.76 1518.52 L1654.65 1518.52 L1654.65 1547.77 L1672.13 1532.4 L1679.61 1532.4 L1660.7 1549.07 L1680.4 1568.04 L1672.76 1568.04 L1654.65 1550.63 L1654.65 1568.04 L1648.76 1568.04 L1648.76 1518.52 Z" fill="#000000" fill-rule="nonzero" fill-opacity="1" /><path clip-path="url(#clip830)" d="M1685.81 1518.58 L1690.91 1518.58 Q1695.68 1526.09 1698.03 1533.29 Q1700.42 1540.48 1700.42 1547.58 Q1700.42 1554.71 1698.03 1561.93 Q1695.68 1569.16 1690.91 1576.64 L1685.81 1576.64 Q1690.05 1569.35 1692.11 1562.16 Q1694.22 1554.93 1694.22 1547.58 Q1694.22 1540.23 1692.11 1533.06 Q1690.05 1525.9 1685.81 1518.58 Z" fill="#000000" fill-rule="nonzero" fill-opacity="1" /><polyline clip-path="url(#clip830)" style="stroke:#000000; stroke-linecap:round; stroke-linejoin:round; stroke-width:4; stroke-opacity:1; fill:none" points="249.542,1423.18 249.542,123.472 "/>
<polyline clip-path="url(#clip830)" style="stroke:#000000; stroke-linecap:round; stroke-linejoin:round; stroke-width:4; stroke-opacity:1; fill:none" points="249.542,1233.55 268.44,1233.55 "/>
<polyline clip-path="url(#clip830)" style="stroke:#000000; stroke-linecap:round; stroke-linejoin:round; stroke-width:4; stroke-opacity:1; fill:none" points="249.542,956.303 268.44,956.303 "/>
<polyline clip-path="url(#clip830)" style="stroke:#000000; stroke-linecap:round; stroke-linejoin:round; stroke-width:4; stroke-opacity:1; fill:none" points="249.542,679.058 268.44,679.058 "/>
<polyline clip-path="url(#clip830)" style="stroke:#000000; stroke-linecap:round; stroke-linejoin:round; stroke-width:4; stroke-opacity:1; fill:none" points="249.542,401.812 268.44,401.812 "/>
<polyline clip-path="url(#clip830)" style="stroke:#000000; stroke-linecap:round; stroke-linejoin:round; stroke-width:4; stroke-opacity:1; fill:none" points="249.542,124.567 268.44,124.567 "/>
<path clip-path="url(#clip830)" d="M126.297 1219.35 Q122.686 1219.35 120.857 1222.91 Q119.052 1226.45 119.052 1233.58 Q119.052 1240.69 120.857 1244.25 Q122.686 1247.8 126.297 1247.8 Q129.931 1247.8 131.737 1244.25 Q133.566 1240.69 133.566 1233.58 Q133.566 1226.45 131.737 1222.91 Q129.931 1219.35 126.297 1219.35 M126.297 1215.64 Q132.107 1215.64 135.163 1220.25 Q138.242 1224.83 138.242 1233.58 Q138.242 1242.31 135.163 1246.92 Q132.107 1251.5 126.297 1251.5 Q120.487 1251.5 117.408 1246.92 Q114.353 1242.31 114.353 1233.58 Q114.353 1224.83 117.408 1220.25 Q120.487 1215.64 126.297 1215.64 Z" fill="#000000" fill-rule="nonzero" fill-opacity="1" /><path clip-path="url(#clip830)" d="M146.459 1244.95 L151.343 1244.95 L151.343 1250.83 L146.459 1250.83 L146.459 1244.95 Z" fill="#000000" fill-rule="nonzero" fill-opacity="1" /><path clip-path="url(#clip830)" d="M171.528 1219.35 Q167.917 1219.35 166.089 1222.91 Q164.283 1226.45 164.283 1233.58 Q164.283 1240.69 166.089 1244.25 Q167.917 1247.8 171.528 1247.8 Q175.163 1247.8 176.968 1244.25 Q178.797 1240.69 178.797 1233.58 Q178.797 1226.45 176.968 1222.91 Q175.163 1219.35 171.528 1219.35 M171.528 1215.64 Q177.339 1215.64 180.394 1220.25 Q183.473 1224.83 183.473 1233.58 Q183.473 1242.31 180.394 1246.92 Q177.339 1251.5 171.528 1251.5 Q165.718 1251.5 162.64 1246.92 Q159.584 1242.31 159.584 1233.58 Q159.584 1224.83 162.64 1220.25 Q165.718 1215.64 171.528 1215.64 Z" fill="#000000" fill-rule="nonzero" fill-opacity="1" /><path clip-path="url(#clip830)" d="M201.69 1234.42 Q198.357 1234.42 196.436 1236.2 Q194.538 1237.98 194.538 1241.11 Q194.538 1244.23 196.436 1246.01 Q198.357 1247.8 201.69 1247.8 Q205.024 1247.8 206.945 1246.01 Q208.866 1244.21 208.866 1241.11 Q208.866 1237.98 206.945 1236.2 Q205.047 1234.42 201.69 1234.42 M197.014 1232.43 Q194.005 1231.69 192.315 1229.63 Q190.649 1227.57 190.649 1224.6 Q190.649 1220.46 193.588 1218.05 Q196.551 1215.64 201.69 1215.64 Q206.852 1215.64 209.792 1218.05 Q212.732 1220.46 212.732 1224.6 Q212.732 1227.57 211.042 1229.63 Q209.375 1231.69 206.389 1232.43 Q209.769 1233.21 211.644 1235.5 Q213.542 1237.8 213.542 1241.11 Q213.542 1246.13 210.463 1248.82 Q207.408 1251.5 201.69 1251.5 Q195.973 1251.5 192.894 1248.82 Q189.838 1246.13 189.838 1241.11 Q189.838 1237.8 191.737 1235.5 Q193.635 1233.21 197.014 1232.43 M195.301 1225.04 Q195.301 1227.73 196.968 1229.23 Q198.658 1230.74 201.69 1230.74 Q204.699 1230.74 206.389 1229.23 Q208.102 1227.73 208.102 1225.04 Q208.102 1222.36 206.389 1220.85 Q204.699 1219.35 201.69 1219.35 Q198.658 1219.35 196.968 1220.85 Q195.301 1222.36 195.301 1225.04 Z" fill="#000000" fill-rule="nonzero" fill-opacity="1" /><path clip-path="url(#clip830)" d="M126.39 942.102 Q122.779 942.102 120.95 945.667 Q119.144 949.209 119.144 956.338 Q119.144 963.445 120.95 967.009 Q122.779 970.551 126.39 970.551 Q130.024 970.551 131.83 967.009 Q133.658 963.445 133.658 956.338 Q133.658 949.209 131.83 945.667 Q130.024 942.102 126.39 942.102 M126.39 938.398 Q132.2 938.398 135.255 943.005 Q138.334 947.588 138.334 956.338 Q138.334 965.065 135.255 969.671 Q132.2 974.255 126.39 974.255 Q120.58 974.255 117.501 969.671 Q114.445 965.065 114.445 956.338 Q114.445 947.588 117.501 943.005 Q120.58 938.398 126.39 938.398 Z" fill="#000000" fill-rule="nonzero" fill-opacity="1" /><path clip-path="url(#clip830)" d="M146.552 967.704 L151.436 967.704 L151.436 973.583 L146.552 973.583 L146.552 967.704 Z" fill="#000000" fill-rule="nonzero" fill-opacity="1" /><path clip-path="url(#clip830)" d="M171.621 942.102 Q168.01 942.102 166.181 945.667 Q164.376 949.209 164.376 956.338 Q164.376 963.445 166.181 967.009 Q168.01 970.551 171.621 970.551 Q175.255 970.551 177.061 967.009 Q178.889 963.445 178.889 956.338 Q178.889 949.209 177.061 945.667 Q175.255 942.102 171.621 942.102 M171.621 938.398 Q177.431 938.398 180.487 943.005 Q183.565 947.588 183.565 956.338 Q183.565 965.065 180.487 969.671 Q177.431 974.255 171.621 974.255 Q165.811 974.255 162.732 969.671 Q159.677 965.065 159.677 956.338 Q159.677 947.588 162.732 943.005 Q165.811 938.398 171.621 938.398 Z" fill="#000000" fill-rule="nonzero" fill-opacity="1" /><path clip-path="url(#clip830)" d="M191.922 972.866 L191.922 968.607 Q193.681 969.44 195.487 969.88 Q197.292 970.32 199.028 970.32 Q203.658 970.32 206.088 967.218 Q208.542 964.093 208.889 957.75 Q207.547 959.741 205.487 960.806 Q203.426 961.871 200.926 961.871 Q195.741 961.871 192.709 958.746 Q189.7 955.597 189.7 950.158 Q189.7 944.834 192.848 941.616 Q195.996 938.398 201.227 938.398 Q207.223 938.398 210.371 943.005 Q213.542 947.588 213.542 956.338 Q213.542 964.509 209.653 969.394 Q205.787 974.255 199.237 974.255 Q197.477 974.255 195.672 973.908 Q193.866 973.56 191.922 972.866 M201.227 958.213 Q204.375 958.213 206.204 956.06 Q208.056 953.908 208.056 950.158 Q208.056 946.431 206.204 944.278 Q204.375 942.102 201.227 942.102 Q198.079 942.102 196.227 944.278 Q194.399 946.431 194.399 950.158 Q194.399 953.908 196.227 956.06 Q198.079 958.213 201.227 958.213 Z" fill="#000000" fill-rule="nonzero" fill-opacity="1" /><path clip-path="url(#clip830)" d="M126.205 664.857 Q122.593 664.857 120.765 668.421 Q118.959 671.963 118.959 679.093 Q118.959 686.199 120.765 689.764 Q122.593 693.306 126.205 693.306 Q129.839 693.306 131.644 689.764 Q133.473 686.199 133.473 679.093 Q133.473 671.963 131.644 668.421 Q129.839 664.857 126.205 664.857 M126.205 661.153 Q132.015 661.153 135.07 665.759 Q138.149 670.343 138.149 679.093 Q138.149 687.819 135.07 692.426 Q132.015 697.009 126.205 697.009 Q120.394 697.009 117.316 692.426 Q114.26 687.819 114.26 679.093 Q114.26 670.343 117.316 665.759 Q120.394 661.153 126.205 661.153 Z" fill="#000000" fill-rule="nonzero" fill-opacity="1" /><path clip-path="url(#clip830)" d="M146.366 690.458 L151.251 690.458 L151.251 696.338 L146.366 696.338 L146.366 690.458 Z" fill="#000000" fill-rule="nonzero" fill-opacity="1" /><path clip-path="url(#clip830)" d="M162.246 692.403 L169.885 692.403 L169.885 666.037 L161.575 667.704 L161.575 663.445 L169.839 661.778 L174.514 661.778 L174.514 692.403 L182.153 692.403 L182.153 696.338 L162.246 696.338 L162.246 692.403 Z" fill="#000000" fill-rule="nonzero" fill-opacity="1" /><path clip-path="url(#clip830)" d="M201.598 664.857 Q197.987 664.857 196.158 668.421 Q194.352 671.963 194.352 679.093 Q194.352 686.199 196.158 689.764 Q197.987 693.306 201.598 693.306 Q205.232 693.306 207.037 689.764 Q208.866 686.199 208.866 679.093 Q208.866 671.963 207.037 668.421 Q205.232 664.857 201.598 664.857 M201.598 661.153 Q207.408 661.153 210.463 665.759 Q213.542 670.343 213.542 679.093 Q213.542 687.819 210.463 692.426 Q207.408 697.009 201.598 697.009 Q195.787 697.009 192.709 692.426 Q189.653 687.819 189.653 679.093 Q189.653 670.343 192.709 665.759 Q195.787 661.153 201.598 661.153 Z" fill="#000000" fill-rule="nonzero" fill-opacity="1" /><path clip-path="url(#clip830)" d="M127.431 387.611 Q123.82 387.611 121.992 391.176 Q120.186 394.718 120.186 401.847 Q120.186 408.954 121.992 412.518 Q123.82 416.06 127.431 416.06 Q131.066 416.06 132.871 412.518 Q134.7 408.954 134.7 401.847 Q134.7 394.718 132.871 391.176 Q131.066 387.611 127.431 387.611 M127.431 383.907 Q133.242 383.907 136.297 388.514 Q139.376 393.097 139.376 401.847 Q139.376 410.574 136.297 415.18 Q133.242 419.764 127.431 419.764 Q121.621 419.764 118.543 415.18 Q115.487 410.574 115.487 401.847 Q115.487 393.097 118.543 388.514 Q121.621 383.907 127.431 383.907 Z" fill="#000000" fill-rule="nonzero" fill-opacity="1" /><path clip-path="url(#clip830)" d="M147.593 413.213 L152.478 413.213 L152.478 419.092 L147.593 419.092 L147.593 413.213 Z" fill="#000000" fill-rule="nonzero" fill-opacity="1" /><path clip-path="url(#clip830)" d="M163.473 415.157 L171.112 415.157 L171.112 388.792 L162.802 390.458 L162.802 386.199 L171.065 384.532 L175.741 384.532 L175.741 415.157 L183.38 415.157 L183.38 419.092 L163.473 419.092 L163.473 415.157 Z" fill="#000000" fill-rule="nonzero" fill-opacity="1" /><path clip-path="url(#clip830)" d="M193.635 415.157 L201.274 415.157 L201.274 388.792 L192.963 390.458 L192.963 386.199 L201.227 384.532 L205.903 384.532 L205.903 415.157 L213.542 415.157 L213.542 419.092 L193.635 419.092 L193.635 415.157 Z" fill="#000000" fill-rule="nonzero" fill-opacity="1" /><path clip-path="url(#clip830)" d="M127.802 110.366 Q124.191 110.366 122.362 113.93 Q120.556 117.472 120.556 124.602 Q120.556 131.708 122.362 135.273 Q124.191 138.815 127.802 138.815 Q131.436 138.815 133.242 135.273 Q135.07 131.708 135.07 124.602 Q135.07 117.472 133.242 113.93 Q131.436 110.366 127.802 110.366 M127.802 106.662 Q133.612 106.662 136.667 111.268 Q139.746 115.852 139.746 124.602 Q139.746 133.328 136.667 137.935 Q133.612 142.518 127.802 142.518 Q121.992 142.518 118.913 137.935 Q115.857 133.328 115.857 124.602 Q115.857 115.852 118.913 111.268 Q121.992 106.662 127.802 106.662 Z" fill="#000000" fill-rule="nonzero" fill-opacity="1" /><path clip-path="url(#clip830)" d="M147.964 135.967 L152.848 135.967 L152.848 141.847 L147.964 141.847 L147.964 135.967 Z" fill="#000000" fill-rule="nonzero" fill-opacity="1" /><path clip-path="url(#clip830)" d="M163.843 137.912 L171.482 137.912 L171.482 111.546 L163.172 113.213 L163.172 108.954 L171.436 107.287 L176.112 107.287 L176.112 137.912 L183.751 137.912 L183.751 141.847 L163.843 141.847 L163.843 137.912 Z" fill="#000000" fill-rule="nonzero" fill-opacity="1" /><path clip-path="url(#clip830)" d="M197.223 137.912 L213.542 137.912 L213.542 141.847 L191.598 141.847 L191.598 137.912 Q194.26 135.157 198.843 130.528 Q203.449 125.875 204.63 124.532 Q206.875 122.009 207.755 120.273 Q208.658 118.514 208.658 116.824 Q208.658 114.069 206.713 112.333 Q204.792 110.597 201.69 110.597 Q199.491 110.597 197.037 111.361 Q194.607 112.125 191.829 113.676 L191.829 108.954 Q194.653 107.819 197.107 107.241 Q199.561 106.662 201.598 106.662 Q206.968 106.662 210.162 109.347 Q213.357 112.032 213.357 116.523 Q213.357 118.653 212.547 120.574 Q211.76 122.472 209.653 125.065 Q209.074 125.736 205.973 128.953 Q202.871 132.148 197.223 137.912 Z" fill="#000000" fill-rule="nonzero" fill-opacity="1" /><path clip-path="url(#clip830)" d="M16.4842 1029.43 L16.4842 999.388 L21.895 999.388 L21.895 1023 L35.9632 1023 L35.9632 1000.37 L41.3741 1000.37 L41.3741 1023 L58.5933 1023 L58.5933 998.815 L64.0042 998.815 L64.0042 1029.43 L16.4842 1029.43 Z" fill="#000000" fill-rule="nonzero" fill-opacity="1" /><path clip-path="url(#clip830)" d="M28.3562 958.87 L45.7028 971.761 L64.0042 958.202 L64.0042 965.109 L49.9996 975.485 L64.0042 985.861 L64.0042 992.768 L45.3526 978.922 L28.3562 991.59 L28.3562 984.683 L41.0558 975.23 L28.3562 965.777 L28.3562 958.87 Z" fill="#000000" fill-rule="nonzero" fill-opacity="1" /><path clip-path="url(#clip830)" d="M58.657 944.261 L77.5631 944.261 L77.5631 950.149 L28.3562 950.149 L28.3562 944.261 L33.7671 944.261 Q30.5842 942.415 29.0564 939.614 Q27.4968 936.781 27.4968 932.867 Q27.4968 926.373 32.6531 922.331 Q37.8093 918.257 46.212 918.257 Q54.6147 918.257 59.771 922.331 Q64.9272 926.373 64.9272 932.867 Q64.9272 936.781 63.3994 939.614 Q61.8398 942.415 58.657 944.261 M46.212 924.336 Q39.7508 924.336 36.0905 927.01 Q32.3984 929.652 32.3984 934.299 Q32.3984 938.946 36.0905 941.619 Q39.7508 944.261 46.212 944.261 Q52.6732 944.261 56.3653 941.619 Q60.0256 938.946 60.0256 934.299 Q60.0256 929.652 56.3653 927.01 Q52.6732 924.336 46.212 924.336 Z" fill="#000000" fill-rule="nonzero" fill-opacity="1" /><path clip-path="url(#clip830)" d="M44.7161 878.058 L47.5806 878.058 L47.5806 904.985 Q53.6281 904.603 56.8109 901.356 Q59.9619 898.078 59.9619 892.253 Q59.9619 888.879 59.1344 885.728 Q58.3069 882.546 56.6518 879.426 L62.1899 879.426 Q63.5267 882.577 64.227 885.888 Q64.9272 889.198 64.9272 892.603 Q64.9272 901.133 59.9619 906.131 Q54.9967 911.096 46.5303 911.096 Q37.7774 911.096 32.6531 906.385 Q27.4968 901.643 27.4968 893.622 Q27.4968 886.429 32.1438 882.259 Q36.7589 878.058 44.7161 878.058 M42.9973 883.914 Q38.1912 883.978 35.3266 886.62 Q32.4621 889.23 32.4621 893.558 Q32.4621 898.46 35.2312 901.42 Q38.0002 904.348 43.0292 904.794 L42.9973 883.914 Z" fill="#000000" fill-rule="nonzero" fill-opacity="1" /><path clip-path="url(#clip830)" d="M29.7248 842.792 L35.1993 842.792 Q33.8307 845.274 33.1623 847.789 Q32.4621 850.271 32.4621 852.818 Q32.4621 858.515 36.0905 861.666 Q39.6872 864.817 46.212 864.817 Q52.7369 864.817 56.3653 861.666 Q59.9619 858.515 59.9619 852.818 Q59.9619 850.271 59.2935 847.789 Q58.5933 845.274 57.2247 842.792 L62.6355 842.792 Q63.7814 845.243 64.3543 847.884 Q64.9272 850.494 64.9272 853.454 Q64.9272 861.507 59.8664 866.249 Q54.8057 870.992 46.212 870.992 Q37.491 870.992 32.4939 866.218 Q27.4968 861.411 27.4968 853.072 Q27.4968 850.367 28.0697 847.789 Q28.6108 845.211 29.7248 842.792 Z" fill="#000000" fill-rule="nonzero" fill-opacity="1" /><path clip-path="url(#clip830)" d="M18.2347 826.814 L28.3562 826.814 L28.3562 814.751 L32.9077 814.751 L32.9077 826.814 L52.2594 826.814 Q56.6199 826.814 57.8613 825.636 Q59.1026 824.427 59.1026 820.766 L59.1026 814.751 L64.0042 814.751 L64.0042 820.766 Q64.0042 827.546 61.4897 830.124 Q58.9434 832.702 52.2594 832.702 L32.9077 832.702 L32.9077 836.999 L28.3562 836.999 L28.3562 832.702 L18.2347 832.702 L18.2347 826.814 Z" fill="#000000" fill-rule="nonzero" fill-opacity="1" /><path clip-path="url(#clip830)" d="M44.7161 776.557 L47.5806 776.557 L47.5806 803.484 Q53.6281 803.102 56.8109 799.855 Q59.9619 796.577 59.9619 790.752 Q59.9619 787.378 59.1344 784.227 Q58.3069 781.044 56.6518 777.925 L62.1899 777.925 Q63.5267 781.076 64.227 784.386 Q64.9272 787.697 64.9272 791.102 Q64.9272 799.632 59.9619 804.629 Q54.9967 809.595 46.5303 809.595 Q37.7774 809.595 32.6531 804.884 Q27.4968 800.142 27.4968 792.121 Q27.4968 784.927 32.1438 780.758 Q36.7589 776.557 44.7161 776.557 M42.9973 782.413 Q38.1912 782.477 35.3266 785.118 Q32.4621 787.728 32.4621 792.057 Q32.4621 796.959 35.2312 799.919 Q38.0002 802.847 43.0292 803.293 L42.9973 782.413 Z" fill="#000000" fill-rule="nonzero" fill-opacity="1" /><path clip-path="url(#clip830)" d="M33.7671 743.487 L14.479 743.487 L14.479 737.63 L64.0042 737.63 L64.0042 743.487 L58.657 743.487 Q61.8398 745.333 63.3994 748.166 Q64.9272 750.966 64.9272 754.913 Q64.9272 761.374 59.771 765.448 Q54.6147 769.491 46.212 769.491 Q37.8093 769.491 32.6531 765.448 Q27.4968 761.374 27.4968 754.913 Q27.4968 750.966 29.0564 748.166 Q30.5842 745.333 33.7671 743.487 M46.212 763.443 Q52.6732 763.443 56.3653 760.801 Q60.0256 758.128 60.0256 753.481 Q60.0256 748.834 56.3653 746.16 Q52.6732 743.487 46.212 743.487 Q39.7508 743.487 36.0905 746.16 Q32.3984 748.834 32.3984 753.481 Q32.3984 758.128 36.0905 760.801 Q39.7508 763.443 46.212 763.443 Z" fill="#000000" fill-rule="nonzero" fill-opacity="1" /><path clip-path="url(#clip830)" d="M33.8307 684.19 Q33.2578 685.177 33.0032 686.355 Q32.7167 687.5 32.7167 688.901 Q32.7167 693.866 35.9632 696.54 Q39.1779 699.181 45.2253 699.181 L64.0042 699.181 L64.0042 705.07 L28.3562 705.07 L28.3562 699.181 L33.8944 699.181 Q30.6479 697.335 29.0883 694.375 Q27.4968 691.415 27.4968 687.182 Q27.4968 686.577 27.5923 685.845 Q27.656 685.113 27.8151 684.222 L33.8307 684.19 Z" fill="#000000" fill-rule="nonzero" fill-opacity="1" /><path clip-path="url(#clip830)" d="M44.7161 648.988 L47.5806 648.988 L47.5806 675.915 Q53.6281 675.533 56.8109 672.286 Q59.9619 669.008 59.9619 663.183 Q59.9619 659.81 59.1344 656.658 Q58.3069 653.476 56.6518 650.356 L62.1899 650.356 Q63.5267 653.507 64.227 656.818 Q64.9272 660.128 64.9272 663.533 Q64.9272 672.064 59.9619 677.061 Q54.9967 682.026 46.5303 682.026 Q37.7774 682.026 32.6531 677.315 Q27.4968 672.573 27.4968 664.552 Q27.4968 657.359 32.1438 653.189 Q36.7589 648.988 44.7161 648.988 M42.9973 654.844 Q38.1912 654.908 35.3266 657.55 Q32.4621 660.16 32.4621 664.488 Q32.4621 669.39 35.2312 672.35 Q38.0002 675.278 43.0292 675.724 L42.9973 654.844 Z" fill="#000000" fill-rule="nonzero" fill-opacity="1" /><path clip-path="url(#clip830)" d="M18.2347 633.583 L28.3562 633.583 L28.3562 621.52 L32.9077 621.52 L32.9077 633.583 L52.2594 633.583 Q56.6199 633.583 57.8613 632.405 Q59.1026 631.196 59.1026 627.535 L59.1026 621.52 L64.0042 621.52 L64.0042 627.535 Q64.0042 634.315 61.4897 636.893 Q58.9434 639.471 52.2594 639.471 L32.9077 639.471 L32.9077 643.768 L28.3562 643.768 L28.3562 639.471 L18.2347 639.471 L18.2347 633.583 Z" fill="#000000" fill-rule="nonzero" fill-opacity="1" /><path clip-path="url(#clip830)" d="M49.9359 614.422 L28.3562 614.422 L28.3562 608.566 L49.7131 608.566 Q54.7739 608.566 57.3202 606.592 Q59.8346 604.619 59.8346 600.672 Q59.8346 595.93 56.8109 593.192 Q53.7872 590.423 48.5673 590.423 L28.3562 590.423 L28.3562 584.567 L64.0042 584.567 L64.0042 590.423 L58.5296 590.423 Q61.7762 592.556 63.3676 595.389 Q64.9272 598.189 64.9272 601.913 Q64.9272 608.056 61.1078 611.239 Q57.2883 614.422 49.9359 614.422 M27.4968 599.685 L27.4968 599.685 Z" fill="#000000" fill-rule="nonzero" fill-opacity="1" /><path clip-path="url(#clip830)" d="M33.8307 551.847 Q33.2578 552.834 33.0032 554.011 Q32.7167 555.157 32.7167 556.558 Q32.7167 561.523 35.9632 564.197 Q39.1779 566.838 45.2253 566.838 L64.0042 566.838 L64.0042 572.727 L28.3562 572.727 L28.3562 566.838 L33.8944 566.838 Q30.6479 564.992 29.0883 562.032 Q27.4968 559.072 27.4968 554.839 Q27.4968 554.234 27.5923 553.502 Q27.656 552.77 27.8151 551.879 L33.8307 551.847 Z" fill="#000000" fill-rule="nonzero" fill-opacity="1" /><path clip-path="url(#clip830)" d="M42.4881 517.218 L64.0042 517.218 L64.0042 523.074 L42.679 523.074 Q37.6183 523.074 35.1038 525.048 Q32.5894 527.021 32.5894 530.968 Q32.5894 535.71 35.6131 538.447 Q38.6368 541.185 43.8567 541.185 L64.0042 541.185 L64.0042 547.073 L28.3562 547.073 L28.3562 541.185 L33.8944 541.185 Q30.6797 539.084 29.0883 536.251 Q27.4968 533.387 27.4968 529.663 Q27.4968 523.52 31.3163 520.369 Q35.1038 517.218 42.4881 517.218 Z" fill="#000000" fill-rule="nonzero" fill-opacity="1" /><path clip-path="url(#clip830)" d="M453.74 44.2197 Q456.373 45.1109 458.844 48.0275 Q461.356 50.9442 463.868 56.0483 L472.172 72.576 L463.381 72.576 L455.644 57.061 Q452.647 50.9847 449.811 48.9997 Q447.016 47.0148 442.155 47.0148 L433.243 47.0148 L433.243 72.576 L425.06 72.576 L425.06 12.096 L443.532 12.096 Q453.902 12.096 459.006 16.4305 Q464.111 20.7649 464.111 29.5149 Q464.111 35.2267 461.437 38.994 Q458.804 42.7613 453.74 44.2197 M433.243 18.8205 L433.243 40.2903 L443.532 40.2903 Q449.446 40.2903 452.444 37.5762 Q455.482 34.8216 455.482 29.5149 Q455.482 24.2082 452.444 21.5346 Q449.446 18.8205 443.532 18.8205 L433.243 18.8205 Z" fill="#000000" fill-rule="nonzero" fill-opacity="1" /><path clip-path="url(#clip830)" d="M482.38 27.2059 L489.834 27.2059 L489.834 72.576 L482.38 72.576 L482.38 27.2059 M482.38 9.54393 L489.834 9.54393 L489.834 18.9825 L482.38 18.9825 L482.38 9.54393 Z" fill="#000000" fill-rule="nonzero" fill-opacity="1" /><path clip-path="url(#clip830)" d="M534.353 28.5427 L534.353 35.5912 Q531.194 33.9709 527.791 33.1607 Q524.388 32.3505 520.742 32.3505 Q515.193 32.3505 512.397 34.0519 Q509.643 35.7533 509.643 39.156 Q509.643 41.7486 511.628 43.2475 Q513.613 44.7058 519.608 46.0426 L522.16 46.6097 Q530.1 48.3111 533.422 51.4303 Q536.784 54.509 536.784 60.0587 Q536.784 66.3781 531.761 70.0644 Q526.778 73.7508 518.028 73.7508 Q514.382 73.7508 510.412 73.0216 Q506.483 72.3329 502.108 70.9151 L502.108 63.2184 Q506.24 65.3654 510.25 66.4591 Q514.261 67.5124 518.19 67.5124 Q523.456 67.5124 526.292 65.73 Q529.128 63.9071 529.128 60.6258 Q529.128 57.5877 527.062 55.9673 Q525.036 54.3469 518.109 52.8481 L515.517 52.2405 Q508.59 50.7821 505.511 47.7845 Q502.432 44.7463 502.432 39.4801 Q502.432 33.0797 506.969 29.5959 Q511.506 26.1121 519.851 26.1121 Q523.983 26.1121 527.629 26.7198 Q531.275 27.3274 534.353 28.5427 Z" fill="#000000" fill-rule="nonzero" fill-opacity="1" /><path clip-path="url(#clip830)" d="M548.369 9.54393 L555.864 9.54393 L555.864 46.7717 L578.103 27.2059 L587.623 27.2059 L563.56 48.4326 L588.635 72.576 L578.913 72.576 L555.864 50.4176 L555.864 72.576 L548.369 72.576 L548.369 9.54393 Z" fill="#000000" fill-rule="nonzero" fill-opacity="1" /><path clip-path="url(#clip830)" d="M592.929 46.5287 L614.764 46.5287 L614.764 53.1722 L592.929 53.1722 L592.929 46.5287 Z" fill="#000000" fill-rule="nonzero" fill-opacity="1" /><path clip-path="url(#clip830)" d="M652.923 34.1734 Q651.667 33.4443 650.169 33.1202 Q648.71 32.7556 646.928 32.7556 Q640.609 32.7556 637.206 36.8875 Q633.844 40.9789 633.844 48.6757 L633.844 72.576 L626.349 72.576 L626.349 27.2059 L633.844 27.2059 L633.844 34.2544 Q636.193 30.1225 639.96 28.1376 Q643.728 26.1121 649.115 26.1121 Q649.885 26.1121 650.817 26.2337 Q651.749 26.3147 652.883 26.5172 L652.923 34.1734 Z" fill="#000000" fill-rule="nonzero" fill-opacity="1" /><path clip-path="url(#clip830)" d="M697.726 48.0275 L697.726 51.6733 L663.456 51.6733 Q663.942 59.3701 668.074 63.421 Q672.246 67.4314 679.659 67.4314 Q683.953 67.4314 687.964 66.3781 Q692.015 65.3249 695.984 63.2184 L695.984 70.267 Q691.974 71.9684 687.761 72.8596 Q683.548 73.7508 679.214 73.7508 Q668.357 73.7508 661.997 67.4314 Q655.678 61.1119 655.678 50.3365 Q655.678 39.1965 661.673 32.6746 Q667.709 26.1121 677.917 26.1121 Q687.072 26.1121 692.379 32.0264 Q697.726 37.9003 697.726 48.0275 M690.273 45.84 Q690.192 39.7232 686.829 36.0774 Q683.508 32.4315 677.998 32.4315 Q671.76 32.4315 667.993 35.9558 Q664.266 39.4801 663.699 45.8805 L690.273 45.84 Z" fill="#000000" fill-rule="nonzero" fill-opacity="1" /><path clip-path="url(#clip830)" d="M717.333 14.324 L717.333 27.2059 L732.686 27.2059 L732.686 32.9987 L717.333 32.9987 L717.333 57.6282 Q717.333 63.1779 718.831 64.7578 Q720.371 66.3376 725.029 66.3376 L732.686 66.3376 L732.686 72.576 L725.029 72.576 Q716.401 72.576 713.12 69.3758 Q709.838 66.1351 709.838 57.6282 L709.838 32.9987 L704.37 32.9987 L704.37 27.2059 L709.838 27.2059 L709.838 14.324 L717.333 14.324 Z" fill="#000000" fill-rule="nonzero" fill-opacity="1" /><path clip-path="url(#clip830)" d="M741.719 54.671 L741.719 27.2059 L749.173 27.2059 L749.173 54.3874 Q749.173 60.8284 751.684 64.0691 Q754.196 67.2693 759.219 67.2693 Q765.255 67.2693 768.739 63.421 Q772.263 59.5726 772.263 52.9291 L772.263 27.2059 L779.717 27.2059 L779.717 72.576 L772.263 72.576 L772.263 65.6084 Q769.549 69.7404 765.944 71.7658 Q762.379 73.7508 757.639 73.7508 Q749.821 73.7508 745.77 68.8897 Q741.719 64.0286 741.719 54.671 M760.475 26.1121 L760.475 26.1121 Z" fill="#000000" fill-rule="nonzero" fill-opacity="1" /><path clip-path="url(#clip830)" d="M821.36 34.1734 Q820.104 33.4443 818.605 33.1202 Q817.147 32.7556 815.365 32.7556 Q809.045 32.7556 805.642 36.8875 Q802.28 40.9789 802.28 48.6757 L802.28 72.576 L794.786 72.576 L794.786 27.2059 L802.28 27.2059 L802.28 34.2544 Q804.63 30.1225 808.397 28.1376 Q812.164 26.1121 817.552 26.1121 Q818.322 26.1121 819.253 26.2337 Q820.185 26.3147 821.319 26.5172 L821.36 34.1734 Z" fill="#000000" fill-rule="nonzero" fill-opacity="1" /><path clip-path="url(#clip830)" d="M865.434 45.1919 L865.434 72.576 L857.98 72.576 L857.98 45.4349 Q857.98 38.994 855.468 35.7938 Q852.957 32.5936 847.934 32.5936 Q841.898 32.5936 838.414 36.4419 Q834.93 40.2903 834.93 46.9338 L834.93 72.576 L827.436 72.576 L827.436 27.2059 L834.93 27.2059 L834.93 34.2544 Q837.604 30.163 841.209 28.1376 Q844.855 26.1121 849.595 26.1121 Q857.413 26.1121 861.423 30.9732 Q865.434 35.7938 865.434 45.1919 Z" fill="#000000" fill-rule="nonzero" fill-opacity="1" /><path clip-path="url(#clip830)" d="M914.045 14.324 L914.045 27.2059 L929.397 27.2059 L929.397 32.9987 L914.045 32.9987 L914.045 57.6282 Q914.045 63.1779 915.543 64.7578 Q917.083 66.3376 921.741 66.3376 L929.397 66.3376 L929.397 72.576 L921.741 72.576 Q913.113 72.576 909.832 69.3758 Q906.55 66.1351 906.55 57.6282 L906.55 32.9987 L901.082 32.9987 L901.082 27.2059 L906.55 27.2059 L906.55 14.324 L914.045 14.324 Z" fill="#000000" fill-rule="nonzero" fill-opacity="1" /><path clip-path="url(#clip830)" d="M965.491 34.1734 Q964.235 33.4443 962.736 33.1202 Q961.278 32.7556 959.496 32.7556 Q953.176 32.7556 949.774 36.8875 Q946.411 40.9789 946.411 48.6757 L946.411 72.576 L938.917 72.576 L938.917 27.2059 L946.411 27.2059 L946.411 34.2544 Q948.761 30.1225 952.528 28.1376 Q956.295 26.1121 961.683 26.1121 Q962.453 26.1121 963.385 26.2337 Q964.316 26.3147 965.451 26.5172 L965.491 34.1734 Z" fill="#000000" fill-rule="nonzero" fill-opacity="1" /><path clip-path="url(#clip830)" d="M993.928 49.7694 Q984.895 49.7694 981.411 51.8354 Q977.927 53.9013 977.927 58.8839 Q977.927 62.8538 980.52 65.2034 Q983.153 67.5124 987.649 67.5124 Q993.847 67.5124 997.574 63.1374 Q1001.34 58.7219 1001.34 51.4303 L1001.34 49.7694 L993.928 49.7694 M1008.8 46.6907 L1008.8 72.576 L1001.34 72.576 L1001.34 65.6895 Q998.789 69.8214 994.982 71.8063 Q991.174 73.7508 985.665 73.7508 Q978.697 73.7508 974.565 69.8619 Q970.474 65.9325 970.474 59.3701 Q970.474 51.7138 975.578 47.825 Q980.722 43.9361 990.89 43.9361 L1001.34 43.9361 L1001.34 43.2069 Q1001.34 38.0623 997.939 35.2672 Q994.577 32.4315 988.46 32.4315 Q984.571 32.4315 980.884 33.3632 Q977.198 34.295 973.795 36.1584 L973.795 29.2718 Q977.887 27.692 981.735 26.9223 Q985.584 26.1121 989.229 26.1121 Q999.073 26.1121 1003.93 31.2163 Q1008.8 36.3204 1008.8 46.6907 Z" fill="#000000" fill-rule="nonzero" fill-opacity="1" /><path clip-path="url(#clip830)" d="M1054 34.0924 L1054 9.54393 L1061.46 9.54393 L1061.46 72.576 L1054 72.576 L1054 65.7705 Q1051.65 69.8214 1048.05 71.8063 Q1044.48 73.7508 1039.46 73.7508 Q1031.24 73.7508 1026.05 67.1883 Q1020.91 60.6258 1020.91 49.9314 Q1020.91 39.2371 1026.05 32.6746 Q1031.24 26.1121 1039.46 26.1121 Q1044.48 26.1121 1048.05 28.0971 Q1051.65 30.0415 1054 34.0924 M1028.6 49.9314 Q1028.6 58.1548 1031.97 62.8538 Q1035.37 67.5124 1041.28 67.5124 Q1047.2 67.5124 1050.6 62.8538 Q1054 58.1548 1054 49.9314 Q1054 41.7081 1050.6 37.0496 Q1047.2 32.3505 1041.28 32.3505 Q1035.37 32.3505 1031.97 37.0496 Q1028.6 41.7081 1028.6 49.9314 Z" fill="#000000" fill-rule="nonzero" fill-opacity="1" /><path clip-path="url(#clip830)" d="M1115.62 48.0275 L1115.62 51.6733 L1081.35 51.6733 Q1081.83 59.3701 1085.96 63.421 Q1090.14 67.4314 1097.55 67.4314 Q1101.84 67.4314 1105.85 66.3781 Q1109.91 65.3249 1113.88 63.2184 L1113.88 70.267 Q1109.87 71.9684 1105.65 72.8596 Q1101.44 73.7508 1097.1 73.7508 Q1086.25 73.7508 1079.89 67.4314 Q1073.57 61.1119 1073.57 50.3365 Q1073.57 39.1965 1079.56 32.6746 Q1085.6 26.1121 1095.81 26.1121 Q1104.96 26.1121 1110.27 32.0264 Q1115.62 37.9003 1115.62 48.0275 M1108.16 45.84 Q1108.08 39.7232 1104.72 36.0774 Q1101.4 32.4315 1095.89 32.4315 Q1089.65 32.4315 1085.88 35.9558 Q1082.16 39.4801 1081.59 45.8805 L1108.16 45.84 Z" fill="#000000" fill-rule="nonzero" fill-opacity="1" /><path clip-path="url(#clip830)" d="M1124.08 46.5287 L1145.92 46.5287 L1145.92 53.1722 L1124.08 53.1722 L1124.08 46.5287 Z" fill="#000000" fill-rule="nonzero" fill-opacity="1" /><path clip-path="url(#clip830)" d="M1176.91 32.4315 Q1170.91 32.4315 1167.43 37.1306 Q1163.94 41.7891 1163.94 49.9314 Q1163.94 58.0738 1167.39 62.7728 Q1170.87 67.4314 1176.91 67.4314 Q1182.86 67.4314 1186.35 62.7323 Q1189.83 58.0333 1189.83 49.9314 Q1189.83 41.8701 1186.35 37.1711 Q1182.86 32.4315 1176.91 32.4315 M1176.91 26.1121 Q1186.63 26.1121 1192.18 32.4315 Q1197.73 38.7509 1197.73 49.9314 Q1197.73 61.0714 1192.18 67.4314 Q1186.63 73.7508 1176.91 73.7508 Q1167.15 73.7508 1161.6 67.4314 Q1156.09 61.0714 1156.09 49.9314 Q1156.09 38.7509 1161.6 32.4315 Q1167.15 26.1121 1176.91 26.1121 Z" fill="#000000" fill-rule="nonzero" fill-opacity="1" /><path clip-path="url(#clip830)" d="M1233.05 9.54393 L1233.05 15.7418 L1225.92 15.7418 Q1221.91 15.7418 1220.33 17.3622 Q1218.79 18.9825 1218.79 23.1955 L1218.79 27.2059 L1231.07 27.2059 L1231.07 32.9987 L1218.79 32.9987 L1218.79 72.576 L1211.3 72.576 L1211.3 32.9987 L1204.17 32.9987 L1204.17 27.2059 L1211.3 27.2059 L1211.3 24.0462 Q1211.3 16.471 1214.82 13.0277 Q1218.35 9.54393 1226 9.54393 L1233.05 9.54393 Z" fill="#000000" fill-rule="nonzero" fill-opacity="1" /><path clip-path="url(#clip830)" d="M1262.26 9.54393 L1262.26 15.7418 L1255.13 15.7418 Q1251.12 15.7418 1249.54 17.3622 Q1248 18.9825 1248 23.1955 L1248 27.2059 L1260.28 27.2059 L1260.28 32.9987 L1248 32.9987 L1248 72.576 L1240.51 72.576 L1240.51 32.9987 L1233.38 32.9987 L1233.38 27.2059 L1240.51 27.2059 L1240.51 24.0462 Q1240.51 16.471 1244.03 13.0277 Q1247.56 9.54393 1255.21 9.54393 L1262.26 9.54393 Z" fill="#000000" fill-rule="nonzero" fill-opacity="1" /><path clip-path="url(#clip830)" d="M1317.84 9.54393 L1317.84 15.7418 L1310.71 15.7418 Q1306.7 15.7418 1305.12 17.3622 Q1303.58 18.9825 1303.58 23.1955 L1303.58 27.2059 L1315.85 27.2059 L1315.85 32.9987 L1303.58 32.9987 L1303.58 72.576 L1296.09 72.576 L1296.09 32.9987 L1288.96 32.9987 L1288.96 27.2059 L1296.09 27.2059 L1296.09 24.0462 Q1296.09 16.471 1299.61 13.0277 Q1303.13 9.54393 1310.79 9.54393 L1317.84 9.54393 Z" fill="#000000" fill-rule="nonzero" fill-opacity="1" /><path clip-path="url(#clip830)" d="M1341.66 32.4315 Q1335.66 32.4315 1332.18 37.1306 Q1328.7 41.7891 1328.7 49.9314 Q1328.7 58.0738 1332.14 62.7728 Q1335.62 67.4314 1341.66 67.4314 Q1347.61 67.4314 1351.1 62.7323 Q1354.58 58.0333 1354.58 49.9314 Q1354.58 41.8701 1351.1 37.1711 Q1347.61 32.4315 1341.66 32.4315 M1341.66 26.1121 Q1351.38 26.1121 1356.93 32.4315 Q1362.48 38.7509 1362.48 49.9314 Q1362.48 61.0714 1356.93 67.4314 Q1351.38 73.7508 1341.66 73.7508 Q1331.9 73.7508 1326.35 67.4314 Q1320.84 61.0714 1320.84 49.9314 Q1320.84 38.7509 1326.35 32.4315 Q1331.9 26.1121 1341.66 26.1121 Z" fill="#000000" fill-rule="nonzero" fill-opacity="1" /><path clip-path="url(#clip830)" d="M1401.13 34.1734 Q1399.87 33.4443 1398.37 33.1202 Q1396.91 32.7556 1395.13 32.7556 Q1388.81 32.7556 1385.41 36.8875 Q1382.05 40.9789 1382.05 48.6757 L1382.05 72.576 L1374.55 72.576 L1374.55 27.2059 L1382.05 27.2059 L1382.05 34.2544 Q1384.4 30.1225 1388.16 28.1376 Q1391.93 26.1121 1397.32 26.1121 Q1398.09 26.1121 1399.02 26.2337 Q1399.95 26.3147 1401.08 26.5172 L1401.13 34.1734 Z" fill="#000000" fill-rule="nonzero" fill-opacity="1" /><path clip-path="url(#clip830)" d="M1474.12 48.0275 L1474.12 51.6733 L1439.85 51.6733 Q1440.34 59.3701 1444.47 63.421 Q1448.64 67.4314 1456.06 67.4314 Q1460.35 67.4314 1464.36 66.3781 Q1468.41 65.3249 1472.38 63.2184 L1472.38 70.267 Q1468.37 71.9684 1464.16 72.8596 Q1459.94 73.7508 1455.61 73.7508 Q1444.75 73.7508 1438.39 67.4314 Q1432.07 61.1119 1432.07 50.3365 Q1432.07 39.1965 1438.07 32.6746 Q1444.11 26.1121 1454.31 26.1121 Q1463.47 26.1121 1468.78 32.0264 Q1474.12 37.9003 1474.12 48.0275 M1466.67 45.84 Q1466.59 39.7232 1463.23 36.0774 Q1459.9 32.4315 1454.39 32.4315 Q1448.16 32.4315 1444.39 35.9558 Q1440.66 39.4801 1440.09 45.8805 L1466.67 45.84 Z" fill="#000000" fill-rule="nonzero" fill-opacity="1" /><path clip-path="url(#clip830)" d="M1509.32 9.54393 L1509.32 15.7418 L1502.2 15.7418 Q1498.18 15.7418 1496.61 17.3622 Q1495.07 18.9825 1495.07 23.1955 L1495.07 27.2059 L1507.34 27.2059 L1507.34 32.9987 L1495.07 32.9987 L1495.07 72.576 L1487.57 72.576 L1487.57 32.9987 L1480.44 32.9987 L1480.44 27.2059 L1487.57 27.2059 L1487.57 24.0462 Q1487.57 16.471 1491.1 13.0277 Q1494.62 9.54393 1502.28 9.54393 L1509.32 9.54393 Z" fill="#000000" fill-rule="nonzero" fill-opacity="1" /><path clip-path="url(#clip830)" d="M1538.53 9.54393 L1538.53 15.7418 L1531.4 15.7418 Q1527.39 15.7418 1525.81 17.3622 Q1524.27 18.9825 1524.27 23.1955 L1524.27 27.2059 L1536.55 27.2059 L1536.55 32.9987 L1524.27 32.9987 L1524.27 72.576 L1516.78 72.576 L1516.78 32.9987 L1509.65 32.9987 L1509.65 27.2059 L1516.78 27.2059 L1516.78 24.0462 Q1516.78 16.471 1520.3 13.0277 Q1523.83 9.54393 1531.48 9.54393 L1538.53 9.54393 Z" fill="#000000" fill-rule="nonzero" fill-opacity="1" /><path clip-path="url(#clip830)" d="M1544.77 27.2059 L1552.22 27.2059 L1552.22 72.576 L1544.77 72.576 L1544.77 27.2059 M1544.77 9.54393 L1552.22 9.54393 L1552.22 18.9825 L1544.77 18.9825 L1544.77 9.54393 Z" fill="#000000" fill-rule="nonzero" fill-opacity="1" /><path clip-path="url(#clip830)" d="M1600.47 28.9478 L1600.47 35.9153 Q1597.31 34.1734 1594.11 33.3227 Q1590.95 32.4315 1587.71 32.4315 Q1580.46 32.4315 1576.45 37.0496 Q1572.44 41.6271 1572.44 49.9314 Q1572.44 58.2358 1576.45 62.8538 Q1580.46 67.4314 1587.71 67.4314 Q1590.95 67.4314 1594.11 66.5807 Q1597.31 65.6895 1600.47 63.9476 L1600.47 70.8341 Q1597.35 72.2924 1593.99 73.0216 Q1590.67 73.7508 1586.9 73.7508 Q1576.65 73.7508 1570.62 67.3098 Q1564.58 60.8689 1564.58 49.9314 Q1564.58 38.832 1570.66 32.472 Q1576.77 26.1121 1587.39 26.1121 Q1590.83 26.1121 1594.11 26.8413 Q1597.39 27.5299 1600.47 28.9478 Z" fill="#000000" fill-rule="nonzero" fill-opacity="1" /><path clip-path="url(#clip830)" d="M1613.43 27.2059 L1620.89 27.2059 L1620.89 72.576 L1613.43 72.576 L1613.43 27.2059 M1613.43 9.54393 L1620.89 9.54393 L1620.89 18.9825 L1613.43 18.9825 L1613.43 9.54393 Z" fill="#000000" fill-rule="nonzero" fill-opacity="1" /><path clip-path="url(#clip830)" d="M1675.29 48.0275 L1675.29 51.6733 L1641.02 51.6733 Q1641.51 59.3701 1645.64 63.421 Q1649.81 67.4314 1657.22 67.4314 Q1661.52 67.4314 1665.53 66.3781 Q1669.58 65.3249 1673.55 63.2184 L1673.55 70.267 Q1669.54 71.9684 1665.33 72.8596 Q1661.11 73.7508 1656.78 73.7508 Q1645.92 73.7508 1639.56 67.4314 Q1633.24 61.1119 1633.24 50.3365 Q1633.24 39.1965 1639.24 32.6746 Q1645.27 26.1121 1655.48 26.1121 Q1664.64 26.1121 1669.94 32.0264 Q1675.29 37.9003 1675.29 48.0275 M1667.84 45.84 Q1667.76 39.7232 1664.39 36.0774 Q1661.07 32.4315 1655.56 32.4315 Q1649.32 32.4315 1645.56 35.9558 Q1641.83 39.4801 1641.26 45.8805 L1667.84 45.84 Z" fill="#000000" fill-rule="nonzero" fill-opacity="1" /><path clip-path="url(#clip830)" d="M1725.24 45.1919 L1725.24 72.576 L1717.78 72.576 L1717.78 45.4349 Q1717.78 38.994 1715.27 35.7938 Q1712.76 32.5936 1707.74 32.5936 Q1701.7 32.5936 1698.22 36.4419 Q1694.73 40.2903 1694.73 46.9338 L1694.73 72.576 L1687.24 72.576 L1687.24 27.2059 L1694.73 27.2059 L1694.73 34.2544 Q1697.41 30.163 1701.01 28.1376 Q1704.66 26.1121 1709.4 26.1121 Q1717.22 26.1121 1721.23 30.9732 Q1725.24 35.7938 1725.24 45.1919 Z" fill="#000000" fill-rule="nonzero" fill-opacity="1" /><path clip-path="url(#clip830)" d="M1747.48 14.324 L1747.48 27.2059 L1762.83 27.2059 L1762.83 32.9987 L1747.48 32.9987 L1747.48 57.6282 Q1747.48 63.1779 1748.98 64.7578 Q1750.52 66.3376 1755.17 66.3376 L1762.83 66.3376 L1762.83 72.576 L1755.17 72.576 Q1746.55 72.576 1743.26 69.3758 Q1739.98 66.1351 1739.98 57.6282 L1739.98 32.9987 L1734.51 32.9987 L1734.51 27.2059 L1739.98 27.2059 L1739.98 14.324 L1747.48 14.324 Z" fill="#000000" fill-rule="nonzero" fill-opacity="1" /><path clip-path="url(#clip830)" d="M1806.22 65.7705 L1806.22 89.8329 L1798.72 89.8329 L1798.72 27.2059 L1806.22 27.2059 L1806.22 34.0924 Q1808.57 30.0415 1812.13 28.0971 Q1815.74 26.1121 1820.72 26.1121 Q1828.98 26.1121 1834.13 32.6746 Q1839.31 39.2371 1839.31 49.9314 Q1839.31 60.6258 1834.13 67.1883 Q1828.98 73.7508 1820.72 73.7508 Q1815.74 73.7508 1812.13 71.8063 Q1808.57 69.8214 1806.22 65.7705 M1831.57 49.9314 Q1831.57 41.7081 1828.17 37.0496 Q1824.81 32.3505 1818.9 32.3505 Q1812.98 32.3505 1809.58 37.0496 Q1806.22 41.7081 1806.22 49.9314 Q1806.22 58.1548 1809.58 62.8538 Q1812.98 67.5124 1818.9 67.5124 Q1824.81 67.5124 1828.17 62.8538 Q1831.57 58.1548 1831.57 49.9314 Z" fill="#000000" fill-rule="nonzero" fill-opacity="1" /><path clip-path="url(#clip830)" d="M1869.25 32.4315 Q1863.25 32.4315 1859.77 37.1306 Q1856.28 41.7891 1856.28 49.9314 Q1856.28 58.0738 1859.73 62.7728 Q1863.21 67.4314 1869.25 67.4314 Q1875.2 67.4314 1878.69 62.7323 Q1882.17 58.0333 1882.17 49.9314 Q1882.17 41.8701 1878.69 37.1711 Q1875.2 32.4315 1869.25 32.4315 M1869.25 26.1121 Q1878.97 26.1121 1884.52 32.4315 Q1890.07 38.7509 1890.07 49.9314 Q1890.07 61.0714 1884.52 67.4314 Q1878.97 73.7508 1869.25 73.7508 Q1859.49 73.7508 1853.94 67.4314 Q1848.43 61.0714 1848.43 49.9314 Q1848.43 38.7509 1853.94 32.4315 Q1859.49 26.1121 1869.25 26.1121 Z" fill="#000000" fill-rule="nonzero" fill-opacity="1" /><path clip-path="url(#clip830)" d="M1928.72 34.1734 Q1927.46 33.4443 1925.96 33.1202 Q1924.5 32.7556 1922.72 32.7556 Q1916.4 32.7556 1913 36.8875 Q1909.64 40.9789 1909.64 48.6757 L1909.64 72.576 L1902.14 72.576 L1902.14 27.2059 L1909.64 27.2059 L1909.64 34.2544 Q1911.98 30.1225 1915.75 28.1376 Q1919.52 26.1121 1924.91 26.1121 Q1925.68 26.1121 1926.61 26.2337 Q1927.54 26.3147 1928.67 26.5172 L1928.72 34.1734 Z" fill="#000000" fill-rule="nonzero" fill-opacity="1" /><path clip-path="url(#clip830)" d="M1943.91 14.324 L1943.91 27.2059 L1959.26 27.2059 L1959.26 32.9987 L1943.91 32.9987 L1943.91 57.6282 Q1943.91 63.1779 1945.4 64.7578 Q1946.94 66.3376 1951.6 66.3376 L1959.26 66.3376 L1959.26 72.576 L1951.6 72.576 Q1942.97 72.576 1939.69 69.3758 Q1936.41 66.1351 1936.41 57.6282 L1936.41 32.9987 L1930.94 32.9987 L1930.94 27.2059 L1936.41 27.2059 L1936.41 14.324 L1943.91 14.324 Z" fill="#000000" fill-rule="nonzero" fill-opacity="1" /><path clip-path="url(#clip830)" d="M1992.03 9.54393 L1992.03 15.7418 L1984.9 15.7418 Q1980.89 15.7418 1979.31 17.3622 Q1977.77 18.9825 1977.77 23.1955 L1977.77 27.2059 L1990.05 27.2059 L1990.05 32.9987 L1977.77 32.9987 L1977.77 72.576 L1970.28 72.576 L1970.28 32.9987 L1963.15 32.9987 L1963.15 27.2059 L1970.28 27.2059 L1970.28 24.0462 Q1970.28 16.471 1973.8 13.0277 Q1977.33 9.54393 1984.98 9.54393 L1992.03 9.54393 Z" fill="#000000" fill-rule="nonzero" fill-opacity="1" /><path clip-path="url(#clip830)" d="M2015.85 32.4315 Q2009.85 32.4315 2006.37 37.1306 Q2002.89 41.7891 2002.89 49.9314 Q2002.89 58.0738 2006.33 62.7728 Q2009.81 67.4314 2015.85 67.4314 Q2021.8 67.4314 2025.29 62.7323 Q2028.77 58.0333 2028.77 49.9314 Q2028.77 41.8701 2025.29 37.1711 Q2021.8 32.4315 2015.85 32.4315 M2015.85 26.1121 Q2025.57 26.1121 2031.12 32.4315 Q2036.67 38.7509 2036.67 49.9314 Q2036.67 61.0714 2031.12 67.4314 Q2025.57 73.7508 2015.85 73.7508 Q2006.09 73.7508 2000.54 67.4314 Q1995.03 61.0714 1995.03 49.9314 Q1995.03 38.7509 2000.54 32.4315 Q2006.09 26.1121 2015.85 26.1121 Z" fill="#000000" fill-rule="nonzero" fill-opacity="1" /><path clip-path="url(#clip830)" d="M2049.03 9.54393 L2056.48 9.54393 L2056.48 72.576 L2049.03 72.576 L2049.03 9.54393 Z" fill="#000000" fill-rule="nonzero" fill-opacity="1" /><path clip-path="url(#clip830)" d="M2072.08 27.2059 L2079.53 27.2059 L2079.53 72.576 L2072.08 72.576 L2072.08 27.2059 M2072.08 9.54393 L2079.53 9.54393 L2079.53 18.9825 L2072.08 18.9825 L2072.08 9.54393 Z" fill="#000000" fill-rule="nonzero" fill-opacity="1" /><path clip-path="url(#clip830)" d="M2112.71 32.4315 Q2106.71 32.4315 2103.23 37.1306 Q2099.74 41.7891 2099.74 49.9314 Q2099.74 58.0738 2103.19 62.7728 Q2106.67 67.4314 2112.71 67.4314 Q2118.66 67.4314 2122.15 62.7323 Q2125.63 58.0333 2125.63 49.9314 Q2125.63 41.8701 2122.15 37.1711 Q2118.66 32.4315 2112.71 32.4315 M2112.71 26.1121 Q2122.43 26.1121 2127.98 32.4315 Q2133.53 38.7509 2133.53 49.9314 Q2133.53 61.0714 2127.98 67.4314 Q2122.43 73.7508 2112.71 73.7508 Q2102.94 73.7508 2097.39 67.4314 Q2091.89 61.0714 2091.89 49.9314 Q2091.89 38.7509 2097.39 32.4315 Q2102.94 26.1121 2112.71 26.1121 Z" fill="#000000" fill-rule="nonzero" fill-opacity="1" /><path clip-path="url(#clip830)" d="M2174.81 28.5427 L2174.81 35.5912 Q2171.65 33.9709 2168.25 33.1607 Q2164.84 32.3505 2161.2 32.3505 Q2155.65 32.3505 2152.85 34.0519 Q2150.1 35.7533 2150.1 39.156 Q2150.1 41.7486 2152.08 43.2475 Q2154.07 44.7058 2160.06 46.0426 L2162.61 46.6097 Q2170.55 48.3111 2173.88 51.4303 Q2177.24 54.509 2177.24 60.0587 Q2177.24 66.3781 2172.21 70.0644 Q2167.23 73.7508 2158.48 73.7508 Q2154.84 73.7508 2150.87 73.0216 Q2146.94 72.3329 2142.56 70.9151 L2142.56 63.2184 Q2146.69 65.3654 2150.7 66.4591 Q2154.71 67.5124 2158.64 67.5124 Q2163.91 67.5124 2166.75 65.73 Q2169.58 63.9071 2169.58 60.6258 Q2169.58 57.5877 2167.52 55.9673 Q2165.49 54.3469 2158.56 52.8481 L2155.97 52.2405 Q2149.04 50.7821 2145.97 47.7845 Q2142.89 44.7463 2142.89 39.4801 Q2142.89 33.0797 2147.42 29.5959 Q2151.96 26.1121 2160.31 26.1121 Q2164.44 26.1121 2168.08 26.7198 Q2171.73 27.3274 2174.81 28.5427 Z" fill="#000000" fill-rule="nonzero" fill-opacity="1" /><polyline clip-path="url(#clip831)" style="stroke:#009af9; stroke-linecap:round; stroke-linejoin:round; stroke-width:4; stroke-opacity:1; fill:none" points="2293.23,160.256 724.576,208.043 572.672,413.225 348.267,914.838 318.542,1069.45 309.067,1261.43 310.965,1348.06 312.378,1382.86 312.54,1386.4 "/>
</svg>
